<svg width="527" height="266" viewBox="0 0 527 266" fill="none" xmlns="http://www.w3.org/2000/svg">
<path d="M0.5 12.1997C0.5 5.57229 5.87258 0.199707 12.5 0.199707H254.75C258.064 0.199707 260.75 2.886 260.75 6.19971V259.2C260.75 262.513 258.064 265.2 254.75 265.2H12.5C5.87258 265.2 0.5 259.827 0.5 253.2V12.1997Z" fill="#FDA344"/>
<path d="M71.2854 117.8H75.5524C76.1871 117.8 76.7594 117.913 77.2694 118.14C77.7908 118.355 78.2328 118.655 78.5954 119.041C78.9694 119.426 79.2528 119.874 79.4454 120.384C79.6494 120.882 79.7514 121.409 79.7514 121.965C79.7514 122.531 79.6494 123.064 79.4454 123.563C79.2528 124.061 78.9694 124.503 78.5954 124.889C78.2328 125.274 77.7908 125.58 77.2694 125.807C76.7594 126.022 76.1871 126.13 75.5524 126.13H73.2404V129.7H71.2854V117.8ZM75.5524 124.379C75.8924 124.379 76.1984 124.316 76.4704 124.192C76.7538 124.056 76.9918 123.88 77.1844 123.665C77.3771 123.438 77.5244 123.183 77.6264 122.9C77.7398 122.605 77.7964 122.293 77.7964 121.965C77.7964 121.636 77.7398 121.33 77.6264 121.047C77.5244 120.752 77.3771 120.497 77.1844 120.282C76.9918 120.055 76.7538 119.879 76.4704 119.755C76.1984 119.619 75.8924 119.551 75.5524 119.551H73.2404V124.379H75.5524ZM86.1944 123.495C86.0471 123.461 85.9224 123.438 85.8204 123.427C85.7297 123.415 85.6107 123.41 85.4634 123.41C84.6701 123.41 84.0637 123.642 83.6444 124.107C83.2251 124.56 83.0154 125.285 83.0154 126.283V129.7H81.1624V121.778H83.0154V123.053C83.1061 122.871 83.2307 122.701 83.3894 122.543C83.5594 122.373 83.7521 122.225 83.9674 122.101C84.1941 121.965 84.4321 121.863 84.6814 121.795C84.9421 121.715 85.2027 121.676 85.4634 121.676C85.7581 121.676 86.0017 121.715 86.1944 121.795V123.495ZM87.3372 121.778H89.1902V129.7H87.3372V121.778ZM86.8952 118.888C86.8952 118.502 87.0255 118.179 87.2862 117.919C87.5582 117.647 87.8812 117.511 88.2552 117.511C88.6405 117.511 88.9635 117.647 89.2242 117.919C89.4962 118.179 89.6322 118.502 89.6322 118.888C89.6322 119.262 89.4962 119.585 89.2242 119.857C88.9635 120.117 88.6405 120.248 88.2552 120.248C87.8812 120.248 87.5582 120.117 87.2862 119.857C87.0255 119.585 86.8952 119.262 86.8952 118.888ZM101.416 129.7V125.263C101.416 124.628 101.297 124.129 101.059 123.767C100.833 123.393 100.459 123.206 99.9372 123.206C99.6992 123.206 99.4782 123.245 99.2742 123.325C99.0815 123.404 98.9059 123.54 98.7472 123.733C98.5999 123.925 98.4809 124.18 98.3902 124.498C98.3109 124.804 98.2712 125.195 98.2712 125.671V129.7H96.4182V125.246C96.4182 124.611 96.3049 124.112 96.0782 123.75C95.8629 123.387 95.4945 123.206 94.9732 123.206C94.7352 123.206 94.5142 123.245 94.3102 123.325C94.1062 123.404 93.9249 123.54 93.7662 123.733C93.6189 123.925 93.4999 124.18 93.4092 124.498C93.3185 124.804 93.2732 125.195 93.2732 125.671V129.7H91.4202V121.778H93.2732V122.883C93.4432 122.52 93.7209 122.214 94.1062 121.965C94.5029 121.704 94.9619 121.574 95.4832 121.574C96.2085 121.574 96.7639 121.71 97.1492 121.982C97.5345 122.254 97.8122 122.588 97.9822 122.985C98.1749 122.588 98.4865 122.254 98.9172 121.982C99.3479 121.71 99.8465 121.574 100.413 121.574C101.003 121.574 101.484 121.67 101.858 121.863C102.232 122.044 102.521 122.282 102.725 122.577C102.941 122.871 103.082 123.206 103.15 123.58C103.23 123.942 103.269 124.311 103.269 124.685V129.7H101.416ZM113.15 121.778V129.7H111.297V128.629C111.048 129.025 110.691 129.337 110.226 129.564C109.773 129.79 109.314 129.904 108.849 129.904C108.248 129.904 107.699 129.796 107.2 129.581C106.701 129.354 106.271 129.048 105.908 128.663C105.557 128.277 105.279 127.835 105.075 127.337C104.882 126.838 104.786 126.305 104.786 125.739C104.786 125.183 104.882 124.656 105.075 124.158C105.279 123.648 105.557 123.2 105.908 122.815C106.271 122.429 106.701 122.129 107.2 121.914C107.699 121.687 108.248 121.574 108.849 121.574C109.314 121.574 109.773 121.687 110.226 121.914C110.691 122.14 111.048 122.452 111.297 122.849V121.778H113.15ZM108.951 128.255C109.302 128.255 109.62 128.187 109.903 128.051C110.198 127.915 110.447 127.733 110.651 127.507C110.855 127.28 111.014 127.014 111.127 126.708C111.24 126.402 111.297 126.079 111.297 125.739C111.297 125.399 111.24 125.076 111.127 124.77C111.014 124.464 110.855 124.197 110.651 123.971C110.447 123.744 110.198 123.563 109.903 123.427C109.62 123.291 109.302 123.223 108.951 123.223C108.6 123.223 108.282 123.291 107.999 123.427C107.716 123.563 107.472 123.744 107.268 123.971C107.064 124.197 106.905 124.464 106.792 124.77C106.69 125.076 106.639 125.399 106.639 125.739C106.639 126.079 106.69 126.402 106.792 126.708C106.905 127.014 107.064 127.28 107.268 127.507C107.472 127.733 107.716 127.915 107.999 128.051C108.282 128.187 108.6 128.255 108.951 128.255ZM120.406 123.495C120.259 123.461 120.134 123.438 120.032 123.427C119.942 123.415 119.823 123.41 119.675 123.41C118.882 123.41 118.276 123.642 117.856 124.107C117.437 124.56 117.227 125.285 117.227 126.283V129.7H115.374V121.778H117.227V123.053C117.318 122.871 117.443 122.701 117.601 122.543C117.771 122.373 117.964 122.225 118.179 122.101C118.406 121.965 118.644 121.863 118.893 121.795C119.154 121.715 119.415 121.676 119.675 121.676C119.97 121.676 120.214 121.715 120.406 121.795V123.495ZM125.119 133.865C124.586 133.865 124.093 133.797 123.64 133.661C123.198 133.525 122.813 133.321 122.484 133.049C122.155 132.777 121.895 132.437 121.702 132.029C121.521 131.621 121.424 131.145 121.413 130.601H123.283C123.328 131.179 123.527 131.604 123.878 131.876C124.241 132.159 124.666 132.301 125.153 132.301C125.436 132.301 125.697 132.272 125.935 132.216C126.173 132.159 126.377 132.057 126.547 131.91C126.717 131.762 126.847 131.57 126.938 131.332C127.04 131.094 127.091 130.788 127.091 130.414V128.595C126.842 129.025 126.496 129.354 126.054 129.581C125.612 129.796 125.096 129.904 124.507 129.904C123.929 129.904 123.442 129.807 123.045 129.615C122.66 129.422 122.354 129.161 122.127 128.833C121.934 128.538 121.798 128.209 121.719 127.847C121.651 127.484 121.617 127.031 121.617 126.487V121.778H123.47V125.875C123.47 126.215 123.498 126.532 123.555 126.827C123.612 127.121 123.702 127.376 123.827 127.592C123.963 127.796 124.139 127.96 124.354 128.085C124.581 128.209 124.858 128.272 125.187 128.272C125.833 128.272 126.309 128.045 126.615 127.592C126.932 127.127 127.091 126.555 127.091 125.875V121.778H128.944V130.414C128.944 131.558 128.615 132.425 127.958 133.015C127.312 133.581 126.366 133.865 125.119 133.865ZM135.127 117.8H139.19C140.006 117.8 140.664 117.913 141.162 118.14C141.661 118.355 142.046 118.627 142.318 118.956C142.602 119.273 142.789 119.619 142.879 119.993C142.97 120.367 143.015 120.707 143.015 121.013C143.015 121.387 142.953 121.727 142.828 122.033C142.704 122.327 142.539 122.588 142.335 122.815C142.143 123.03 141.922 123.211 141.672 123.359C141.423 123.495 141.174 123.591 140.924 123.648C141.117 123.648 141.338 123.704 141.587 123.818C141.837 123.931 142.075 124.101 142.301 124.328C142.528 124.543 142.721 124.821 142.879 125.161C143.038 125.489 143.117 125.88 143.117 126.334C143.117 126.64 143.066 126.991 142.964 127.388C142.862 127.773 142.67 128.141 142.386 128.493C142.103 128.833 141.706 129.122 141.196 129.36C140.686 129.586 140.023 129.7 139.207 129.7H135.127V117.8ZM137.082 124.549V127.949H139.292C139.689 127.949 140.006 127.898 140.244 127.796C140.494 127.682 140.686 127.541 140.822 127.371C140.958 127.201 141.049 127.019 141.094 126.827C141.14 126.623 141.162 126.436 141.162 126.266C141.162 126.118 141.134 125.948 141.077 125.756C141.032 125.552 140.936 125.365 140.788 125.195C140.652 125.013 140.465 124.86 140.227 124.736C139.989 124.611 139.683 124.549 139.309 124.549H137.082ZM139.19 122.798C139.587 122.798 139.904 122.741 140.142 122.628C140.392 122.514 140.584 122.378 140.72 122.22C140.856 122.05 140.947 121.874 140.992 121.693C141.038 121.5 141.06 121.33 141.06 121.183C141.06 121.035 141.038 120.871 140.992 120.69C140.947 120.497 140.856 120.316 140.72 120.146C140.584 119.976 140.392 119.834 140.142 119.721C139.904 119.607 139.587 119.551 139.19 119.551H137.082V122.798H139.19ZM152.228 121.778V129.7H150.375V128.595C150.126 129.025 149.78 129.354 149.338 129.581C148.896 129.796 148.381 129.904 147.791 129.904C147.213 129.904 146.726 129.807 146.329 129.615C145.944 129.422 145.638 129.161 145.411 128.833C145.219 128.538 145.083 128.209 145.003 127.847C144.935 127.484 144.901 127.031 144.901 126.487V121.778H146.754V125.875C146.754 126.215 146.783 126.532 146.839 126.827C146.896 127.121 146.987 127.376 147.111 127.592C147.247 127.796 147.423 127.96 147.638 128.085C147.865 128.209 148.143 128.272 148.471 128.272C149.117 128.272 149.593 128.045 149.899 127.592C150.217 127.127 150.375 126.555 150.375 125.875V121.778H152.228ZM158.852 129.7C158.705 129.722 158.506 129.745 158.257 129.768C158.008 129.79 157.747 129.802 157.475 129.802C157.248 129.802 156.988 129.779 156.693 129.734C156.398 129.7 156.115 129.592 155.843 129.411C155.582 129.229 155.361 128.952 155.18 128.578C154.999 128.204 154.908 127.682 154.908 127.014V123.325H153.565V121.778H154.908V119.381H156.761V121.778H158.58V123.325H156.761V126.589C156.761 126.929 156.784 127.201 156.829 127.405C156.886 127.609 156.965 127.767 157.067 127.881C157.169 127.983 157.288 128.051 157.424 128.085C157.571 128.119 157.736 128.136 157.917 128.136C158.064 128.136 158.234 128.13 158.427 128.119C158.62 128.107 158.761 128.09 158.852 128.068V129.7ZM164.562 129.7C164.415 129.722 164.216 129.745 163.967 129.768C163.718 129.79 163.457 129.802 163.185 129.802C162.958 129.802 162.698 129.779 162.403 129.734C162.108 129.7 161.825 129.592 161.553 129.411C161.292 129.229 161.071 128.952 160.89 128.578C160.709 128.204 160.618 127.682 160.618 127.014V123.325H159.275V121.778H160.618V119.381H162.471V121.778H164.29V123.325H162.471V126.589C162.471 126.929 162.494 127.201 162.539 127.405C162.596 127.609 162.675 127.767 162.777 127.881C162.879 127.983 162.998 128.051 163.134 128.085C163.281 128.119 163.446 128.136 163.627 128.136C163.774 128.136 163.944 128.13 164.137 128.119C164.33 128.107 164.471 128.09 164.562 128.068V129.7ZM169.456 129.904C168.821 129.904 168.249 129.796 167.739 129.581C167.229 129.354 166.793 129.048 166.43 128.663C166.067 128.277 165.784 127.835 165.58 127.337C165.387 126.838 165.291 126.305 165.291 125.739C165.291 125.183 165.387 124.656 165.58 124.158C165.784 123.648 166.067 123.2 166.43 122.815C166.793 122.429 167.229 122.129 167.739 121.914C168.249 121.687 168.821 121.574 169.456 121.574C170.091 121.574 170.663 121.687 171.173 121.914C171.694 122.129 172.136 122.429 172.499 122.815C172.873 123.2 173.156 123.648 173.349 124.158C173.553 124.656 173.655 125.183 173.655 125.739C173.655 126.305 173.553 126.838 173.349 127.337C173.156 127.835 172.873 128.277 172.499 128.663C172.136 129.048 171.694 129.354 171.173 129.581C170.663 129.796 170.091 129.904 169.456 129.904ZM169.456 128.255C169.807 128.255 170.125 128.187 170.408 128.051C170.703 127.915 170.952 127.733 171.156 127.507C171.36 127.28 171.519 127.014 171.632 126.708C171.745 126.402 171.802 126.079 171.802 125.739C171.802 125.399 171.745 125.076 171.632 124.77C171.519 124.464 171.36 124.197 171.156 123.971C170.952 123.744 170.703 123.563 170.408 123.427C170.125 123.291 169.807 123.223 169.456 123.223C169.105 123.223 168.787 123.291 168.504 123.427C168.221 123.563 167.977 123.744 167.773 123.971C167.569 124.197 167.41 124.464 167.297 124.77C167.195 125.076 167.144 125.399 167.144 125.739C167.144 126.079 167.195 126.402 167.297 126.708C167.41 127.014 167.569 127.28 167.773 127.507C167.977 127.733 168.221 127.915 168.504 128.051C168.787 128.187 169.105 128.255 169.456 128.255ZM175.298 121.778H177.151V122.883C177.4 122.452 177.746 122.129 178.188 121.914C178.63 121.687 179.146 121.574 179.735 121.574C180.313 121.574 180.795 121.67 181.18 121.863C181.577 122.055 181.888 122.316 182.115 122.645C182.308 122.939 182.438 123.268 182.506 123.631C182.585 123.993 182.625 124.447 182.625 124.991V129.7H180.772V125.603C180.772 125.263 180.744 124.945 180.687 124.651C180.63 124.356 180.534 124.107 180.398 123.903C180.273 123.687 180.098 123.517 179.871 123.393C179.656 123.268 179.384 123.206 179.055 123.206C178.409 123.206 177.927 123.438 177.61 123.903C177.304 124.356 177.151 124.923 177.151 125.603V129.7H175.298V121.778ZM188.331 125.229C188.603 125.331 188.869 125.438 189.13 125.552C189.391 125.665 189.623 125.807 189.827 125.977C190.031 126.147 190.19 126.351 190.303 126.589C190.428 126.827 190.49 127.127 190.49 127.49C190.49 127.898 190.405 128.255 190.235 128.561C190.076 128.867 189.85 129.122 189.555 129.326C189.272 129.518 188.937 129.66 188.552 129.751C188.167 129.853 187.759 129.904 187.328 129.904C186.897 129.904 186.489 129.841 186.104 129.717C185.719 129.592 185.373 129.411 185.067 129.173C184.772 128.923 184.534 128.623 184.353 128.272C184.183 127.909 184.098 127.495 184.098 127.031H185.9C185.9 127.552 186.042 127.92 186.325 128.136C186.62 128.34 186.988 128.442 187.43 128.442C187.793 128.442 188.099 128.374 188.348 128.238C188.597 128.102 188.722 127.864 188.722 127.524C188.722 127.342 188.671 127.195 188.569 127.082C188.467 126.968 188.314 126.866 188.11 126.776C187.906 126.674 187.651 126.572 187.345 126.47C187.039 126.368 186.676 126.237 186.257 126.079C185.985 125.977 185.73 125.869 185.492 125.756C185.265 125.631 185.067 125.489 184.897 125.331C184.727 125.172 184.597 124.974 184.506 124.736C184.415 124.498 184.37 124.209 184.37 123.869C184.37 123.495 184.449 123.166 184.608 122.883C184.767 122.599 184.982 122.361 185.254 122.169C185.526 121.965 185.838 121.817 186.189 121.727C186.552 121.625 186.937 121.574 187.345 121.574C187.764 121.574 188.155 121.642 188.518 121.778C188.892 121.914 189.215 122.101 189.487 122.339C189.759 122.577 189.974 122.86 190.133 123.189C190.292 123.517 190.371 123.874 190.371 124.26H188.569C188.569 123.886 188.467 123.591 188.263 123.376C188.07 123.149 187.747 123.036 187.294 123.036C186.977 123.036 186.705 123.109 186.478 123.257C186.263 123.404 186.155 123.619 186.155 123.903C186.155 124.073 186.2 124.214 186.291 124.328C186.382 124.43 186.518 124.526 186.699 124.617C186.88 124.696 187.107 124.787 187.379 124.889C187.651 124.979 187.968 125.093 188.331 125.229Z" fill="white"/>
<path d="M112.008 145.7H112.861L113.18 143.754H114.228L114.366 142.901H113.319L113.596 141.225H114.65L114.789 140.373H113.734L114.054 138.427H113.202L112.882 140.373H111.177L111.497 138.427H110.645L110.325 140.373H109.278L109.139 141.225H110.187L109.91 142.901H108.855L108.717 143.754H109.771L109.452 145.7H110.304L110.623 143.754H112.328L112.008 145.7ZM110.762 142.901L111.039 141.225H112.744L112.467 142.901H110.762ZM115.484 145.7H116.581V142.529H119.67V141.587H116.581V139.372H119.994V138.427H115.484V145.7ZM123.447 145.7C125.663 145.7 126.945 144.325 126.945 142.053C126.945 139.791 125.663 138.427 123.522 138.427H121.093V145.7H123.447ZM122.19 144.741V139.386H123.454C125.045 139.386 125.866 140.337 125.866 142.053C125.866 143.775 125.045 144.741 123.387 144.741H122.19ZM128.313 145.7L128.98 143.775H131.821L132.485 145.7H133.65L131.033 138.427H129.765L127.148 145.7H128.313ZM129.3 142.852L130.372 139.748H130.429L131.502 142.852H129.3ZM136.883 145.799C138.367 145.799 139.457 144.911 139.454 143.704C139.457 142.784 138.9 142.124 137.934 141.975V141.918C138.694 141.722 139.188 141.126 139.184 140.309C139.188 139.24 138.31 138.328 136.911 138.328C135.576 138.328 134.504 139.134 134.468 140.316H135.53C135.555 139.649 136.183 139.244 136.897 139.244C137.639 139.244 138.126 139.695 138.122 140.366C138.126 141.069 137.561 141.531 136.755 141.531H136.141V142.426H136.755C137.764 142.426 138.346 142.937 138.346 143.668C138.346 144.375 137.732 144.855 136.876 144.855C136.087 144.855 135.473 144.45 135.43 143.803H134.315C134.362 144.989 135.413 145.799 136.883 145.799ZM140.394 144.279H143.842V145.7H144.889V144.279H145.852V143.349H144.889V138.427H143.536L140.394 143.391V144.279ZM143.849 143.349H141.544V143.292L143.792 139.734H143.849V143.349ZM146.687 144.279H150.135V145.7H151.182V144.279H152.145V143.349H151.182V138.427H149.829L146.687 143.391V144.279ZM150.142 143.349H147.837V143.292L150.085 139.734H150.142V143.349Z" fill="white"/>
<path d="M266.75 9.6197C266.75 6.42909 266.75 4.83379 267.341 3.60247C267.932 2.373 268.923 1.38136 270.153 0.790976C271.384 0.199707 272.979 0.199707 276.17 0.199707H508.16C514.541 0.199707 517.732 0.199707 520.194 1.38225C522.653 2.56301 524.637 4.5463 525.817 7.00524C527 9.46787 527 12.6585 527 19.0397V120.28C527 123.47 527 125.066 526.409 126.297C525.818 127.526 524.827 128.518 523.597 129.108C522.366 129.7 520.771 129.7 517.58 129.7H276.17C272.979 129.7 271.384 129.7 270.153 129.108C268.923 128.518 267.932 127.526 267.341 126.297C266.75 125.066 266.75 123.47 266.75 120.28V9.6197Z" fill="#F6E8D7"/>
<path d="M328.115 58.0567C328.115 58.8387 328.331 59.4394 328.761 59.8587C329.192 60.278 329.747 60.4877 330.427 60.4877C330.699 60.4877 330.954 60.448 331.192 60.3687C331.43 60.278 331.634 60.159 331.804 60.0117C331.986 59.853 332.127 59.666 332.229 59.4507C332.331 59.2354 332.382 58.9917 332.382 58.7197C332.382 58.4137 332.32 58.1587 332.195 57.9547C332.082 57.7507 331.929 57.5807 331.736 57.4447C331.555 57.2974 331.351 57.1784 331.124 57.0877C330.909 56.9857 330.699 56.9007 330.495 56.8327C329.951 56.64 329.441 56.4474 328.965 56.2547C328.489 56.0507 328.07 55.8127 327.707 55.5407C327.356 55.2574 327.078 54.9174 326.874 54.5207C326.67 54.124 326.568 53.6254 326.568 53.0247C326.568 52.5374 326.665 52.0954 326.857 51.6987C327.061 51.2907 327.328 50.945 327.656 50.6617C327.996 50.367 328.387 50.146 328.829 49.9987C329.283 49.84 329.759 49.7607 330.257 49.7607C330.79 49.7607 331.289 49.8514 331.753 50.0327C332.218 50.214 332.62 50.469 332.96 50.7977C333.3 51.1264 333.567 51.5174 333.759 51.9707C333.952 52.424 334.048 52.9284 334.048 53.4837H332.093C332.093 52.8944 331.935 52.4184 331.617 52.0557C331.3 51.693 330.864 51.5117 330.308 51.5117C329.821 51.5117 329.402 51.6364 329.05 51.8857C328.699 52.135 328.523 52.5147 328.523 53.0247C328.523 53.2627 328.569 53.478 328.659 53.6707C328.761 53.852 328.892 54.0107 329.05 54.1467C329.22 54.2827 329.407 54.4017 329.611 54.5037C329.815 54.6057 330.031 54.6964 330.257 54.7757C330.722 54.9457 331.192 55.127 331.668 55.3197C332.156 55.5124 332.598 55.7504 332.994 56.0337C333.391 56.317 333.714 56.657 333.963 57.0537C334.213 57.4504 334.337 57.932 334.337 58.4987C334.337 59.1107 334.23 59.649 334.014 60.1137C333.799 60.5784 333.504 60.9694 333.13 61.2867C332.756 61.604 332.32 61.842 331.821 62.0007C331.334 62.1594 330.813 62.2387 330.257 62.2387C329.713 62.2387 329.192 62.1424 328.693 61.9497C328.206 61.7684 327.775 61.502 327.401 61.1507C327.027 60.788 326.727 60.3517 326.5 59.8417C326.274 59.3204 326.16 58.7254 326.16 58.0567H328.115ZM339.414 55.2177C338.836 55.2177 338.354 55.382 337.969 55.7107C337.584 56.0394 337.391 56.5267 337.391 57.1727H341.335C341.335 56.5607 341.154 56.0847 340.791 55.7447C340.44 55.3934 339.981 55.2177 339.414 55.2177ZM337.391 58.5497C337.414 58.833 337.465 59.0994 337.544 59.3487C337.623 59.598 337.742 59.819 337.901 60.0117C338.071 60.193 338.286 60.3404 338.547 60.4537C338.808 60.5557 339.131 60.6067 339.516 60.6067C340.049 60.6067 340.434 60.5047 340.672 60.3007C340.91 60.0967 341.086 59.853 341.199 59.5697H343.069C343.012 59.9097 342.888 60.2384 342.695 60.5557C342.514 60.8617 342.27 61.1337 341.964 61.3717C341.658 61.6097 341.301 61.8024 340.893 61.9497C340.485 62.0857 340.026 62.1537 339.516 62.1537C338.847 62.1537 338.264 62.046 337.765 61.8307C337.278 61.6154 336.87 61.3207 336.541 60.9467C336.212 60.5727 335.963 60.1307 335.793 59.6207C335.634 59.1107 335.555 58.5667 335.555 57.9887C335.555 57.3994 335.64 56.8497 335.81 56.3397C335.991 55.8297 336.246 55.3877 336.575 55.0137C336.904 54.6397 337.312 54.3507 337.799 54.1467C338.286 53.9314 338.842 53.8237 339.465 53.8237C339.975 53.8237 340.451 53.9144 340.893 54.0957C341.346 54.277 341.737 54.532 342.066 54.8607C342.406 55.178 342.667 55.552 342.848 55.9827C343.041 56.4134 343.137 56.8837 343.137 57.3937C343.137 57.5297 343.131 57.694 343.12 57.8867C343.12 58.068 343.097 58.289 343.052 58.5497H337.391ZM350.184 56.9177C350.128 56.487 349.958 56.1414 349.674 55.8807C349.402 55.6087 348.949 55.4727 348.314 55.4727C347.952 55.4727 347.64 55.5407 347.379 55.6767C347.119 55.8127 346.898 55.9997 346.716 56.2377C346.535 56.4644 346.399 56.7307 346.308 57.0367C346.229 57.3314 346.189 57.6487 346.189 57.9887C346.189 58.3287 346.229 58.6517 346.308 58.9577C346.399 59.2637 346.535 59.53 346.716 59.7567C346.898 59.9834 347.13 60.1647 347.413 60.3007C347.697 60.4367 348.037 60.5047 348.433 60.5047C348.977 60.5047 349.374 60.3914 349.623 60.1647C349.884 59.938 350.077 59.6264 350.201 59.2297H352.054C351.986 59.6377 351.862 60.023 351.68 60.3857C351.499 60.737 351.25 61.0487 350.932 61.3207C350.626 61.5814 350.252 61.7854 349.81 61.9327C349.38 62.08 348.875 62.1537 348.297 62.1537C347.651 62.1537 347.079 62.0404 346.58 61.8137C346.093 61.5757 345.679 61.264 345.339 60.8787C345.011 60.4934 344.761 60.0514 344.591 59.5527C344.421 59.054 344.336 58.5327 344.336 57.9887C344.336 57.456 344.421 56.9404 344.591 56.4417C344.761 55.9317 345.011 55.484 345.339 55.0987C345.679 54.7134 346.093 54.4074 346.58 54.1807C347.068 53.9427 347.634 53.8237 348.28 53.8237C348.926 53.8237 349.476 53.9144 349.929 54.0957C350.394 54.277 350.774 54.515 351.068 54.8097C351.374 55.093 351.601 55.4217 351.748 55.7957C351.907 56.1584 352.003 56.5324 352.037 56.9177H350.184ZM357.215 62.1537C356.581 62.1537 356.008 62.046 355.498 61.8307C354.988 61.604 354.552 61.298 354.189 60.9127C353.827 60.5274 353.543 60.0854 353.339 59.5867C353.147 59.088 353.05 58.5554 353.05 57.9887C353.05 57.4334 353.147 56.9064 353.339 56.4077C353.543 55.8977 353.827 55.45 354.189 55.0647C354.552 54.6794 354.988 54.379 355.498 54.1637C356.008 53.937 356.581 53.8237 357.215 53.8237C357.85 53.8237 358.422 53.937 358.932 54.1637C359.454 54.379 359.896 54.6794 360.258 55.0647C360.632 55.45 360.916 55.8977 361.108 56.4077C361.312 56.9064 361.414 57.4334 361.414 57.9887C361.414 58.5554 361.312 59.088 361.108 59.5867C360.916 60.0854 360.632 60.5274 360.258 60.9127C359.896 61.298 359.454 61.604 358.932 61.8307C358.422 62.046 357.85 62.1537 357.215 62.1537ZM357.215 60.5047C357.567 60.5047 357.884 60.4367 358.167 60.3007C358.462 60.1647 358.711 59.9834 358.915 59.7567C359.119 59.53 359.278 59.2637 359.391 58.9577C359.505 58.6517 359.561 58.3287 359.561 57.9887C359.561 57.6487 359.505 57.3257 359.391 57.0197C359.278 56.7137 359.119 56.4474 358.915 56.2207C358.711 55.994 358.462 55.8127 358.167 55.6767C357.884 55.5407 357.567 55.4727 357.215 55.4727C356.864 55.4727 356.547 55.5407 356.263 55.6767C355.98 55.8127 355.736 55.994 355.532 56.2207C355.328 56.4474 355.17 56.7137 355.056 57.0197C354.954 57.3257 354.903 57.6487 354.903 57.9887C354.903 58.3287 354.954 58.6517 355.056 58.9577C355.17 59.2637 355.328 59.53 355.532 59.7567C355.736 59.9834 355.98 60.1647 356.263 60.3007C356.547 60.4367 356.864 60.5047 357.215 60.5047ZM363.057 54.0277H364.91V55.1327C365.16 54.702 365.505 54.379 365.947 54.1637C366.389 53.937 366.905 53.8237 367.494 53.8237C368.072 53.8237 368.554 53.92 368.939 54.1127C369.336 54.3054 369.648 54.566 369.874 54.8947C370.067 55.1894 370.197 55.518 370.265 55.8807C370.345 56.2434 370.384 56.6967 370.384 57.2407V61.9497H368.531V57.8527C368.531 57.5127 368.503 57.1954 368.446 56.9007C368.39 56.606 368.293 56.3567 368.157 56.1527C368.033 55.9374 367.857 55.7674 367.63 55.6427C367.415 55.518 367.143 55.4557 366.814 55.4557C366.168 55.4557 365.687 55.688 365.369 56.1527C365.063 56.606 364.91 57.1727 364.91 57.8527V61.9497H363.057V54.0277ZM378.402 60.8787C378.153 61.2754 377.796 61.587 377.331 61.8137C376.878 62.0404 376.419 62.1537 375.954 62.1537C375.353 62.1537 374.804 62.046 374.305 61.8307C373.806 61.604 373.376 61.298 373.013 60.9127C372.662 60.5274 372.384 60.0854 372.18 59.5867C371.987 59.088 371.891 58.5554 371.891 57.9887C371.891 57.4334 371.987 56.9064 372.18 56.4077C372.384 55.8977 372.662 55.45 373.013 55.0647C373.376 54.6794 373.806 54.379 374.305 54.1637C374.804 53.937 375.353 53.8237 375.954 53.8237C376.419 53.8237 376.878 53.937 377.331 54.1637C377.796 54.3904 378.153 54.702 378.402 55.0987V50.0497H380.255V61.9497H378.402V60.8787ZM376.056 60.5047C376.407 60.5047 376.725 60.4367 377.008 60.3007C377.303 60.1647 377.552 59.9834 377.756 59.7567C377.96 59.53 378.119 59.2637 378.232 58.9577C378.345 58.6517 378.402 58.3287 378.402 57.9887C378.402 57.6487 378.345 57.3257 378.232 57.0197C378.119 56.7137 377.96 56.4474 377.756 56.2207C377.552 55.994 377.303 55.8127 377.008 55.6767C376.725 55.5407 376.407 55.4727 376.056 55.4727C375.705 55.4727 375.387 55.5407 375.104 55.6767C374.821 55.8127 374.577 55.994 374.373 56.2207C374.169 56.4474 374.01 56.7137 373.897 57.0197C373.795 57.3257 373.744 57.6487 373.744 57.9887C373.744 58.3287 373.795 58.6517 373.897 58.9577C374.01 59.2637 374.169 59.53 374.373 59.7567C374.577 59.9834 374.821 60.1647 375.104 60.3007C375.387 60.4367 375.705 60.5047 376.056 60.5047ZM390.248 54.0277V61.9497H388.395V60.8787C388.146 61.2754 387.789 61.587 387.324 61.8137C386.871 62.0404 386.412 62.1537 385.947 62.1537C385.347 62.1537 384.797 62.046 384.298 61.8307C383.8 61.604 383.369 61.298 383.006 60.9127C382.655 60.5274 382.377 60.0854 382.173 59.5867C381.981 59.088 381.884 58.5554 381.884 57.9887C381.884 57.4334 381.981 56.9064 382.173 56.4077C382.377 55.8977 382.655 55.45 383.006 55.0647C383.369 54.6794 383.8 54.379 384.298 54.1637C384.797 53.937 385.347 53.8237 385.947 53.8237C386.412 53.8237 386.871 53.937 387.324 54.1637C387.789 54.3904 388.146 54.702 388.395 55.0987V54.0277H390.248ZM386.049 60.5047C386.401 60.5047 386.718 60.4367 387.001 60.3007C387.296 60.1647 387.545 59.9834 387.749 59.7567C387.953 59.53 388.112 59.2637 388.225 58.9577C388.339 58.6517 388.395 58.3287 388.395 57.9887C388.395 57.6487 388.339 57.3257 388.225 57.0197C388.112 56.7137 387.953 56.4474 387.749 56.2207C387.545 55.994 387.296 55.8127 387.001 55.6767C386.718 55.5407 386.401 55.4727 386.049 55.4727C385.698 55.4727 385.381 55.5407 385.097 55.6767C384.814 55.8127 384.57 55.994 384.366 56.2207C384.162 56.4474 384.004 56.7137 383.89 57.0197C383.788 57.3257 383.737 57.6487 383.737 57.9887C383.737 58.3287 383.788 58.6517 383.89 58.9577C384.004 59.2637 384.162 59.53 384.366 59.7567C384.57 59.9834 384.814 60.1647 385.097 60.3007C385.381 60.4367 385.698 60.5047 386.049 60.5047ZM397.504 55.7447C397.357 55.7107 397.232 55.688 397.13 55.6767C397.04 55.6654 396.921 55.6597 396.773 55.6597C395.98 55.6597 395.374 55.892 394.954 56.3567C394.535 56.81 394.325 57.5354 394.325 58.5327V61.9497H392.472V54.0277H394.325V55.3027C394.416 55.1214 394.541 54.9514 394.699 54.7927C394.869 54.6227 395.062 54.4754 395.277 54.3507C395.504 54.2147 395.742 54.1127 395.991 54.0447C396.252 53.9654 396.513 53.9257 396.773 53.9257C397.068 53.9257 397.312 53.9654 397.504 54.0447V55.7447ZM402.217 66.1147C401.685 66.1147 401.192 66.0467 400.738 65.9107C400.296 65.7747 399.911 65.5707 399.582 65.2987C399.254 65.0267 398.993 64.6867 398.8 64.2787C398.619 63.8707 398.523 63.3947 398.511 62.8507H400.381C400.427 63.4287 400.625 63.8537 400.976 64.1257C401.339 64.409 401.764 64.5507 402.251 64.5507C402.535 64.5507 402.795 64.5224 403.033 64.4657C403.271 64.409 403.475 64.307 403.645 64.1597C403.815 64.0124 403.946 63.8197 404.036 63.5817C404.138 63.3437 404.189 63.0377 404.189 62.6637V60.8447C403.94 61.2754 403.594 61.604 403.152 61.8307C402.71 62.046 402.195 62.1537 401.605 62.1537C401.027 62.1537 400.54 62.0574 400.143 61.8647C399.758 61.672 399.452 61.4114 399.225 61.0827C399.033 60.788 398.897 60.4594 398.817 60.0967C398.749 59.734 398.715 59.2807 398.715 58.7367V54.0277H400.568V58.1247C400.568 58.4647 400.597 58.782 400.653 59.0767C400.71 59.3714 400.801 59.6264 400.925 59.8417C401.061 60.0457 401.237 60.21 401.452 60.3347C401.679 60.4594 401.957 60.5217 402.285 60.5217C402.931 60.5217 403.407 60.295 403.713 59.8417C404.031 59.377 404.189 58.8047 404.189 58.1247V54.0277H406.042V62.6637C406.042 63.8084 405.714 64.6754 405.056 65.2647C404.41 65.8314 403.464 66.1147 402.217 66.1147ZM412.225 50.0497H416.288C417.104 50.0497 417.762 50.163 418.26 50.3897C418.759 50.605 419.144 50.877 419.416 51.2057C419.7 51.523 419.887 51.8687 419.977 52.2427C420.068 52.6167 420.113 52.9567 420.113 53.2627C420.113 53.6367 420.051 53.9767 419.926 54.2827C419.802 54.5774 419.637 54.838 419.433 55.0647C419.241 55.28 419.02 55.4614 418.77 55.6087C418.521 55.7447 418.272 55.841 418.022 55.8977C418.215 55.8977 418.436 55.9544 418.685 56.0677C418.935 56.181 419.173 56.351 419.399 56.5777C419.626 56.793 419.819 57.0707 419.977 57.4107C420.136 57.7394 420.215 58.1304 420.215 58.5837C420.215 58.8897 420.164 59.241 420.062 59.6377C419.96 60.023 419.768 60.3914 419.484 60.7427C419.201 61.0827 418.804 61.3717 418.294 61.6097C417.784 61.8364 417.121 61.9497 416.305 61.9497H412.225V50.0497ZM414.18 56.7987V60.1987H416.39C416.787 60.1987 417.104 60.1477 417.342 60.0457C417.592 59.9324 417.784 59.7907 417.92 59.6207C418.056 59.4507 418.147 59.2694 418.192 59.0767C418.238 58.8727 418.26 58.6857 418.26 58.5157C418.26 58.3684 418.232 58.1984 418.175 58.0057C418.13 57.8017 418.034 57.6147 417.886 57.4447C417.75 57.2634 417.563 57.1104 417.325 56.9857C417.087 56.861 416.781 56.7987 416.407 56.7987H414.18ZM416.288 55.0477C416.685 55.0477 417.002 54.991 417.24 54.8777C417.49 54.7644 417.682 54.6284 417.818 54.4697C417.954 54.2997 418.045 54.124 418.09 53.9427C418.136 53.75 418.158 53.58 418.158 53.4327C418.158 53.2854 418.136 53.121 418.09 52.9397C418.045 52.747 417.954 52.5657 417.818 52.3957C417.682 52.2257 417.49 52.084 417.24 51.9707C417.002 51.8574 416.685 51.8007 416.288 51.8007H414.18V55.0477H416.288ZM429.327 54.0277V61.9497H427.474V60.8447C427.224 61.2754 426.879 61.604 426.437 61.8307C425.995 62.046 425.479 62.1537 424.89 62.1537C424.312 62.1537 423.824 62.0574 423.428 61.8647C423.042 61.672 422.736 61.4114 422.51 61.0827C422.317 60.788 422.181 60.4594 422.102 60.0967C422.034 59.734 422 59.2807 422 58.7367V54.0277H423.853V58.1247C423.853 58.4647 423.881 58.782 423.938 59.0767C423.994 59.3714 424.085 59.6264 424.21 59.8417C424.346 60.0457 424.521 60.21 424.737 60.3347C424.963 60.4594 425.241 60.5217 425.57 60.5217C426.216 60.5217 426.692 60.295 426.998 59.8417C427.315 59.377 427.474 58.8047 427.474 58.1247V54.0277H429.327ZM435.95 61.9497C435.803 61.9724 435.605 61.995 435.355 62.0177C435.106 62.0404 434.845 62.0517 434.573 62.0517C434.347 62.0517 434.086 62.029 433.791 61.9837C433.497 61.9497 433.213 61.842 432.941 61.6607C432.681 61.4794 432.46 61.2017 432.278 60.8277C432.097 60.4537 432.006 59.9324 432.006 59.2637V55.5747H430.663V54.0277H432.006V51.6307H433.859V54.0277H435.678V55.5747H433.859V58.8387C433.859 59.1787 433.882 59.4507 433.927 59.6547C433.984 59.8587 434.063 60.0174 434.165 60.1307C434.267 60.2327 434.386 60.3007 434.522 60.3347C434.67 60.3687 434.834 60.3857 435.015 60.3857C435.163 60.3857 435.333 60.38 435.525 60.3687C435.718 60.3574 435.86 60.3404 435.95 60.3177V61.9497ZM441.66 61.9497C441.513 61.9724 441.315 61.995 441.065 62.0177C440.816 62.0404 440.555 62.0517 440.283 62.0517C440.057 62.0517 439.796 62.029 439.501 61.9837C439.207 61.9497 438.923 61.842 438.651 61.6607C438.391 61.4794 438.17 61.2017 437.988 60.8277C437.807 60.4537 437.716 59.9324 437.716 59.2637V55.5747H436.373V54.0277H437.716V51.6307H439.569V54.0277H441.388V55.5747H439.569V58.8387C439.569 59.1787 439.592 59.4507 439.637 59.6547C439.694 59.8587 439.773 60.0174 439.875 60.1307C439.977 60.2327 440.096 60.3007 440.232 60.3347C440.38 60.3687 440.544 60.3857 440.725 60.3857C440.873 60.3857 441.043 60.38 441.235 60.3687C441.428 60.3574 441.57 60.3404 441.66 60.3177V61.9497ZM446.554 62.1537C445.919 62.1537 445.347 62.046 444.837 61.8307C444.327 61.604 443.891 61.298 443.528 60.9127C443.165 60.5274 442.882 60.0854 442.678 59.5867C442.485 59.088 442.389 58.5554 442.389 57.9887C442.389 57.4334 442.485 56.9064 442.678 56.4077C442.882 55.8977 443.165 55.45 443.528 55.0647C443.891 54.6794 444.327 54.379 444.837 54.1637C445.347 53.937 445.919 53.8237 446.554 53.8237C447.189 53.8237 447.761 53.937 448.271 54.1637C448.792 54.379 449.234 54.6794 449.597 55.0647C449.971 55.45 450.254 55.8977 450.447 56.4077C450.651 56.9064 450.753 57.4334 450.753 57.9887C450.753 58.5554 450.651 59.088 450.447 59.5867C450.254 60.0854 449.971 60.5274 449.597 60.9127C449.234 61.298 448.792 61.604 448.271 61.8307C447.761 62.046 447.189 62.1537 446.554 62.1537ZM446.554 60.5047C446.905 60.5047 447.223 60.4367 447.506 60.3007C447.801 60.1647 448.05 59.9834 448.254 59.7567C448.458 59.53 448.617 59.2637 448.73 58.9577C448.843 58.6517 448.9 58.3287 448.9 57.9887C448.9 57.6487 448.843 57.3257 448.73 57.0197C448.617 56.7137 448.458 56.4474 448.254 56.2207C448.05 55.994 447.801 55.8127 447.506 55.6767C447.223 55.5407 446.905 55.4727 446.554 55.4727C446.203 55.4727 445.885 55.5407 445.602 55.6767C445.319 55.8127 445.075 55.994 444.871 56.2207C444.667 56.4474 444.508 56.7137 444.395 57.0197C444.293 57.3257 444.242 57.6487 444.242 57.9887C444.242 58.3287 444.293 58.6517 444.395 58.9577C444.508 59.2637 444.667 59.53 444.871 59.7567C445.075 59.9834 445.319 60.1647 445.602 60.3007C445.885 60.4367 446.203 60.5047 446.554 60.5047ZM452.396 54.0277H454.249V55.1327C454.499 54.702 454.844 54.379 455.286 54.1637C455.728 53.937 456.244 53.8237 456.833 53.8237C457.411 53.8237 457.893 53.92 458.278 54.1127C458.675 54.3054 458.987 54.566 459.213 54.8947C459.406 55.1894 459.536 55.518 459.604 55.8807C459.684 56.2434 459.723 56.6967 459.723 57.2407V61.9497H457.87V57.8527C457.87 57.5127 457.842 57.1954 457.785 56.9007C457.729 56.606 457.632 56.3567 457.496 56.1527C457.372 55.9374 457.196 55.7674 456.969 55.6427C456.754 55.518 456.482 55.4557 456.153 55.4557C455.507 55.4557 455.026 55.688 454.708 56.1527C454.402 56.606 454.249 57.1727 454.249 57.8527V61.9497H452.396V54.0277ZM465.429 57.4787C465.701 57.5807 465.967 57.6884 466.228 57.8017C466.489 57.915 466.721 58.0567 466.925 58.2267C467.129 58.3967 467.288 58.6007 467.401 58.8387C467.526 59.0767 467.588 59.377 467.588 59.7397C467.588 60.1477 467.503 60.5047 467.333 60.8107C467.174 61.1167 466.948 61.3717 466.653 61.5757C466.37 61.7684 466.035 61.91 465.65 62.0007C465.265 62.1027 464.857 62.1537 464.426 62.1537C463.995 62.1537 463.587 62.0914 463.202 61.9667C462.817 61.842 462.471 61.6607 462.165 61.4227C461.87 61.1734 461.632 60.873 461.451 60.5217C461.281 60.159 461.196 59.7454 461.196 59.2807H462.998C462.998 59.802 463.14 60.1704 463.423 60.3857C463.718 60.5897 464.086 60.6917 464.528 60.6917C464.891 60.6917 465.197 60.6237 465.446 60.4877C465.695 60.3517 465.82 60.1137 465.82 59.7737C465.82 59.5924 465.769 59.445 465.667 59.3317C465.565 59.2184 465.412 59.1164 465.208 59.0257C465.004 58.9237 464.749 58.8217 464.443 58.7197C464.137 58.6177 463.774 58.4874 463.355 58.3287C463.083 58.2267 462.828 58.119 462.59 58.0057C462.363 57.881 462.165 57.7394 461.995 57.5807C461.825 57.422 461.695 57.2237 461.604 56.9857C461.513 56.7477 461.468 56.4587 461.468 56.1187C461.468 55.7447 461.547 55.416 461.706 55.1327C461.865 54.8494 462.08 54.6114 462.352 54.4187C462.624 54.2147 462.936 54.0674 463.287 53.9767C463.65 53.8747 464.035 53.8237 464.443 53.8237C464.862 53.8237 465.253 53.8917 465.616 54.0277C465.99 54.1637 466.313 54.3507 466.585 54.5887C466.857 54.8267 467.072 55.11 467.231 55.4387C467.39 55.7674 467.469 56.1244 467.469 56.5097H465.667C465.667 56.1357 465.565 55.841 465.361 55.6257C465.168 55.399 464.845 55.2857 464.392 55.2857C464.075 55.2857 463.803 55.3594 463.576 55.5067C463.361 55.654 463.253 55.8694 463.253 56.1527C463.253 56.3227 463.298 56.4644 463.389 56.5777C463.48 56.6797 463.616 56.776 463.797 56.8667C463.978 56.946 464.205 57.0367 464.477 57.1387C464.749 57.2294 465.066 57.3427 465.429 57.4787Z" fill="black"/>
<path d="M379.098 77.9497H379.951L380.27 76.0037H381.318L381.456 75.1514H380.409L380.686 73.4753H381.74L381.879 72.623H380.824L381.144 70.677H380.291L379.972 72.623H378.267L378.587 70.677H377.735L377.415 72.623H376.367L376.229 73.4753H377.277L377 75.1514H375.945L375.806 76.0037H376.861L376.541 77.9497H377.394L377.713 76.0037H379.418L379.098 77.9497ZM377.852 75.1514L378.129 73.4753H379.833L379.556 75.1514H377.852ZM382.573 77.9497H383.671V74.7785H386.76V73.8375H383.671V71.6216H387.083V70.677H382.573V77.9497ZM390.622 78.0491C392.142 78.0633 393.151 76.9696 393.147 75.574C393.151 74.182 392.139 73.1841 390.878 73.1841C390.111 73.1841 389.447 73.5534 389.074 74.1677H389.021C389.024 72.5165 389.649 71.5364 390.715 71.5364C391.414 71.5364 391.855 71.9625 392.004 72.5662H393.087C392.92 71.4156 392.014 70.5775 390.715 70.5775C389.024 70.5775 387.97 72.03 387.97 74.5584C387.966 77.2359 389.33 78.0385 390.622 78.0491ZM390.619 77.1258C389.774 77.1258 389.156 76.4156 389.156 75.5989C389.159 74.7856 389.806 74.0754 390.644 74.0754C391.475 74.0754 392.085 74.7466 392.082 75.5882C392.085 76.4476 391.45 77.1258 390.619 77.1258ZM394.29 77.9497H398.892V77.0051H395.388V74.7785H398.612V73.8375H395.388V71.6216H398.85V70.677H394.29V77.9497ZM402.424 78.0491C403.936 78.0491 405.005 77.1898 405.012 76.0108C405.005 75.0946 404.362 74.324 403.549 74.1784V74.1358C404.256 73.9653 404.735 73.3013 404.742 72.5165C404.735 71.405 403.755 70.5775 402.424 70.5775C401.078 70.5775 400.098 71.405 400.105 72.5165C400.098 73.2977 400.577 73.9653 401.298 74.1358V74.1784C400.47 74.324 399.828 75.0946 399.835 76.0108C399.828 77.1898 400.897 78.0491 402.424 78.0491ZM402.424 77.1507C401.514 77.1507 400.939 76.6677 400.946 75.9398C400.939 75.1834 401.564 74.6436 402.424 74.6436C403.269 74.6436 403.894 75.1834 403.901 75.9398C403.894 76.6677 403.322 77.1507 402.424 77.1507ZM402.424 73.7665C401.688 73.7665 401.166 73.3013 401.174 72.6088C401.166 71.927 401.671 71.476 402.424 71.476C403.162 71.476 403.666 71.927 403.674 72.6088C403.666 73.3013 403.148 73.7665 402.424 73.7665ZM408.488 77.9497C410.704 77.9497 411.986 76.5754 411.986 74.3027C411.986 72.0406 410.704 70.677 408.563 70.677H406.134V77.9497H408.488ZM407.231 76.9909V71.6358H408.495C410.086 71.6358 410.907 72.5875 410.907 74.3027C410.907 76.025 410.086 76.9909 408.428 76.9909H407.231ZM413.246 77.9497H414.393L417.557 71.65V70.677H412.749V71.618H416.421V71.6713L413.246 77.9497Z" fill="black"/>
<path d="M266.75 145.12C266.75 141.929 266.75 140.334 267.341 139.102C267.932 137.873 268.923 136.881 270.153 136.291C271.384 135.7 272.979 135.7 276.17 135.7H517.58C520.771 135.7 522.366 135.7 523.597 136.291C524.827 136.881 525.818 137.873 526.409 139.102C527 140.334 527 141.929 527 145.12V246.36C527 252.741 527 255.932 525.817 258.394C524.637 260.853 522.653 262.836 520.194 264.017C517.732 265.2 514.541 265.2 508.16 265.2H276.17C272.979 265.2 271.384 265.2 270.153 264.608C268.923 264.018 267.932 263.026 267.341 261.797C266.75 260.566 266.75 258.97 266.75 255.78V145.12Z" fill="#F2F2F2"/>
<path d="M348.11 193.557C348.11 194.339 348.325 194.939 348.756 195.359C349.187 195.778 349.742 195.988 350.422 195.988C350.694 195.988 350.949 195.948 351.187 195.869C351.425 195.778 351.629 195.659 351.799 195.512C351.98 195.353 352.122 195.166 352.224 194.951C352.326 194.735 352.377 194.492 352.377 194.22C352.377 193.914 352.315 193.659 352.19 193.455C352.077 193.251 351.924 193.081 351.731 192.945C351.55 192.797 351.346 192.678 351.119 192.588C350.904 192.486 350.694 192.401 350.49 192.333C349.946 192.14 349.436 191.947 348.96 191.755C348.484 191.551 348.065 191.313 347.702 191.041C347.351 190.757 347.073 190.417 346.869 190.021C346.665 189.624 346.563 189.125 346.563 188.525C346.563 188.037 346.659 187.595 346.852 187.199C347.056 186.791 347.322 186.445 347.651 186.162C347.991 185.867 348.382 185.646 348.824 185.499C349.277 185.34 349.753 185.261 350.252 185.261C350.785 185.261 351.283 185.351 351.748 185.533C352.213 185.714 352.615 185.969 352.955 186.298C353.295 186.626 353.561 187.017 353.754 187.471C353.947 187.924 354.043 188.428 354.043 188.984H352.088C352.088 188.394 351.929 187.918 351.612 187.556C351.295 187.193 350.858 187.012 350.303 187.012C349.816 187.012 349.396 187.136 349.045 187.386C348.694 187.635 348.518 188.015 348.518 188.525C348.518 188.763 348.563 188.978 348.654 189.171C348.756 189.352 348.886 189.511 349.045 189.647C349.215 189.783 349.402 189.902 349.606 190.004C349.81 190.106 350.025 190.196 350.252 190.276C350.717 190.446 351.187 190.627 351.663 190.82C352.15 191.012 352.592 191.25 352.989 191.534C353.386 191.817 353.709 192.157 353.958 192.554C354.207 192.95 354.332 193.432 354.332 193.999C354.332 194.611 354.224 195.149 354.009 195.614C353.794 196.078 353.499 196.469 353.125 196.787C352.751 197.104 352.315 197.342 351.816 197.501C351.329 197.659 350.807 197.739 350.252 197.739C349.708 197.739 349.187 197.642 348.688 197.45C348.201 197.268 347.77 197.002 347.396 196.651C347.022 196.288 346.722 195.852 346.495 195.342C346.268 194.82 346.155 194.225 346.155 193.557H348.11ZM366.107 197.45V193.013C366.107 192.378 365.988 191.879 365.75 191.517C365.523 191.143 365.149 190.956 364.628 190.956C364.39 190.956 364.169 190.995 363.965 191.075C363.772 191.154 363.596 191.29 363.438 191.483C363.29 191.675 363.171 191.93 363.081 192.248C363.001 192.554 362.962 192.945 362.962 193.421V197.45H361.109V192.996C361.109 192.361 360.995 191.862 360.769 191.5C360.553 191.137 360.185 190.956 359.664 190.956C359.426 190.956 359.205 190.995 359.001 191.075C358.797 191.154 358.615 191.29 358.457 191.483C358.309 191.675 358.19 191.93 358.1 192.248C358.009 192.554 357.964 192.945 357.964 193.421V197.45H356.111V189.528H357.964V190.633C358.134 190.27 358.411 189.964 358.797 189.715C359.193 189.454 359.652 189.324 360.174 189.324C360.899 189.324 361.454 189.46 361.84 189.732C362.225 190.004 362.503 190.338 362.673 190.735C362.865 190.338 363.177 190.004 363.608 189.732C364.038 189.46 364.537 189.324 365.104 189.324C365.693 189.324 366.175 189.42 366.549 189.613C366.923 189.794 367.212 190.032 367.416 190.327C367.631 190.621 367.773 190.956 367.841 191.33C367.92 191.692 367.96 192.061 367.96 192.435V197.45H366.107ZM377.841 189.528V197.45H375.988V196.379C375.738 196.775 375.381 197.087 374.917 197.314C374.463 197.54 374.004 197.654 373.54 197.654C372.939 197.654 372.389 197.546 371.891 197.331C371.392 197.104 370.961 196.798 370.599 196.413C370.247 196.027 369.97 195.585 369.766 195.087C369.573 194.588 369.477 194.055 369.477 193.489C369.477 192.933 369.573 192.406 369.766 191.908C369.97 191.398 370.247 190.95 370.599 190.565C370.961 190.179 371.392 189.879 371.891 189.664C372.389 189.437 372.939 189.324 373.54 189.324C374.004 189.324 374.463 189.437 374.917 189.664C375.381 189.89 375.738 190.202 375.988 190.599V189.528H377.841ZM373.642 196.005C373.993 196.005 374.31 195.937 374.594 195.801C374.888 195.665 375.138 195.483 375.342 195.257C375.546 195.03 375.704 194.764 375.818 194.458C375.931 194.152 375.988 193.829 375.988 193.489C375.988 193.149 375.931 192.826 375.818 192.52C375.704 192.214 375.546 191.947 375.342 191.721C375.138 191.494 374.888 191.313 374.594 191.177C374.31 191.041 373.993 190.973 373.642 190.973C373.29 190.973 372.973 191.041 372.69 191.177C372.406 191.313 372.163 191.494 371.959 191.721C371.755 191.947 371.596 192.214 371.483 192.52C371.381 192.826 371.33 193.149 371.33 193.489C371.33 193.829 371.381 194.152 371.483 194.458C371.596 194.764 371.755 195.03 371.959 195.257C372.163 195.483 372.406 195.665 372.69 195.801C372.973 195.937 373.29 196.005 373.642 196.005ZM380.065 185.55H381.918V197.45H380.065V185.55ZM384.148 185.55H386.001V197.45H384.148V185.55ZM392.231 185.55H396.294C397.11 185.55 397.767 185.663 398.266 185.89C398.764 186.105 399.15 186.377 399.422 186.706C399.705 187.023 399.892 187.369 399.983 187.743C400.073 188.117 400.119 188.457 400.119 188.763C400.119 189.137 400.056 189.477 399.932 189.783C399.807 190.077 399.643 190.338 399.439 190.565C399.246 190.78 399.025 190.961 398.776 191.109C398.526 191.245 398.277 191.341 398.028 191.398C398.22 191.398 398.441 191.454 398.691 191.568C398.94 191.681 399.178 191.851 399.405 192.078C399.631 192.293 399.824 192.571 399.983 192.911C400.141 193.239 400.221 193.63 400.221 194.084C400.221 194.39 400.17 194.741 400.068 195.138C399.966 195.523 399.773 195.891 399.49 196.243C399.206 196.583 398.81 196.872 398.3 197.11C397.79 197.336 397.127 197.45 396.311 197.45H392.231V185.55ZM394.186 192.299V195.699H396.396C396.792 195.699 397.11 195.648 397.348 195.546C397.597 195.432 397.79 195.291 397.926 195.121C398.062 194.951 398.152 194.769 398.198 194.577C398.243 194.373 398.266 194.186 398.266 194.016C398.266 193.868 398.237 193.698 398.181 193.506C398.135 193.302 398.039 193.115 397.892 192.945C397.756 192.763 397.569 192.61 397.331 192.486C397.093 192.361 396.787 192.299 396.413 192.299H394.186ZM396.294 190.548C396.69 190.548 397.008 190.491 397.246 190.378C397.495 190.264 397.688 190.128 397.824 189.97C397.96 189.8 398.05 189.624 398.096 189.443C398.141 189.25 398.164 189.08 398.164 188.933C398.164 188.785 398.141 188.621 398.096 188.44C398.05 188.247 397.96 188.066 397.824 187.896C397.688 187.726 397.495 187.584 397.246 187.471C397.008 187.357 396.69 187.301 396.294 187.301H394.186V190.548H396.294ZM409.332 189.528V197.45H407.479V196.345C407.23 196.775 406.884 197.104 406.442 197.331C406 197.546 405.484 197.654 404.895 197.654C404.317 197.654 403.83 197.557 403.433 197.365C403.048 197.172 402.742 196.911 402.515 196.583C402.322 196.288 402.186 195.959 402.107 195.597C402.039 195.234 402.005 194.781 402.005 194.237V189.528H403.858V193.625C403.858 193.965 403.886 194.282 403.943 194.577C404 194.871 404.09 195.126 404.215 195.342C404.351 195.546 404.527 195.71 404.742 195.835C404.969 195.959 405.246 196.022 405.575 196.022C406.221 196.022 406.697 195.795 407.003 195.342C407.32 194.877 407.479 194.305 407.479 193.625V189.528H409.332ZM415.956 197.45C415.808 197.472 415.61 197.495 415.361 197.518C415.111 197.54 414.851 197.552 414.579 197.552C414.352 197.552 414.091 197.529 413.797 197.484C413.502 197.45 413.219 197.342 412.947 197.161C412.686 196.979 412.465 196.702 412.284 196.328C412.102 195.954 412.012 195.432 412.012 194.764V191.075H410.669V189.528H412.012V187.131H413.865V189.528H415.684V191.075H413.865V194.339C413.865 194.679 413.887 194.951 413.933 195.155C413.989 195.359 414.069 195.517 414.171 195.631C414.273 195.733 414.392 195.801 414.528 195.835C414.675 195.869 414.839 195.886 415.021 195.886C415.168 195.886 415.338 195.88 415.531 195.869C415.723 195.857 415.865 195.84 415.956 195.818V197.45ZM421.666 197.45C421.518 197.472 421.32 197.495 421.071 197.518C420.821 197.54 420.561 197.552 420.289 197.552C420.062 197.552 419.801 197.529 419.507 197.484C419.212 197.45 418.929 197.342 418.657 197.161C418.396 196.979 418.175 196.702 417.994 196.328C417.812 195.954 417.722 195.432 417.722 194.764V191.075H416.379V189.528H417.722V187.131H419.575V189.528H421.394V191.075H419.575V194.339C419.575 194.679 419.597 194.951 419.643 195.155C419.699 195.359 419.779 195.517 419.881 195.631C419.983 195.733 420.102 195.801 420.238 195.835C420.385 195.869 420.549 195.886 420.731 195.886C420.878 195.886 421.048 195.88 421.241 195.869C421.433 195.857 421.575 195.84 421.666 195.818V197.45ZM426.56 197.654C425.925 197.654 425.353 197.546 424.843 197.331C424.333 197.104 423.896 196.798 423.534 196.413C423.171 196.027 422.888 195.585 422.684 195.087C422.491 194.588 422.395 194.055 422.395 193.489C422.395 192.933 422.491 192.406 422.684 191.908C422.888 191.398 423.171 190.95 423.534 190.565C423.896 190.179 424.333 189.879 424.843 189.664C425.353 189.437 425.925 189.324 426.56 189.324C427.194 189.324 427.767 189.437 428.277 189.664C428.798 189.879 429.24 190.179 429.603 190.565C429.977 190.95 430.26 191.398 430.453 191.908C430.657 192.406 430.759 192.933 430.759 193.489C430.759 194.055 430.657 194.588 430.453 195.087C430.26 195.585 429.977 196.027 429.603 196.413C429.24 196.798 428.798 197.104 428.277 197.331C427.767 197.546 427.194 197.654 426.56 197.654ZM426.56 196.005C426.911 196.005 427.228 195.937 427.512 195.801C427.806 195.665 428.056 195.483 428.26 195.257C428.464 195.03 428.622 194.764 428.736 194.458C428.849 194.152 428.906 193.829 428.906 193.489C428.906 193.149 428.849 192.826 428.736 192.52C428.622 192.214 428.464 191.947 428.26 191.721C428.056 191.494 427.806 191.313 427.512 191.177C427.228 191.041 426.911 190.973 426.56 190.973C426.208 190.973 425.891 191.041 425.608 191.177C425.324 191.313 425.081 191.494 424.877 191.721C424.673 191.947 424.514 192.214 424.401 192.52C424.299 192.826 424.248 193.149 424.248 193.489C424.248 193.829 424.299 194.152 424.401 194.458C424.514 194.764 424.673 195.03 424.877 195.257C425.081 195.483 425.324 195.665 425.608 195.801C425.891 195.937 426.208 196.005 426.56 196.005ZM432.402 189.528H434.255V190.633C434.504 190.202 434.85 189.879 435.292 189.664C435.734 189.437 436.249 189.324 436.839 189.324C437.417 189.324 437.898 189.42 438.284 189.613C438.68 189.805 438.992 190.066 439.219 190.395C439.411 190.689 439.542 191.018 439.61 191.381C439.689 191.743 439.729 192.197 439.729 192.741V197.45H437.876V193.353C437.876 193.013 437.847 192.695 437.791 192.401C437.734 192.106 437.638 191.857 437.502 191.653C437.377 191.437 437.201 191.267 436.975 191.143C436.759 191.018 436.487 190.956 436.159 190.956C435.513 190.956 435.031 191.188 434.714 191.653C434.408 192.106 434.255 192.673 434.255 193.353V197.45H432.402V189.528ZM445.434 192.979C445.706 193.081 445.973 193.188 446.233 193.302C446.494 193.415 446.726 193.557 446.93 193.727C447.134 193.897 447.293 194.101 447.406 194.339C447.531 194.577 447.593 194.877 447.593 195.24C447.593 195.648 447.508 196.005 447.338 196.311C447.18 196.617 446.953 196.872 446.658 197.076C446.375 197.268 446.041 197.41 445.655 197.501C445.27 197.603 444.862 197.654 444.431 197.654C444.001 197.654 443.593 197.591 443.207 197.467C442.822 197.342 442.476 197.161 442.17 196.923C441.876 196.673 441.638 196.373 441.456 196.022C441.286 195.659 441.201 195.245 441.201 194.781H443.003C443.003 195.302 443.145 195.67 443.428 195.886C443.723 196.09 444.091 196.192 444.533 196.192C444.896 196.192 445.202 196.124 445.451 195.988C445.701 195.852 445.825 195.614 445.825 195.274C445.825 195.092 445.774 194.945 445.672 194.832C445.57 194.718 445.417 194.616 445.213 194.526C445.009 194.424 444.754 194.322 444.448 194.22C444.142 194.118 443.78 193.987 443.36 193.829C443.088 193.727 442.833 193.619 442.595 193.506C442.369 193.381 442.17 193.239 442 193.081C441.83 192.922 441.7 192.724 441.609 192.486C441.519 192.248 441.473 191.959 441.473 191.619C441.473 191.245 441.553 190.916 441.711 190.633C441.87 190.349 442.085 190.111 442.357 189.919C442.629 189.715 442.941 189.567 443.292 189.477C443.655 189.375 444.04 189.324 444.448 189.324C444.868 189.324 445.259 189.392 445.621 189.528C445.995 189.664 446.318 189.851 446.59 190.089C446.862 190.327 447.078 190.61 447.236 190.939C447.395 191.267 447.474 191.624 447.474 192.01H445.672C445.672 191.636 445.57 191.341 445.366 191.126C445.174 190.899 444.851 190.786 444.397 190.786C444.08 190.786 443.808 190.859 443.581 191.007C443.366 191.154 443.258 191.369 443.258 191.653C443.258 191.823 443.304 191.964 443.394 192.078C443.485 192.18 443.621 192.276 443.802 192.367C443.984 192.446 444.21 192.537 444.482 192.639C444.754 192.729 445.072 192.843 445.434 192.979Z" fill="black"/>
<path d="M379.894 213.45H380.746L381.066 211.504H382.114L382.252 210.651H381.205L381.482 208.975H382.536L382.675 208.123H381.62L381.94 206.177H381.087L380.768 208.123H379.063L379.383 206.177H378.531L378.211 208.123H377.163L377.025 208.975H378.072L377.795 210.651H376.741L376.602 211.504H377.657L377.337 213.45H378.19L378.509 211.504H380.214L379.894 213.45ZM378.648 210.651L378.925 208.975H380.629L380.352 210.651H378.648ZM383.369 213.45H384.467V210.279H387.556V209.337H384.467V207.122H387.879V206.177H383.369V213.45ZM388.879 213.45H393.666V212.509H390.392V212.455L391.837 210.943C393.169 209.597 393.549 208.954 393.549 208.141C393.549 206.972 392.597 206.078 391.227 206.078C389.866 206.078 388.872 206.958 388.872 208.286H389.92C389.916 207.505 390.42 206.994 391.205 206.994C391.944 206.994 392.505 207.448 392.505 208.173C392.505 208.815 392.121 209.277 391.34 210.105L388.879 212.654V213.45ZM394.862 213.45H395.959V210.279H399.048V209.337H395.959V207.122H399.371V206.177H394.862V213.45ZM400.371 213.45H405.158V212.509H401.884V212.455L403.33 210.943C404.661 209.597 405.041 208.954 405.041 208.141C405.041 206.972 404.089 206.078 402.719 206.078C401.359 206.078 400.364 206.958 400.364 208.286H401.412C401.408 207.505 401.913 206.994 402.697 206.994C403.436 206.994 403.997 207.448 403.997 208.173C403.997 208.815 403.614 209.277 402.832 210.105L400.371 212.654V213.45ZM406.354 213.45H407.451V210.279H410.54V209.337H407.451V207.122H410.864V206.177H406.354V213.45ZM411.864 213.45H416.651V212.509H413.376V212.455L414.822 210.943C416.153 209.597 416.533 208.954 416.533 208.141C416.533 206.972 415.582 206.078 414.211 206.078C412.851 206.078 411.857 206.958 411.857 208.286H412.904C412.901 207.505 413.405 206.994 414.19 206.994C414.928 206.994 415.489 207.448 415.489 208.173C415.489 208.815 415.106 209.277 414.325 210.105L411.864 212.654V213.45Z" fill="black"/>
</svg>
