<svg width="527" height="266" viewBox="0 0 527 266" fill="none" xmlns="http://www.w3.org/2000/svg">
<path d="M0 19.0397C0 12.6585 0 9.46787 1.18254 7.00524C2.3633 4.5463 4.34659 2.56301 6.80553 1.38225C9.26816 0.199707 12.4588 0.199707 18.84 0.199707H252.4C255.059 0.199707 256.388 0.199707 257.414 0.692431C258.439 1.18442 259.265 2.01079 259.757 3.03534C260.25 4.06144 260.25 5.39086 260.25 8.04971V255.78C260.25 258.97 260.25 260.566 259.659 261.797C259.068 263.026 258.077 264.018 256.847 264.608C255.616 265.2 254.021 265.2 250.83 265.2H18.84C12.4588 265.2 9.26816 265.2 6.80553 264.017C4.34659 262.836 2.3633 260.853 1.18254 258.394C0 255.932 0 252.741 0 246.36V19.0397Z" fill="black"/>
<path d="M108.352 129.7H106.397V122.339L103.422 129.7H101.943L98.968 122.339V129.7H97.013V117.8H98.883L102.691 126.657L106.482 117.8H108.352V129.7ZM118.361 121.778V129.7H116.508V128.629C116.259 129.025 115.902 129.337 115.437 129.564C114.984 129.79 114.525 129.904 114.06 129.904C113.459 129.904 112.91 129.796 112.411 129.581C111.912 129.354 111.482 129.048 111.119 128.663C110.768 128.277 110.49 127.835 110.286 127.337C110.093 126.838 109.997 126.305 109.997 125.739C109.997 125.183 110.093 124.656 110.286 124.158C110.49 123.648 110.768 123.2 111.119 122.815C111.482 122.429 111.912 122.129 112.411 121.914C112.91 121.687 113.459 121.574 114.06 121.574C114.525 121.574 114.984 121.687 115.437 121.914C115.902 122.14 116.259 122.452 116.508 122.849V121.778H118.361ZM114.162 128.255C114.513 128.255 114.831 128.187 115.114 128.051C115.409 127.915 115.658 127.733 115.862 127.507C116.066 127.28 116.225 127.014 116.338 126.708C116.451 126.402 116.508 126.079 116.508 125.739C116.508 125.399 116.451 125.076 116.338 124.77C116.225 124.464 116.066 124.197 115.862 123.971C115.658 123.744 115.409 123.563 115.114 123.427C114.831 123.291 114.513 123.223 114.162 123.223C113.811 123.223 113.493 123.291 113.21 123.427C112.927 123.563 112.683 123.744 112.479 123.971C112.275 124.197 112.116 124.464 112.003 124.77C111.901 125.076 111.85 125.399 111.85 125.739C111.85 126.079 111.901 126.402 112.003 126.708C112.116 127.014 112.275 127.28 112.479 127.507C112.683 127.733 112.927 127.915 113.21 128.051C113.493 128.187 113.811 128.255 114.162 128.255ZM120.585 121.778H122.438V129.7H120.585V121.778ZM120.143 118.888C120.143 118.502 120.274 118.179 120.534 117.919C120.806 117.647 121.129 117.511 121.503 117.511C121.889 117.511 122.212 117.647 122.472 117.919C122.744 118.179 122.88 118.502 122.88 118.888C122.88 119.262 122.744 119.585 122.472 119.857C122.212 120.117 121.889 120.248 121.503 120.248C121.129 120.248 120.806 120.117 120.534 119.857C120.274 119.585 120.143 119.262 120.143 118.888ZM124.668 121.778H126.521V122.883C126.771 122.452 127.116 122.129 127.558 121.914C128 121.687 128.516 121.574 129.105 121.574C129.683 121.574 130.165 121.67 130.55 121.863C130.947 122.055 131.259 122.316 131.485 122.645C131.678 122.939 131.808 123.268 131.876 123.631C131.956 123.993 131.995 124.447 131.995 124.991V129.7H130.142V125.603C130.142 125.263 130.114 124.945 130.057 124.651C130.001 124.356 129.904 124.107 129.768 123.903C129.644 123.687 129.468 123.517 129.241 123.393C129.026 123.268 128.754 123.206 128.425 123.206C127.779 123.206 127.298 123.438 126.98 123.903C126.674 124.356 126.521 124.923 126.521 125.603V129.7H124.668V121.778ZM142.483 129.7C142.336 129.722 142.137 129.745 141.888 129.768C141.639 129.79 141.378 129.802 141.106 129.802C140.879 129.802 140.619 129.779 140.324 129.734C140.029 129.7 139.746 129.592 139.474 129.411C139.213 129.229 138.992 128.952 138.811 128.578C138.63 128.204 138.539 127.682 138.539 127.014V123.325H137.196V121.778H138.539V119.381H140.392V121.778H142.211V123.325H140.392V126.589C140.392 126.929 140.415 127.201 140.46 127.405C140.517 127.609 140.596 127.767 140.698 127.881C140.8 127.983 140.919 128.051 141.055 128.085C141.202 128.119 141.367 128.136 141.548 128.136C141.695 128.136 141.865 128.13 142.058 128.119C142.251 128.107 142.392 128.09 142.483 128.068V129.7ZM146.939 122.968C146.361 122.968 145.879 123.132 145.494 123.461C145.109 123.789 144.916 124.277 144.916 124.923H148.86C148.86 124.311 148.679 123.835 148.316 123.495C147.965 123.143 147.506 122.968 146.939 122.968ZM144.916 126.3C144.939 126.583 144.99 126.849 145.069 127.099C145.148 127.348 145.267 127.569 145.426 127.762C145.596 127.943 145.811 128.09 146.072 128.204C146.333 128.306 146.656 128.357 147.041 128.357C147.574 128.357 147.959 128.255 148.197 128.051C148.435 127.847 148.611 127.603 148.724 127.32H150.594C150.537 127.66 150.413 127.988 150.22 128.306C150.039 128.612 149.795 128.884 149.489 129.122C149.183 129.36 148.826 129.552 148.418 129.7C148.01 129.836 147.551 129.904 147.041 129.904C146.372 129.904 145.789 129.796 145.29 129.581C144.803 129.365 144.395 129.071 144.066 128.697C143.737 128.323 143.488 127.881 143.318 127.371C143.159 126.861 143.08 126.317 143.08 125.739C143.08 125.149 143.165 124.6 143.335 124.09C143.516 123.58 143.771 123.138 144.1 122.764C144.429 122.39 144.837 122.101 145.324 121.897C145.811 121.681 146.367 121.574 146.99 121.574C147.5 121.574 147.976 121.664 148.418 121.846C148.871 122.027 149.262 122.282 149.591 122.611C149.931 122.928 150.192 123.302 150.373 123.733C150.566 124.163 150.662 124.634 150.662 125.144C150.662 125.28 150.656 125.444 150.645 125.637C150.645 125.818 150.622 126.039 150.577 126.3H144.916ZM158.627 129.7H156.485L154.972 127.15L153.459 129.7H151.317L153.901 125.705L151.368 121.778H153.51L154.972 124.26L156.434 121.778H158.576L156.043 125.705L158.627 129.7ZM164.145 129.7C163.998 129.722 163.799 129.745 163.55 129.768C163.301 129.79 163.04 129.802 162.768 129.802C162.541 129.802 162.281 129.779 161.986 129.734C161.691 129.7 161.408 129.592 161.136 129.411C160.875 129.229 160.654 128.952 160.473 128.578C160.292 128.204 160.201 127.682 160.201 127.014V123.325H158.858V121.778H160.201V119.381H162.054V121.778H163.873V123.325H162.054V126.589C162.054 126.929 162.077 127.201 162.122 127.405C162.179 127.609 162.258 127.767 162.36 127.881C162.462 127.983 162.581 128.051 162.717 128.085C162.864 128.119 163.029 128.136 163.21 128.136C163.357 128.136 163.527 128.13 163.72 128.119C163.913 128.107 164.054 128.09 164.145 128.068V129.7Z" fill="white"/>
<path d="M111.767 145.7H112.619L112.939 143.754H113.987L114.125 142.901H113.078L113.355 141.225H114.409L114.548 140.373H113.493L113.813 138.427H112.96L112.641 140.373H110.936L111.256 138.427H110.404L110.084 140.373H109.036L108.898 141.225H109.945L109.669 142.901H108.614L108.475 143.754H109.53L109.21 145.7H110.063L110.382 143.754H112.087L111.767 145.7ZM110.521 142.901L110.798 141.225H112.502L112.225 142.901H110.521ZM117.675 145.82C119.355 145.82 120.338 144.45 120.338 142.067C120.338 139.702 119.34 138.328 117.675 138.328C116.006 138.328 115.012 139.698 115.008 142.067C115.008 144.446 115.992 145.817 117.675 145.82ZM117.675 144.872C116.691 144.872 116.098 143.885 116.098 142.067C116.102 140.256 116.695 139.258 117.675 139.258C118.651 139.258 119.248 140.256 119.248 142.067C119.248 143.885 118.655 144.872 117.675 144.872ZM123.88 145.82C125.56 145.82 126.543 144.45 126.543 142.067C126.543 139.702 125.545 138.328 123.88 138.328C122.211 138.328 121.217 139.698 121.213 142.067C121.213 144.446 122.197 145.817 123.88 145.82ZM123.88 144.872C122.896 144.872 122.303 143.885 122.303 142.067C122.307 140.256 122.9 139.258 123.88 139.258C124.857 139.258 125.453 140.256 125.453 142.067C125.453 143.885 124.86 144.872 123.88 144.872ZM130.085 145.82C131.765 145.82 132.748 144.45 132.748 142.067C132.748 139.702 131.751 138.328 130.085 138.328C128.416 138.328 127.422 139.698 127.418 142.067C127.418 144.446 128.402 145.817 130.085 145.82ZM130.085 144.872C129.101 144.872 128.508 143.885 128.508 142.067C128.512 140.256 129.105 139.258 130.085 139.258C131.062 139.258 131.658 140.256 131.658 142.067C131.658 143.885 131.065 144.872 130.085 144.872ZM136.29 145.82C137.97 145.82 138.953 144.45 138.953 142.067C138.953 139.702 137.956 138.328 136.29 138.328C134.621 138.328 133.627 139.698 133.623 142.067C133.623 144.446 134.607 145.817 136.29 145.82ZM136.29 144.872C135.306 144.872 134.713 143.885 134.713 142.067C134.717 140.256 135.31 139.258 136.29 139.258C137.267 139.258 137.863 140.256 137.863 142.067C137.863 143.885 137.27 144.872 136.29 144.872ZM142.495 145.82C144.175 145.82 145.159 144.45 145.159 142.067C145.159 139.702 144.161 138.328 142.495 138.328C140.826 138.328 139.832 139.698 139.828 142.067C139.828 144.446 140.812 145.817 142.495 145.82ZM142.495 144.872C141.512 144.872 140.919 143.885 140.919 142.067C140.922 140.256 141.515 139.258 142.495 139.258C143.472 139.258 144.068 140.256 144.068 142.067C144.068 143.885 143.475 144.872 142.495 144.872ZM148.7 145.82C150.38 145.82 151.364 144.45 151.364 142.067C151.364 139.702 150.366 138.328 148.7 138.328C147.031 138.328 146.037 139.698 146.033 142.067C146.033 144.446 147.017 145.817 148.7 145.82ZM148.7 144.872C147.717 144.872 147.124 143.885 147.124 142.067C147.127 140.256 147.72 139.258 148.7 139.258C149.677 139.258 150.273 140.256 150.273 142.067C150.273 143.885 149.68 144.872 148.7 144.872Z" fill="white"/>
<path d="M266.25 9.6197C266.25 6.42909 266.25 4.83379 266.841 3.60247C267.432 2.373 268.423 1.38136 269.653 0.790976C270.884 0.199707 272.479 0.199707 275.67 0.199707H507.66C514.041 0.199707 517.232 0.199707 519.694 1.38225C522.153 2.56301 524.137 4.5463 525.317 7.00524C526.5 9.46787 526.5 12.6585 526.5 19.0397V120.28C526.5 123.47 526.5 125.066 525.909 126.297C525.318 127.526 524.327 128.518 523.097 129.108C521.866 129.7 520.271 129.7 517.08 129.7H275.67C272.479 129.7 270.884 129.7 269.653 129.108C268.423 128.518 267.432 127.526 266.841 126.297C266.25 125.066 266.25 123.47 266.25 120.28V9.6197Z" fill="#999999"/>
<path d="M371.23 50.0497C372.216 50.0497 373.089 50.2197 373.848 50.5597C374.619 50.8997 375.265 51.3474 375.786 51.9027C376.319 52.458 376.721 53.0927 376.993 53.8067C377.265 54.5207 377.401 55.2517 377.401 55.9997C377.401 56.7477 377.265 57.4787 376.993 58.1927C376.721 58.9067 376.319 59.5414 375.786 60.0967C375.265 60.652 374.619 61.0997 373.848 61.4397C373.089 61.7797 372.216 61.9497 371.23 61.9497H367.371V50.0497H371.23ZM369.326 51.8007V60.1987H371.23C371.888 60.1987 372.477 60.0797 372.998 59.8417C373.52 59.6037 373.956 59.292 374.307 58.9067C374.659 58.51 374.925 58.0624 375.106 57.5637C375.299 57.0537 375.395 56.5324 375.395 55.9997C375.395 55.467 375.299 54.9514 375.106 54.4527C374.925 53.9427 374.659 53.495 374.307 53.1097C373.956 52.713 373.52 52.3957 372.998 52.1577C372.477 51.9197 371.888 51.8007 371.23 51.8007H369.326ZM379.041 54.0277H380.894V61.9497H379.041V54.0277ZM378.599 51.1377C378.599 50.7524 378.73 50.4294 378.99 50.1687C379.262 49.8967 379.585 49.7607 379.959 49.7607C380.345 49.7607 380.668 49.8967 380.928 50.1687C381.2 50.4294 381.336 50.7524 381.336 51.1377C381.336 51.5117 381.2 51.8347 380.928 52.1067C380.668 52.3674 380.345 52.4977 379.959 52.4977C379.585 52.4977 379.262 52.3674 378.99 52.1067C378.73 51.8347 378.599 51.5117 378.599 51.1377ZM383.889 54.0277L386.065 59.2977L388.275 54.0277H390.264L386.677 61.9497H385.436L381.9 54.0277H383.889ZM391.275 54.0277H393.128V61.9497H391.275V54.0277ZM390.833 51.1377C390.833 50.7524 390.963 50.4294 391.224 50.1687C391.496 49.8967 391.819 49.7607 392.193 49.7607C392.578 49.7607 392.901 49.8967 393.162 50.1687C393.434 50.4294 393.57 50.7524 393.57 51.1377C393.57 51.5117 393.434 51.8347 393.162 52.1067C392.901 52.3674 392.578 52.4977 392.193 52.4977C391.819 52.4977 391.496 52.3674 391.224 52.1067C390.963 51.8347 390.833 51.5117 390.833 51.1377ZM401.274 60.8787C401.024 61.2754 400.667 61.587 400.203 61.8137C399.749 62.0404 399.29 62.1537 398.826 62.1537C398.225 62.1537 397.675 62.046 397.177 61.8307C396.678 61.604 396.247 61.298 395.885 60.9127C395.533 60.5274 395.256 60.0854 395.052 59.5867C394.859 59.088 394.763 58.5554 394.763 57.9887C394.763 57.4334 394.859 56.9064 395.052 56.4077C395.256 55.8977 395.533 55.45 395.885 55.0647C396.247 54.6794 396.678 54.379 397.177 54.1637C397.675 53.937 398.225 53.8237 398.826 53.8237C399.29 53.8237 399.749 53.937 400.203 54.1637C400.667 54.3904 401.024 54.702 401.274 55.0987V50.0497H403.127V61.9497H401.274V60.8787ZM398.928 60.5047C399.279 60.5047 399.596 60.4367 399.88 60.3007C400.174 60.1647 400.424 59.9834 400.628 59.7567C400.832 59.53 400.99 59.2637 401.104 58.9577C401.217 58.6517 401.274 58.3287 401.274 57.9887C401.274 57.6487 401.217 57.3257 401.104 57.0197C400.99 56.7137 400.832 56.4474 400.628 56.2207C400.424 55.994 400.174 55.8127 399.88 55.6767C399.596 55.5407 399.279 55.4727 398.928 55.4727C398.576 55.4727 398.259 55.5407 397.976 55.6767C397.692 55.8127 397.449 55.994 397.245 56.2207C397.041 56.4474 396.882 56.7137 396.769 57.0197C396.667 57.3257 396.616 57.6487 396.616 57.9887C396.616 58.3287 396.667 58.6517 396.769 58.9577C396.882 59.2637 397.041 59.53 397.245 59.7567C397.449 59.9834 397.692 60.1647 397.976 60.3007C398.259 60.4367 398.576 60.5047 398.928 60.5047ZM408.649 55.2177C408.071 55.2177 407.589 55.382 407.204 55.7107C406.819 56.0394 406.626 56.5267 406.626 57.1727H410.57C410.57 56.5607 410.389 56.0847 410.026 55.7447C409.675 55.3934 409.216 55.2177 408.649 55.2177ZM406.626 58.5497C406.649 58.833 406.7 59.0994 406.779 59.3487C406.858 59.598 406.977 59.819 407.136 60.0117C407.306 60.193 407.521 60.3404 407.782 60.4537C408.043 60.5557 408.366 60.6067 408.751 60.6067C409.284 60.6067 409.669 60.5047 409.907 60.3007C410.145 60.0967 410.321 59.853 410.434 59.5697H412.304C412.247 59.9097 412.123 60.2384 411.93 60.5557C411.749 60.8617 411.505 61.1337 411.199 61.3717C410.893 61.6097 410.536 61.8024 410.128 61.9497C409.72 62.0857 409.261 62.1537 408.751 62.1537C408.082 62.1537 407.499 62.046 407 61.8307C406.513 61.6154 406.105 61.3207 405.776 60.9467C405.447 60.5727 405.198 60.1307 405.028 59.6207C404.869 59.1107 404.79 58.5667 404.79 57.9887C404.79 57.3994 404.875 56.8497 405.045 56.3397C405.226 55.8297 405.481 55.3877 405.81 55.0137C406.139 54.6397 406.547 54.3507 407.034 54.1467C407.521 53.9314 408.077 53.8237 408.7 53.8237C409.21 53.8237 409.686 53.9144 410.128 54.0957C410.581 54.277 410.972 54.532 411.301 54.8607C411.641 55.178 411.902 55.552 412.083 55.9827C412.276 56.4134 412.372 56.8837 412.372 57.3937C412.372 57.5297 412.366 57.694 412.355 57.8867C412.355 58.068 412.332 58.289 412.287 58.5497H406.626ZM419.164 55.7447C419.017 55.7107 418.892 55.688 418.79 55.6767C418.699 55.6654 418.58 55.6597 418.433 55.6597C417.64 55.6597 417.033 55.892 416.614 56.3567C416.195 56.81 415.985 57.5354 415.985 58.5327V61.9497H414.132V54.0277H415.985V55.3027C416.076 55.1214 416.2 54.9514 416.359 54.7927C416.529 54.6227 416.722 54.4754 416.937 54.3507C417.164 54.2147 417.402 54.1127 417.651 54.0447C417.912 53.9654 418.172 53.9257 418.433 53.9257C418.728 53.9257 418.971 53.9654 419.164 54.0447V55.7447ZM423.745 57.4787C424.017 57.5807 424.283 57.6884 424.544 57.8017C424.805 57.915 425.037 58.0567 425.241 58.2267C425.445 58.3967 425.604 58.6007 425.717 58.8387C425.842 59.0767 425.904 59.377 425.904 59.7397C425.904 60.1477 425.819 60.5047 425.649 60.8107C425.49 61.1167 425.264 61.3717 424.969 61.5757C424.686 61.7684 424.351 61.91 423.966 62.0007C423.581 62.1027 423.173 62.1537 422.742 62.1537C422.311 62.1537 421.903 62.0914 421.518 61.9667C421.133 61.842 420.787 61.6607 420.481 61.4227C420.186 61.1734 419.948 60.873 419.767 60.5217C419.597 60.159 419.512 59.7454 419.512 59.2807H421.314C421.314 59.802 421.456 60.1704 421.739 60.3857C422.034 60.5897 422.402 60.6917 422.844 60.6917C423.207 60.6917 423.513 60.6237 423.762 60.4877C424.011 60.3517 424.136 60.1137 424.136 59.7737C424.136 59.5924 424.085 59.445 423.983 59.3317C423.881 59.2184 423.728 59.1164 423.524 59.0257C423.32 58.9237 423.065 58.8217 422.759 58.7197C422.453 58.6177 422.09 58.4874 421.671 58.3287C421.399 58.2267 421.144 58.119 420.906 58.0057C420.679 57.881 420.481 57.7394 420.311 57.5807C420.141 57.422 420.011 57.2237 419.92 56.9857C419.829 56.7477 419.784 56.4587 419.784 56.1187C419.784 55.7447 419.863 55.416 420.022 55.1327C420.181 54.8494 420.396 54.6114 420.668 54.4187C420.94 54.2147 421.252 54.0674 421.603 53.9767C421.966 53.8747 422.351 53.8237 422.759 53.8237C423.178 53.8237 423.569 53.8917 423.932 54.0277C424.306 54.1637 424.629 54.3507 424.901 54.5887C425.173 54.8267 425.388 55.11 425.547 55.4387C425.706 55.7674 425.785 56.1244 425.785 56.5097H423.983C423.983 56.1357 423.881 55.841 423.677 55.6257C423.484 55.399 423.161 55.2857 422.708 55.2857C422.391 55.2857 422.119 55.3594 421.892 55.5067C421.677 55.654 421.569 55.8694 421.569 56.1527C421.569 56.3227 421.614 56.4644 421.705 56.5777C421.796 56.6797 421.932 56.776 422.113 56.8667C422.294 56.946 422.521 57.0367 422.793 57.1387C423.065 57.2294 423.382 57.3427 423.745 57.4787Z" fill="white"/>
<path d="M378.31 77.9497H379.162L379.482 76.0037H380.53L380.668 75.1514H379.621L379.898 73.4753H380.952L381.091 72.623H380.036L380.356 70.677H379.503L379.184 72.623H377.479L377.799 70.677H376.947L376.627 72.623H375.579L375.441 73.4753H376.488L376.211 75.1514H375.157L375.018 76.0037H376.073L375.753 77.9497H376.606L376.925 76.0037H378.63L378.31 77.9497ZM377.064 75.1514L377.341 73.4753H379.045L378.768 75.1514H377.064ZM384.104 70.5775C382.577 70.5633 381.579 71.6606 381.579 73.0385C381.583 74.427 382.588 75.4284 383.849 75.4284C384.619 75.4284 385.28 75.052 385.653 74.4412H385.709C385.706 76.1138 385.077 77.0903 384.012 77.0903C383.316 77.0903 382.868 76.6642 382.726 76.0427H381.643C381.803 77.2182 382.712 78.0491 384.012 78.0491C385.702 78.0491 386.76 76.5967 386.76 74.0506C386.757 71.3943 385.4 70.5882 384.104 70.5775ZM384.108 71.5008C384.949 71.5008 385.571 72.2146 385.571 73.0136C385.574 73.8233 384.917 74.5335 384.086 74.5335C383.252 74.5335 382.648 73.8659 382.645 73.0243C382.645 72.1791 383.273 71.5008 384.108 71.5008ZM390.212 70.5775C388.685 70.5633 387.687 71.6606 387.687 73.0385C387.69 74.427 388.695 75.4284 389.956 75.4284C390.727 75.4284 391.387 75.052 391.76 74.4412H391.817C391.813 76.1138 391.185 77.0903 390.119 77.0903C389.423 77.0903 388.976 76.6642 388.834 76.0427H387.751C387.911 77.2182 388.82 78.0491 390.119 78.0491C391.81 78.0491 392.868 76.5967 392.868 74.0506C392.864 71.3943 391.508 70.5882 390.212 70.5775ZM390.215 71.5008C391.057 71.5008 391.678 72.2146 391.678 73.0136C391.682 73.8233 391.025 74.5335 390.194 74.5335C389.359 74.5335 388.756 73.8659 388.752 73.0243C388.752 72.1791 389.381 71.5008 390.215 71.5008ZM396.319 70.5775C394.792 70.5633 393.794 71.6606 393.794 73.0385C393.798 74.427 394.803 75.4284 396.063 75.4284C396.834 75.4284 397.494 75.052 397.867 74.4412H397.924C397.921 76.1138 397.292 77.0903 396.227 77.0903C395.531 77.0903 395.083 76.6642 394.941 76.0427H393.858C394.018 77.2182 394.927 78.0491 396.227 78.0491C397.917 78.0491 398.975 76.5967 398.975 74.0506C398.972 71.3943 397.615 70.5882 396.319 70.5775ZM396.323 71.5008C397.164 71.5008 397.786 72.2146 397.786 73.0136C397.789 73.8233 397.132 74.5335 396.301 74.5335C395.467 74.5335 394.863 73.8659 394.86 73.0243C394.86 72.1791 395.488 71.5008 396.323 71.5008ZM402.426 70.5775C400.9 70.5633 399.902 71.6606 399.902 73.0385C399.905 74.427 400.91 75.4284 402.171 75.4284C402.941 75.4284 403.602 75.052 403.975 74.4412H404.032C404.028 76.1138 403.4 77.0903 402.334 77.0903C401.638 77.0903 401.191 76.6642 401.049 76.0427H399.966C400.125 77.2182 401.034 78.0491 402.334 78.0491C404.025 78.0491 405.083 76.5967 405.083 74.0506C405.079 71.3943 403.723 70.5882 402.426 70.5775ZM402.43 71.5008C403.272 71.5008 403.893 72.2146 403.893 73.0136C403.897 73.8233 403.24 74.5335 402.409 74.5335C401.574 74.5335 400.971 73.8659 400.967 73.0243C400.967 72.1791 401.596 71.5008 402.43 71.5008ZM408.534 70.5775C407.007 70.5633 406.009 71.6606 406.009 73.0385C406.013 74.427 407.018 75.4284 408.278 75.4284C409.049 75.4284 409.709 75.052 410.082 74.4412H410.139C410.135 76.1138 409.507 77.0903 408.442 77.0903C407.746 77.0903 407.298 76.6642 407.156 76.0427H406.073C406.233 77.2182 407.142 78.0491 408.442 78.0491C410.132 78.0491 411.19 76.5967 411.19 74.0506C411.187 71.3943 409.83 70.5882 408.534 70.5775ZM408.537 71.5008C409.379 71.5008 410.001 72.2146 410.001 73.0136C410.004 73.8233 409.347 74.5335 408.516 74.5335C407.682 74.5335 407.078 73.8659 407.074 73.0243C407.074 72.1791 407.703 71.5008 408.537 71.5008ZM414.641 70.5775C413.114 70.5633 412.116 71.6606 412.116 73.0385C412.12 74.427 413.125 75.4284 414.386 75.4284C415.156 75.4284 415.817 75.052 416.19 74.4412H416.246C416.243 76.1138 415.614 77.0903 414.549 77.0903C413.853 77.0903 413.406 76.6642 413.263 76.0427H412.18C412.34 77.2182 413.249 78.0491 414.549 78.0491C416.239 78.0491 417.298 76.5967 417.298 74.0506C417.294 71.3943 415.938 70.5882 414.641 70.5775ZM414.645 71.5008C415.487 71.5008 416.108 72.2146 416.108 73.0136C416.112 73.8233 415.455 74.5335 414.624 74.5335C413.789 74.5335 413.185 73.8659 413.182 73.0243C413.182 72.1791 413.81 71.5008 414.645 71.5008Z" fill="white"/>
<path d="M275.67 136.2H517.08C518.683 136.2 519.857 136.2 520.785 136.272C521.707 136.344 522.344 136.484 522.881 136.742C524.008 137.283 524.917 138.192 525.458 139.319C525.716 139.856 525.856 140.493 525.928 141.415C526 142.343 526 143.517 526 145.12V246.36C526 249.558 526 251.928 525.854 253.808C525.708 255.682 525.42 257.025 524.867 258.178C523.735 260.534 521.835 262.435 519.478 263.566C518.326 264.12 516.982 264.408 515.108 264.553C513.229 264.699 510.858 264.7 507.66 264.7H275.67C274.067 264.7 272.893 264.699 271.965 264.627C271.043 264.556 270.406 264.415 269.869 264.158C268.742 263.617 267.833 262.708 267.292 261.581C267.034 261.044 266.894 260.407 266.822 259.484C266.75 258.557 266.75 257.383 266.75 255.78V145.12C266.75 143.517 266.75 142.343 266.822 141.415C266.894 140.493 267.034 139.856 267.292 139.319C267.833 138.192 268.742 137.283 269.869 136.742C270.406 136.484 271.043 136.344 271.965 136.272C272.893 136.2 274.067 136.2 275.67 136.2Z" fill="#FEFEFE"/>
<path d="M382.462 188.967L379.708 197.45H378.297L374.183 185.55H376.24L378.977 194.033L381.731 185.55H383.176L385.93 194.033L388.667 185.55H390.724L386.61 197.45H385.199L382.462 188.967ZM391.806 185.55H393.659V190.633C393.909 190.202 394.254 189.879 394.696 189.664C395.138 189.437 395.654 189.324 396.243 189.324C396.821 189.324 397.303 189.42 397.688 189.613C398.085 189.805 398.397 190.066 398.623 190.395C398.816 190.689 398.946 191.018 399.014 191.381C399.094 191.743 399.133 192.197 399.133 192.741V197.45H397.28V193.353C397.28 193.013 397.252 192.695 397.195 192.401C397.139 192.106 397.042 191.857 396.906 191.653C396.782 191.437 396.606 191.267 396.379 191.143C396.164 191.018 395.892 190.956 395.563 190.956C394.917 190.956 394.436 191.188 394.118 191.653C393.812 192.106 393.659 192.673 393.659 193.353V197.45H391.806V185.55ZM401.235 189.528H403.088V197.45H401.235V189.528ZM400.793 186.638C400.793 186.252 400.923 185.929 401.184 185.669C401.456 185.397 401.779 185.261 402.153 185.261C402.538 185.261 402.861 185.397 403.122 185.669C403.394 185.929 403.53 186.252 403.53 186.638C403.53 187.012 403.394 187.335 403.122 187.607C402.861 187.867 402.538 187.998 402.153 187.998C401.779 187.998 401.456 187.867 401.184 187.607C400.923 187.335 400.793 187.012 400.793 186.638ZM409.704 197.45C409.557 197.472 409.358 197.495 409.109 197.518C408.86 197.54 408.599 197.552 408.327 197.552C408.1 197.552 407.84 197.529 407.545 197.484C407.25 197.45 406.967 197.342 406.695 197.161C406.434 196.979 406.213 196.702 406.032 196.328C405.851 195.954 405.76 195.432 405.76 194.764V191.075H404.417V189.528H405.76V187.131H407.613V189.528H409.432V191.075H407.613V194.339C407.613 194.679 407.636 194.951 407.681 195.155C407.738 195.359 407.817 195.517 407.919 195.631C408.021 195.733 408.14 195.801 408.276 195.835C408.423 195.869 408.588 195.886 408.769 195.886C408.916 195.886 409.086 195.88 409.279 195.869C409.472 195.857 409.613 195.84 409.704 195.818V197.45ZM414.16 190.718C413.582 190.718 413.1 190.882 412.715 191.211C412.33 191.539 412.137 192.027 412.137 192.673H416.081C416.081 192.061 415.9 191.585 415.537 191.245C415.186 190.893 414.727 190.718 414.16 190.718ZM412.137 194.05C412.16 194.333 412.211 194.599 412.29 194.849C412.369 195.098 412.488 195.319 412.647 195.512C412.817 195.693 413.032 195.84 413.293 195.954C413.554 196.056 413.877 196.107 414.262 196.107C414.795 196.107 415.18 196.005 415.418 195.801C415.656 195.597 415.832 195.353 415.945 195.07H417.815C417.758 195.41 417.634 195.738 417.441 196.056C417.26 196.362 417.016 196.634 416.71 196.872C416.404 197.11 416.047 197.302 415.639 197.45C415.231 197.586 414.772 197.654 414.262 197.654C413.593 197.654 413.01 197.546 412.511 197.331C412.024 197.115 411.616 196.821 411.287 196.447C410.958 196.073 410.709 195.631 410.539 195.121C410.38 194.611 410.301 194.067 410.301 193.489C410.301 192.899 410.386 192.35 410.556 191.84C410.737 191.33 410.992 190.888 411.321 190.514C411.65 190.14 412.058 189.851 412.545 189.647C413.032 189.431 413.588 189.324 414.211 189.324C414.721 189.324 415.197 189.414 415.639 189.596C416.092 189.777 416.483 190.032 416.812 190.361C417.152 190.678 417.413 191.052 417.594 191.483C417.787 191.913 417.883 192.384 417.883 192.894C417.883 193.03 417.877 193.194 417.866 193.387C417.866 193.568 417.843 193.789 417.798 194.05H412.137Z" fill="black"/>
<path d="M379.555 213.45H380.408L380.727 211.504H381.775L381.913 210.651H380.866L381.143 208.975H382.197L382.336 208.123H381.281L381.601 206.177H380.748L380.429 208.123H378.724L379.044 206.177H378.192L377.872 208.123H376.824L376.686 208.975H377.734L377.457 210.651H376.402L376.263 211.504H377.318L376.998 213.45H377.851L378.17 211.504H379.875L379.555 213.45ZM378.309 210.651L378.586 208.975H380.29L380.013 210.651H378.309ZM383.03 213.45H384.128V210.279H387.217V209.337H384.128V207.122H387.54V206.177H383.03V213.45ZM388.64 213.45H393.242V212.505H389.737V210.279H392.962V209.337H389.737V207.122H393.199V206.177H388.64V213.45ZM394.415 213.45H395.513V210.279H398.602V209.337H395.513V207.122H398.925V206.177H394.415V213.45ZM400.025 213.45H404.627V212.505H401.122V210.279H404.346V209.337H401.122V207.122H404.584V206.177H400.025V213.45ZM405.8 213.45H406.897V210.279H409.987V209.337H406.897V207.122H410.31V206.177H405.8V213.45ZM411.409 213.45H416.012V212.505H412.507V210.279H415.731V209.337H412.507V207.122H415.969V206.177H411.409V213.45Z" fill="black"/>
<path d="M275.67 136.2H517.08C518.683 136.2 519.857 136.2 520.785 136.272C521.707 136.344 522.344 136.484 522.881 136.742C524.008 137.283 524.917 138.192 525.458 139.319C525.716 139.856 525.856 140.493 525.928 141.415C526 142.343 526 143.517 526 145.12V246.36C526 249.558 526 251.928 525.854 253.808C525.708 255.682 525.42 257.025 524.867 258.178C523.735 260.534 521.835 262.435 519.478 263.566C518.326 264.12 516.982 264.408 515.108 264.553C513.229 264.699 510.858 264.7 507.66 264.7H275.67C274.067 264.7 272.893 264.699 271.965 264.627C271.043 264.556 270.406 264.415 269.869 264.158C268.742 263.617 267.833 262.708 267.292 261.581C267.034 261.044 266.894 260.407 266.822 259.484C266.75 258.557 266.75 257.383 266.75 255.78V145.12C266.75 143.517 266.75 142.343 266.822 141.415C266.894 140.493 267.034 139.856 267.292 139.319C267.833 138.192 268.742 137.283 269.869 136.742C270.406 136.484 271.043 136.344 271.965 136.272C272.893 136.2 274.067 136.2 275.67 136.2Z" stroke="#F2F2F2"/>
</svg>
