<svg width="119" height="160" viewBox="0 0 119 160" fill="none" xmlns="http://www.w3.org/2000/svg">
<mask id="path-1-outside-1" maskUnits="userSpaceOnUse" x="0" y="0" width="119" height="160" fill="black">
<rect fill="white" width="119" height="160"/>
<path d="M107.549 47.5977L70.2934 6.83914C68.851 5.29261 67.2095 4.04541 65.3691 3.2472C63.5288 2.3991 61.5889 2 59.5495 2C55.4708 2 51.6408 3.74608 48.8056 6.83914L11.5004 47.5977C6.17818 53.4346 2 64.1605 2 72.0428V138.145C2 149.12 10.8538 158 21.7966 158H97.2029C108.146 158 117 149.12 117 138.145V71.993C117.049 64.1107 112.871 53.3847 107.549 47.5977ZM59.5495 7.48769C62.0863 7.48769 64.4738 8.58523 66.2645 10.5309C66.5629 10.8801 66.8116 11.2792 66.9608 11.7282C69.995 22.2546 69.3484 26.1458 68.2043 33.0304C67.9556 34.7266 67.6075 36.6223 67.309 38.8174C66.8116 42.6588 66.9111 46.4503 67.0106 50.0921C67.1598 55.2805 67.309 60.1695 65.8168 64.9089L65.7173 65.308C64.0759 70.5961 61.2904 79.3764 56.963 81.2721C56.1672 81.6214 54.9237 81.9706 52.8346 80.9728C51.9393 80.5737 51.4419 78.5782 51.5413 75.7346C51.6408 72.3921 52.4367 68.5507 53.0335 65.7071C53.2822 64.5596 53.4812 63.6118 53.5807 62.8634C54.1278 59.3713 54.9734 55.8791 55.9185 52.1375C57.3112 46.3505 58.8034 40.4138 59.0521 34.527C59.2511 29.8874 58.1071 24.8986 57.0128 20.0595C56.2169 16.5174 55.4211 13.0752 55.1724 9.98209C55.1226 9.13399 55.62 8.33579 56.4159 8.03646C57.4107 7.68724 58.4552 7.48769 59.5495 7.48769ZM28.4618 152.512H21.7966C13.8879 152.512 7.47144 146.077 7.47144 138.145V71.993C7.47144 66.8545 9.75949 59.8702 12.8931 54.8315C13.0921 54.4823 13.6392 54.6818 13.5398 55.0809C10.3564 72.0429 15.7781 91.3495 21.1003 110.107C25.3779 125.323 29.4566 139.741 28.8598 152.113C28.81 152.363 28.6608 152.512 28.4618 152.512ZM27.0194 38.7176L41.2451 23.2024C41.4938 22.953 41.8917 23.1525 41.8917 23.4519C41.3943 29.9872 39.7031 36.1733 37.9622 42.6089C35.4752 51.7883 32.8887 61.3169 33.8338 72.3422C34.8783 84.6146 36.868 94.2929 38.7581 103.672C41.8917 118.988 44.5777 132.308 41.8917 152.163C41.842 152.363 41.6928 152.462 41.5435 152.462H34.6794C34.4804 152.462 34.3312 152.313 34.3312 152.063C34.9281 138.843 30.7499 124.126 26.3728 108.561C19.6578 84.8142 12.7439 60.3192 24.3831 42.2098C24.3831 42.2098 24.3831 42.2098 24.3831 42.1599L27.0194 38.7176ZM62.7826 152.512H47.8108C47.6119 152.512 47.4129 152.313 47.4626 152.113C50.1486 131.809 47.3632 118.189 44.1798 102.624C42.2896 93.4448 40.3498 83.9162 39.355 71.9431C38.5094 61.8657 40.8472 53.2351 43.2845 44.1055C45.6222 35.5248 48.0098 26.6447 47.4626 16.6671C47.4626 16.5673 47.5124 16.4675 47.5621 16.4177L49.7009 14.1228C49.8999 13.8734 50.2978 14.023 50.3476 14.3224C50.7455 16.6671 51.2926 19.0617 51.79 21.4065C52.7848 25.8964 53.8294 30.536 53.6802 34.3774C53.4315 39.7154 52.0387 45.4026 50.7455 50.9402C49.8502 54.582 48.9051 58.4234 48.358 62.1151C48.2585 62.7138 48.0595 63.6617 47.8606 64.7093C46.4181 71.544 44.0305 82.9184 50.646 86.0614C52.2874 86.8596 53.9289 87.2088 55.5206 87.2088C56.8138 87.2088 58.1071 86.9594 59.3008 86.4106C65.8665 83.5171 69.0002 73.5894 71.0893 67.054L71.1888 66.6549C72.9794 61.0176 72.7804 55.4301 72.6312 50.0422C72.5317 46.4503 72.4323 43.0579 72.8799 39.6156C73.1784 37.5203 73.4271 35.7243 73.7255 33.9783C74.4716 29.3387 75.0685 25.6469 74.4716 20.4087C74.4219 20.0595 74.8695 19.8599 75.1182 20.1094L86.1606 32.1823C86.6082 32.6812 86.8569 33.2798 86.8569 33.9284C86.9067 36.1733 87.0559 38.5181 87.2549 40.9626C87.802 48.5955 88.3492 56.4778 85.6632 62.4145C82.7782 68.8999 78.1027 75.3355 73.1784 82.1202C66.0655 91.8983 58.7537 102.026 56.7641 112.702C54.8242 123.128 57.6097 132.507 60.2956 141.637C60.5941 142.634 60.992 143.682 61.4397 144.83C62.2852 147.124 63.4293 150.118 63.3298 152.163C63.1308 152.363 62.9816 152.512 62.7826 152.512ZM85.514 152.512C85.315 152.512 85.1658 152.363 85.1658 152.163C84.8673 147.424 82.5793 142.385 80.3907 137.446C77.7047 131.46 74.969 125.273 76.2125 120.684C77.8539 114.597 82.3803 105.318 85.514 104.47C85.7129 104.42 85.9119 104.52 85.9616 104.72C86.2103 106.067 86.0114 109.06 85.8124 111.355C85.4642 116.393 85.0166 122.629 86.459 129.065L87.1057 131.859C89.145 140.689 90.6372 147.374 92.9253 151.964C93.0247 152.213 92.8755 152.512 92.5771 152.512H85.514ZM102.077 99.5312C102.376 102.175 102.028 104.969 101.829 107.962C101.481 113.101 101.083 118.439 102.475 123.378C102.824 124.675 103.172 125.872 103.52 127.069C105.659 134.702 107.101 139.791 107.101 148.571C107.101 148.671 107.052 148.771 106.952 148.87C105.012 150.617 102.575 151.864 99.9386 152.263C99.8392 152.263 99.6899 152.263 99.5905 152.163C96.7055 149.17 94.9149 141.337 92.4776 130.611L91.831 127.818C90.5377 122.18 90.9357 116.393 91.2838 111.704C91.6818 106.466 91.9305 102.674 89.7916 100.429C89.145 99.7307 87.9015 98.8327 85.9616 98.8327H85.9119C76.5607 98.8826 70.9898 118.988 70.8903 119.187C69.1494 125.673 72.3328 132.757 75.3669 139.591C77.3068 143.882 79.2467 148.322 79.6446 152.013C79.6446 152.213 79.4954 152.413 79.2964 152.413H68.9504C68.7515 152.413 68.6023 152.263 68.6023 152.063C68.652 148.97 67.4085 145.678 66.3639 142.834C65.966 141.786 65.6178 140.789 65.3691 139.99C62.7826 131.11 60.2956 122.729 61.9868 113.6C63.7277 104.121 70.6913 94.4925 77.456 85.2133C82.3306 78.4784 87.4041 71.544 90.5377 64.5098C93.7709 57.3259 93.0247 46.999 92.4776 39.0668C92.5273 39.5158 92.4279 38.6178 92.4776 39.0668L103.57 51.1896C104.067 51.7384 104.515 52.2872 105.012 52.9357C105.112 53.0854 105.112 53.3348 104.962 53.4346C99.3915 57.9744 97.8993 71.1449 98.2475 75.7346C98.5459 81.8209 101.431 93.5446 102.077 99.5312ZM111.578 133.505C111.578 133.954 110.931 134.004 110.882 133.605C110.285 131.011 109.588 128.466 108.792 125.623C108.444 124.475 108.146 123.278 107.798 121.981C106.703 117.94 107.052 113.101 107.35 108.361C107.549 105.318 107.798 102.225 107.599 99.2318C107.4 95.2907 106.455 91.6988 105.559 88.2066C104.515 84.1158 103.47 80.2744 103.669 76.0339C103.968 68.2514 105.659 61.1673 107.648 58.5232C107.798 58.3236 108.146 58.3236 108.245 58.5731C110.285 63.0131 111.628 68.0019 111.628 71.9431L111.578 133.505Z"/>
</mask>
<path d="M107.549 47.5977L70.2934 6.83914C68.851 5.29261 67.2095 4.04541 65.3691 3.2472C63.5288 2.3991 61.5889 2 59.5495 2C55.4708 2 51.6408 3.74608 48.8056 6.83914L11.5004 47.5977C6.17818 53.4346 2 64.1605 2 72.0428V138.145C2 149.12 10.8538 158 21.7966 158H97.2029C108.146 158 117 149.12 117 138.145V71.993C117.049 64.1107 112.871 53.3847 107.549 47.5977ZM59.5495 7.48769C62.0863 7.48769 64.4738 8.58523 66.2645 10.5309C66.5629 10.8801 66.8116 11.2792 66.9608 11.7282C69.995 22.2546 69.3484 26.1458 68.2043 33.0304C67.9556 34.7266 67.6075 36.6223 67.309 38.8174C66.8116 42.6588 66.9111 46.4503 67.0106 50.0921C67.1598 55.2805 67.309 60.1695 65.8168 64.9089L65.7173 65.308C64.0759 70.5961 61.2904 79.3764 56.963 81.2721C56.1672 81.6214 54.9237 81.9706 52.8346 80.9728C51.9393 80.5737 51.4419 78.5782 51.5413 75.7346C51.6408 72.3921 52.4367 68.5507 53.0335 65.7071C53.2822 64.5596 53.4812 63.6118 53.5807 62.8634C54.1278 59.3713 54.9734 55.8791 55.9185 52.1375C57.3112 46.3505 58.8034 40.4138 59.0521 34.527C59.2511 29.8874 58.1071 24.8986 57.0128 20.0595C56.2169 16.5174 55.4211 13.0752 55.1724 9.98209C55.1226 9.13399 55.62 8.33579 56.4159 8.03646C57.4107 7.68724 58.4552 7.48769 59.5495 7.48769ZM28.4618 152.512H21.7966C13.8879 152.512 7.47144 146.077 7.47144 138.145V71.993C7.47144 66.8545 9.75949 59.8702 12.8931 54.8315C13.0921 54.4823 13.6392 54.6818 13.5398 55.0809C10.3564 72.0429 15.7781 91.3495 21.1003 110.107C25.3779 125.323 29.4566 139.741 28.8598 152.113C28.81 152.363 28.6608 152.512 28.4618 152.512ZM27.0194 38.7176L41.2451 23.2024C41.4938 22.953 41.8917 23.1525 41.8917 23.4519C41.3943 29.9872 39.7031 36.1733 37.9622 42.6089C35.4752 51.7883 32.8887 61.3169 33.8338 72.3422C34.8783 84.6146 36.868 94.2929 38.7581 103.672C41.8917 118.988 44.5777 132.308 41.8917 152.163C41.842 152.363 41.6928 152.462 41.5435 152.462H34.6794C34.4804 152.462 34.3312 152.313 34.3312 152.063C34.9281 138.843 30.7499 124.126 26.3728 108.561C19.6578 84.8142 12.7439 60.3192 24.3831 42.2098C24.3831 42.2098 24.3831 42.2098 24.3831 42.1599L27.0194 38.7176ZM62.7826 152.512H47.8108C47.6119 152.512 47.4129 152.313 47.4626 152.113C50.1486 131.809 47.3632 118.189 44.1798 102.624C42.2896 93.4448 40.3498 83.9162 39.355 71.9431C38.5094 61.8657 40.8472 53.2351 43.2845 44.1055C45.6222 35.5248 48.0098 26.6447 47.4626 16.6671C47.4626 16.5673 47.5124 16.4675 47.5621 16.4177L49.7009 14.1228C49.8999 13.8734 50.2978 14.023 50.3476 14.3224C50.7455 16.6671 51.2926 19.0617 51.79 21.4065C52.7848 25.8964 53.8294 30.536 53.6802 34.3774C53.4315 39.7154 52.0387 45.4026 50.7455 50.9402C49.8502 54.582 48.9051 58.4234 48.358 62.1151C48.2585 62.7138 48.0595 63.6617 47.8606 64.7093C46.4181 71.544 44.0305 82.9184 50.646 86.0614C52.2874 86.8596 53.9289 87.2088 55.5206 87.2088C56.8138 87.2088 58.1071 86.9594 59.3008 86.4106C65.8665 83.5171 69.0002 73.5894 71.0893 67.054L71.1888 66.6549C72.9794 61.0176 72.7804 55.4301 72.6312 50.0422C72.5317 46.4503 72.4323 43.0579 72.8799 39.6156C73.1784 37.5203 73.4271 35.7243 73.7255 33.9783C74.4716 29.3387 75.0685 25.6469 74.4716 20.4087C74.4219 20.0595 74.8695 19.8599 75.1182 20.1094L86.1606 32.1823C86.6082 32.6812 86.8569 33.2798 86.8569 33.9284C86.9067 36.1733 87.0559 38.5181 87.2549 40.9626C87.802 48.5955 88.3492 56.4778 85.6632 62.4145C82.7782 68.8999 78.1027 75.3355 73.1784 82.1202C66.0655 91.8983 58.7537 102.026 56.7641 112.702C54.8242 123.128 57.6097 132.507 60.2956 141.637C60.5941 142.634 60.992 143.682 61.4397 144.83C62.2852 147.124 63.4293 150.118 63.3298 152.163C63.1308 152.363 62.9816 152.512 62.7826 152.512ZM85.514 152.512C85.315 152.512 85.1658 152.363 85.1658 152.163C84.8673 147.424 82.5793 142.385 80.3907 137.446C77.7047 131.46 74.969 125.273 76.2125 120.684C77.8539 114.597 82.3803 105.318 85.514 104.47C85.7129 104.42 85.9119 104.52 85.9616 104.72C86.2103 106.067 86.0114 109.06 85.8124 111.355C85.4642 116.393 85.0166 122.629 86.459 129.065L87.1057 131.859C89.145 140.689 90.6372 147.374 92.9253 151.964C93.0247 152.213 92.8755 152.512 92.5771 152.512H85.514ZM102.077 99.5312C102.376 102.175 102.028 104.969 101.829 107.962C101.481 113.101 101.083 118.439 102.475 123.378C102.824 124.675 103.172 125.872 103.52 127.069C105.659 134.702 107.101 139.791 107.101 148.571C107.101 148.671 107.052 148.771 106.952 148.87C105.012 150.617 102.575 151.864 99.9386 152.263C99.8392 152.263 99.6899 152.263 99.5905 152.163C96.7055 149.17 94.9149 141.337 92.4776 130.611L91.831 127.818C90.5377 122.18 90.9357 116.393 91.2838 111.704C91.6818 106.466 91.9305 102.674 89.7916 100.429C89.145 99.7307 87.9015 98.8327 85.9616 98.8327H85.9119C76.5607 98.8826 70.9898 118.988 70.8903 119.187C69.1494 125.673 72.3328 132.757 75.3669 139.591C77.3068 143.882 79.2467 148.322 79.6446 152.013C79.6446 152.213 79.4954 152.413 79.2964 152.413H68.9504C68.7515 152.413 68.6023 152.263 68.6023 152.063C68.652 148.97 67.4085 145.678 66.3639 142.834C65.966 141.786 65.6178 140.789 65.3691 139.99C62.7826 131.11 60.2956 122.729 61.9868 113.6C63.7277 104.121 70.6913 94.4925 77.456 85.2133C82.3306 78.4784 87.4041 71.544 90.5377 64.5098C93.7709 57.3259 93.0247 46.999 92.4776 39.0668C92.5273 39.5158 92.4279 38.6178 92.4776 39.0668L103.57 51.1896C104.067 51.7384 104.515 52.2872 105.012 52.9357C105.112 53.0854 105.112 53.3348 104.962 53.4346C99.3915 57.9744 97.8993 71.1449 98.2475 75.7346C98.5459 81.8209 101.431 93.5446 102.077 99.5312ZM111.578 133.505C111.578 133.954 110.931 134.004 110.882 133.605C110.285 131.011 109.588 128.466 108.792 125.623C108.444 124.475 108.146 123.278 107.798 121.981C106.703 117.94 107.052 113.101 107.35 108.361C107.549 105.318 107.798 102.225 107.599 99.2318C107.4 95.2907 106.455 91.6988 105.559 88.2066C104.515 84.1158 103.47 80.2744 103.669 76.0339C103.968 68.2514 105.659 61.1673 107.648 58.5232C107.798 58.3236 108.146 58.3236 108.245 58.5731C110.285 63.0131 111.628 68.0019 111.628 71.9431L111.578 133.505Z" fill="#AC6D34"/>
<path d="M107.549 47.5977L106.442 48.6097L106.445 48.6131L107.549 47.5977ZM70.2934 6.83914L71.4006 5.82713L71.3955 5.82155L71.3904 5.81603L70.2934 6.83914ZM65.3691 3.2472L64.7414 4.60951L64.7567 4.6166L64.7723 4.62334L65.3691 3.2472ZM48.8056 6.83914L47.6999 5.82558L47.6991 5.82639L48.8056 6.83914ZM11.5004 47.5977L10.3939 46.5849L10.392 46.587L11.5004 47.5977ZM117 71.993L115.5 71.9835V71.993H117ZM66.2645 10.5309L67.4048 9.55634L67.3869 9.53537L67.3682 9.51507L66.2645 10.5309ZM66.9608 11.7282L68.4022 11.3127L68.3938 11.2837L68.3843 11.2551L66.9608 11.7282ZM68.2043 33.0304L66.7246 32.7845L66.7223 32.7986L66.7202 32.8128L68.2043 33.0304ZM67.309 38.8174L65.8227 38.6153L65.8214 38.6248L67.309 38.8174ZM67.0106 50.0921L65.5111 50.1331L65.5112 50.1352L67.0106 50.0921ZM65.8168 64.9089L64.386 64.4584L64.3723 64.5019L64.3613 64.5461L65.8168 64.9089ZM65.7173 65.308L67.1499 65.7526L67.1625 65.712L67.1728 65.6707L65.7173 65.308ZM56.963 81.2721L56.3611 79.8982L56.3603 79.8986L56.963 81.2721ZM52.8346 80.9728L53.481 79.6193L53.4633 79.6108L53.4453 79.6028L52.8346 80.9728ZM51.5413 75.7346L53.0404 75.787L53.0407 75.7792L51.5413 75.7346ZM53.0335 65.7071L51.5676 65.3893L51.5655 65.3989L53.0335 65.7071ZM53.5807 62.8634L52.0988 62.6313L52.0961 62.6485L52.0938 62.6658L53.5807 62.8634ZM55.9185 52.1375L57.3728 52.5049L57.3749 52.4967L57.3768 52.4885L55.9185 52.1375ZM59.0521 34.527L57.5535 34.4628L57.5535 34.4637L59.0521 34.527ZM57.0128 20.0595L55.5493 20.3883L55.5497 20.3903L57.0128 20.0595ZM55.1724 9.98209L53.675 10.0699L53.6759 10.0861L53.6772 10.1023L55.1724 9.98209ZM56.4159 8.03646L55.9191 6.62113L55.9034 6.62663L55.8878 6.63248L56.4159 8.03646ZM12.8931 54.8315L14.1669 55.6236L14.1821 55.5991L14.1964 55.574L12.8931 54.8315ZM13.5398 55.0809L12.0843 54.7181L12.0736 54.7609L12.0655 54.8042L13.5398 55.0809ZM21.1003 110.107L22.5443 109.701L22.5433 109.698L21.1003 110.107ZM28.8598 152.113L30.3308 152.407L30.3526 152.297L30.358 152.185L28.8598 152.113ZM27.0194 38.7176L25.9138 37.7039L25.8689 37.7529L25.8285 37.8056L27.0194 38.7176ZM41.2451 23.2024L40.1829 22.1433L40.1607 22.1656L40.1395 22.1887L41.2451 23.2024ZM41.8917 23.4519L43.3874 23.5657L43.3917 23.5089V23.4519H41.8917ZM37.9622 42.6089L39.41 43.0012L39.4102 43.0006L37.9622 42.6089ZM33.8338 72.3422L35.3284 72.215L35.3283 72.2141L33.8338 72.3422ZM38.7581 103.672L37.2876 103.968L37.2885 103.973L38.7581 103.672ZM41.8917 152.163L43.3472 152.526L43.3671 152.446L43.3782 152.364L41.8917 152.163ZM34.3312 152.063L32.8327 151.996L32.8312 152.029V152.063H34.3312ZM26.3728 108.561L27.8167 108.155L27.8162 108.153L26.3728 108.561ZM24.3831 42.2098H25.8831V37.1016L23.1213 41.3988L24.3831 42.2098ZM24.3831 42.1599L23.1923 41.2479L22.8831 41.6515V42.1599H24.3831ZM47.4626 152.113L48.9181 152.476L48.9386 152.394L48.9497 152.31L47.4626 152.113ZM44.1798 102.624L45.6494 102.324L45.6489 102.322L44.1798 102.624ZM39.355 71.9431L40.8498 71.8189L40.8497 71.8176L39.355 71.9431ZM43.2845 44.1055L41.8372 43.7112L41.8352 43.7186L43.2845 44.1055ZM47.4626 16.6671H45.9626V16.7082L45.9649 16.7492L47.4626 16.6671ZM47.5621 16.4177L48.6243 17.4767L48.6422 17.4588L48.6594 17.4404L47.5621 16.4177ZM49.7009 14.1228L50.7983 15.1455L50.8376 15.1033L50.8736 15.0581L49.7009 14.1228ZM50.3476 14.3224L48.8679 14.5682L48.8687 14.5733L50.3476 14.3224ZM51.79 21.4065L50.3226 21.7178L50.3256 21.7309L51.79 21.4065ZM53.6802 34.3774L55.1786 34.4472L55.179 34.4356L53.6802 34.3774ZM50.7455 50.9402L52.2021 51.2983L52.2042 51.2898L52.2062 51.2813L50.7455 50.9402ZM48.358 62.1151L49.8377 62.361L49.8398 62.348L49.8418 62.335L48.358 62.1151ZM47.8606 64.7093L49.3282 65.0191L49.3314 65.0041L49.3342 64.9892L47.8606 64.7093ZM50.646 86.0614L51.302 84.7124L51.2897 84.7065L50.646 86.0614ZM59.3008 86.4106L58.6959 85.038L58.6851 85.0428L58.6743 85.0477L59.3008 86.4106ZM71.0893 67.054L72.518 67.5108L72.5329 67.4642L72.5447 67.4169L71.0893 67.054ZM71.1888 66.6549L69.7591 66.2008L69.7448 66.2461L69.7333 66.2921L71.1888 66.6549ZM72.6312 50.0422L74.1307 50.0007L72.6312 50.0422ZM72.8799 39.6156L71.3949 39.4041L71.3936 39.4131L71.3925 39.4222L72.8799 39.6156ZM73.7255 33.9783L75.2041 34.231L75.2053 34.2237L75.2065 34.2164L73.7255 33.9783ZM74.4716 20.4087L75.962 20.2389L75.9596 20.218L75.9566 20.1972L74.4716 20.4087ZM75.1182 20.1094L76.2251 19.097L76.2033 19.0732L76.1805 19.0503L75.1182 20.1094ZM86.1606 32.1823L87.277 31.1805L87.2722 31.1752L87.2674 31.1699L86.1606 32.1823ZM86.8569 33.9284H85.3569V33.945L85.3573 33.9616L86.8569 33.9284ZM87.2549 40.9626L88.751 40.8553L88.7505 40.8481L88.7499 40.8409L87.2549 40.9626ZM85.6632 62.4145L84.2965 61.7961L84.2927 61.8048L85.6632 62.4145ZM73.1784 82.1202L74.3914 83.0026L74.3923 83.0013L73.1784 82.1202ZM56.7641 112.702L55.2895 112.427L55.2894 112.427L56.7641 112.702ZM60.2956 141.637L58.8566 142.06L58.8585 142.067L60.2956 141.637ZM61.4397 144.83L62.8472 144.311L62.8422 144.298L62.8371 144.284L61.4397 144.83ZM63.3298 152.163L64.392 153.222L64.7999 152.813L64.828 152.236L63.3298 152.163ZM85.1658 152.163H86.6658V152.116L86.6628 152.069L85.1658 152.163ZM80.3907 137.446L81.7621 136.838L81.7593 136.832L80.3907 137.446ZM76.2125 120.684L77.6603 121.076L77.6608 121.074L76.2125 120.684ZM85.514 104.47L85.1491 103.015L85.1356 103.019L85.1221 103.022L85.514 104.47ZM85.9616 104.72L87.4367 104.447L87.4283 104.402L87.4171 104.357L85.9616 104.72ZM85.8124 111.355L84.318 111.225L84.3169 111.238L84.316 111.251L85.8124 111.355ZM86.459 129.065L84.9953 129.393L84.9977 129.403L86.459 129.065ZM87.1057 131.859L88.5672 131.521L88.567 131.52L87.1057 131.859ZM92.9253 151.964L94.3185 151.408L94.2955 151.35L94.2677 151.294L92.9253 151.964ZM102.077 99.5312L100.586 99.6923L100.587 99.6994L102.077 99.5312ZM101.829 107.962L103.325 108.064L103.325 108.062L101.829 107.962ZM102.475 123.378L103.924 122.989L103.922 122.98L103.919 122.971L102.475 123.378ZM103.52 127.069L104.964 126.665L104.962 126.658L104.96 126.651L103.52 127.069ZM106.952 148.87L107.956 149.985L107.986 149.958L108.014 149.93L106.952 148.87ZM99.9386 152.263V153.763H100.052L100.163 153.746L99.9386 152.263ZM99.5905 152.163L98.5104 153.204L98.5192 153.213L98.5282 153.222L99.5905 152.163ZM92.4776 130.611L93.9403 130.279L93.939 130.273L92.4776 130.611ZM91.831 127.818L90.369 128.153L90.3696 128.156L91.831 127.818ZM91.2838 111.704L89.7881 111.59L89.7879 111.593L91.2838 111.704ZM89.7916 100.429L88.6909 101.448L88.6982 101.456L88.7056 101.464L89.7916 100.429ZM85.9119 98.8327V97.3327L85.9039 97.3328L85.9119 98.8327ZM70.8903 119.187L69.5479 118.518L69.4807 118.653L69.4416 118.798L70.8903 119.187ZM75.3669 139.591L73.9959 140.2L74.0002 140.209L75.3669 139.591ZM79.6446 152.013H81.1446V151.933L81.136 151.853L79.6446 152.013ZM68.6023 152.063L67.1025 152.039L67.1023 152.051V152.063H68.6023ZM66.3639 142.834L67.772 142.317L67.7691 142.309L67.7662 142.301L66.3639 142.834ZM65.3691 139.99L63.929 140.41L63.9329 140.423L63.937 140.437L65.3691 139.99ZM61.9868 113.6L63.4617 113.873L63.4621 113.871L61.9868 113.6ZM77.456 85.2133L78.6681 86.097L78.6712 86.0928L77.456 85.2133ZM90.5377 64.5098L89.1699 63.8941L89.1675 63.8994L90.5377 64.5098ZM103.57 51.1896L104.681 50.1823L104.676 50.1771L103.57 51.1896ZM105.012 52.9357L106.261 52.1054L106.233 52.0631L106.202 52.0229L105.012 52.9357ZM104.962 53.4346L104.129 52.1877L104.07 52.2271L104.015 52.2718L104.962 53.4346ZM98.2475 75.7346L99.7457 75.6611L99.7447 75.6411L99.7432 75.6211L98.2475 75.7346ZM111.578 133.505L110.078 133.504V133.505H111.578ZM110.882 133.605L112.37 133.419L112.361 133.343L112.343 133.268L110.882 133.605ZM108.792 125.623L110.237 125.218L110.233 125.203L110.228 125.187L108.792 125.623ZM107.798 121.981L109.246 121.592L109.245 121.589L107.798 121.981ZM107.35 108.361L105.853 108.264L105.853 108.267L107.35 108.361ZM107.599 99.2318L106.101 99.3075L106.101 99.3194L106.102 99.3313L107.599 99.2318ZM105.559 88.2066L104.106 88.5777L104.106 88.5791L105.559 88.2066ZM103.669 76.0339L105.168 76.1042L105.168 76.0914L103.669 76.0339ZM107.648 58.5232L108.847 59.4251L108.85 59.4215L107.648 58.5232ZM108.245 58.5731L106.852 59.1287L106.866 59.1643L106.882 59.1992L108.245 58.5731ZM111.628 71.9431L113.128 71.9443V71.9431H111.628ZM108.656 46.5857L71.4006 5.82713L69.1863 7.85116L106.442 48.6097L108.656 46.5857ZM71.3904 5.81603C69.8371 4.15073 68.032 2.76712 65.966 1.87106L64.7723 4.62334C66.3871 5.3237 67.8648 6.4345 69.1965 7.86226L71.3904 5.81603ZM65.9969 1.88489C63.9472 0.940307 61.7914 0.5 59.5495 0.5V3.5C61.3864 3.5 63.1103 3.8579 64.7414 4.60951L65.9969 1.88489ZM59.5495 0.5C55.0288 0.5 50.8043 2.43878 47.6999 5.82558L49.9114 7.85271C52.4773 5.05339 55.9128 3.5 59.5495 3.5V0.5ZM47.6991 5.82639L10.3939 46.5849L12.6069 48.6104L49.9121 7.85189L47.6991 5.82639ZM10.392 46.587C7.57337 49.6782 5.11271 53.9936 3.35637 58.5095C1.60018 63.0252 0.5 67.8653 0.5 72.0428H3.5C3.5 68.338 4.48891 63.8741 6.15236 59.5969C7.81567 55.3202 10.1052 51.3541 12.6088 48.6084L10.392 46.587ZM0.5 72.0428V138.145H3.5V72.0428H0.5ZM0.5 138.145C0.5 149.944 10.0212 159.5 21.7966 159.5V156.5C11.6864 156.5 3.5 148.296 3.5 138.145H0.5ZM21.7966 159.5H97.2029V156.5H21.7966V159.5ZM97.2029 159.5C108.978 159.5 118.5 149.944 118.5 138.145H115.5C115.5 148.296 107.313 156.5 97.2029 156.5V159.5ZM118.5 138.145V71.993H115.5V138.145H118.5ZM118.5 72.0024C118.526 67.8211 117.438 62.9778 115.687 58.4669C113.937 53.9558 111.475 49.6504 108.653 46.5823L106.445 48.6131C108.945 51.332 111.234 55.2831 112.89 59.5522C114.547 63.8217 115.523 68.2826 115.5 71.9835L118.5 72.0024ZM59.5495 8.98769C61.6378 8.98769 63.6339 9.88761 65.1608 11.5466L67.3682 9.51507C65.3138 7.28284 62.5347 5.98769 59.5495 5.98769V8.98769ZM65.1242 11.5054C65.3253 11.7407 65.4618 11.9737 65.5374 12.2013L68.3843 11.2551C68.1615 10.5847 67.8005 10.0194 67.4048 9.55634L65.1242 11.5054ZM65.5195 12.1436C67.0158 17.3347 67.5793 20.8043 67.6498 23.7805C67.7206 26.7664 67.2997 29.3241 66.7246 32.7845L69.684 33.2763C70.253 29.8521 70.7275 27.0219 70.649 23.7094C70.5703 20.3873 69.94 16.648 68.4022 11.3127L65.5195 12.1436ZM66.7202 32.8128C66.4878 34.3978 66.1168 36.4519 65.8227 38.6153L68.7953 39.0195C69.0981 36.7928 69.4235 35.0553 69.6885 33.248L66.7202 32.8128ZM65.8214 38.6248C65.3067 42.6003 65.4121 46.5065 65.5111 50.1331L68.51 50.0511C68.4101 46.3941 68.3166 42.7172 68.7966 39.01L65.8214 38.6248ZM65.5112 50.1352C65.6618 55.3725 65.7893 60.0015 64.386 64.4584L67.2476 65.3593C68.8287 60.3375 68.6578 55.1884 68.51 50.049L65.5112 50.1352ZM64.3613 64.5461L64.2618 64.9452L67.1728 65.6707L67.2723 65.2716L64.3613 64.5461ZM64.2847 64.8633C63.461 67.5171 62.3813 70.9405 60.988 73.9282C60.2923 75.42 59.5397 76.7557 58.7336 77.8112C57.9191 78.8776 57.12 79.5657 56.3611 79.8982L57.5649 82.6461C58.9697 82.0307 60.1416 80.9103 61.1178 79.632C62.1024 78.3428 62.9601 76.7975 63.7069 75.1962C65.1984 71.9978 66.3322 68.387 67.1499 65.7526L64.2847 64.8633ZM56.3603 79.8986C56.0725 80.0249 55.7697 80.1239 55.3698 80.1277C54.9639 80.1314 54.3558 80.0371 53.481 79.6193L52.1881 82.3264C53.4025 82.9063 54.4607 83.1362 55.3977 83.1275C56.3408 83.1188 57.0577 82.8686 57.5658 82.6457L56.3603 79.8986ZM53.4453 79.6028C53.6002 79.6718 53.6063 79.7474 53.5302 79.6194C53.458 79.498 53.3607 79.2725 53.271 78.91C53.0917 78.186 52.9936 77.1258 53.0404 75.787L50.0423 75.6821C49.9896 77.187 50.0904 78.5464 50.3589 79.6308C50.4929 80.1725 50.6816 80.6984 50.9514 81.1523C51.2173 81.5996 51.6213 82.0743 52.2239 82.3429L53.4453 79.6028ZM53.0407 75.7792C53.1355 72.5929 53.8995 68.8834 54.5016 66.0152L51.5655 65.3989C50.9738 68.218 50.1461 72.1913 50.042 75.6899L53.0407 75.7792ZM54.4995 66.0248C54.7453 64.8908 54.9586 63.8811 55.0676 63.0611L52.0938 62.6658C52.0038 63.3424 51.8192 64.2285 51.5676 65.3893L54.4995 66.0248ZM55.0626 63.0956C55.598 59.6786 56.4279 56.2459 57.3728 52.5049L54.4642 51.7702C53.519 55.5123 52.6577 59.064 52.0988 62.6313L55.0626 63.0956ZM57.3768 52.4885C58.7593 46.7442 60.2947 40.6531 60.5508 34.5903L57.5535 34.4637C57.3122 40.1746 55.8631 45.9568 54.4601 51.7865L57.3768 52.4885ZM60.5507 34.5913C60.76 29.7128 59.5585 24.5163 58.4758 19.7286L55.5497 20.3903C56.6556 25.281 57.7422 30.0621 57.5535 34.4628L60.5507 34.5913ZM58.4763 19.7307C57.672 16.1509 56.9059 12.8259 56.6676 9.86187L53.6772 10.1023C53.9363 13.3244 54.7619 16.884 55.5493 20.3883L58.4763 19.7307ZM56.6698 9.89427C56.6569 9.67498 56.7881 9.49905 56.9439 9.44044L55.8878 6.63248C54.452 7.17252 53.5883 8.59301 53.675 10.0699L56.6698 9.89427ZM56.9127 9.45179C57.7644 9.15281 58.6411 8.98769 59.5495 8.98769V5.98769C58.2694 5.98769 57.057 6.22167 55.9191 6.62113L56.9127 9.45179ZM28.4618 151.012H21.7966V154.012H28.4618V151.012ZM21.7966 151.012C14.7205 151.012 8.97144 145.253 8.97144 138.145H5.97144C5.97144 146.901 13.0553 154.012 21.7966 154.012V151.012ZM8.97144 138.145V71.993H5.97144V138.145H8.97144ZM8.97144 71.993C8.97144 67.1952 11.1454 60.482 14.1669 55.6236L11.6194 54.0393C8.3736 59.2583 5.97144 66.5138 5.97144 71.993H8.97144ZM14.1964 55.574C13.8738 56.1403 13.2271 56.2401 12.8003 56.0795C12.587 55.9993 12.3639 55.8393 12.2125 55.5795C12.049 55.2987 12.0182 54.9832 12.0843 54.7181L14.9952 55.4437C15.257 54.3935 14.6052 53.5532 13.8564 53.2716C13.1311 52.9988 12.1114 53.1734 11.5898 54.0889L14.1964 55.574ZM12.0655 54.8042C8.80421 72.1812 14.3623 91.8551 19.6572 110.517L22.5433 109.698C17.1938 90.844 11.9085 71.9045 15.014 55.3576L12.0655 54.8042ZM19.6563 110.513C23.9565 125.81 27.9441 139.965 27.3615 152.041L30.358 152.185C30.9692 139.517 26.7994 124.837 22.5443 109.701L19.6563 110.513ZM27.3887 151.82C27.4069 151.729 27.4665 151.536 27.6545 151.347C27.8619 151.139 28.1547 151.012 28.4618 151.012V154.012C29.6184 154.012 30.1947 153.089 30.3308 152.407L27.3887 151.82ZM28.125 39.7313L42.3507 24.2162L40.1395 22.1887L25.9138 37.7039L28.125 39.7313ZM42.3073 24.2615C41.9474 24.6225 41.4353 24.6567 41.0693 24.4994C40.7495 24.362 40.3917 24.0038 40.3917 23.4519H43.3917C43.3917 22.6006 42.835 21.993 42.254 21.7433C41.6269 21.4737 40.7915 21.5329 40.1829 22.1433L42.3073 24.2615ZM40.396 23.338C39.9113 29.7076 38.2623 35.7553 36.5143 42.2172L39.4102 43.0006C41.144 36.5913 42.8774 30.2668 43.3874 23.5657L40.396 23.338ZM36.5144 42.2166C34.0335 51.3737 31.3685 61.1452 32.3393 72.4703L35.3283 72.2141C34.4089 61.4886 36.917 52.2029 39.41 43.0012L36.5144 42.2166ZM32.3392 72.4694C33.3919 84.8378 35.3984 94.5936 37.2876 103.968L40.2285 103.376C38.3375 93.9922 36.3648 84.3915 35.3284 72.215L32.3392 72.4694ZM37.2885 103.973C40.4172 119.264 43.0552 132.373 40.4053 151.962L43.3782 152.364C46.1002 132.242 43.3663 118.711 40.2276 103.371L37.2885 103.973ZM40.4363 151.8C40.4844 151.607 40.6028 151.389 40.8162 151.218C41.0243 151.051 41.282 150.962 41.5435 150.962V153.962C42.414 153.962 43.1389 153.362 43.3472 152.526L40.4363 151.8ZM41.5435 150.962H34.6794V153.962H41.5435V150.962ZM34.6794 150.962C34.9733 150.962 35.3004 151.082 35.5421 151.349C35.7756 151.607 35.8312 151.89 35.8312 152.063H32.8312C32.8312 152.486 32.9614 152.969 33.3193 153.364C33.6853 153.768 34.1865 153.962 34.6794 153.962V150.962ZM35.8297 152.131C36.4397 138.619 32.1733 123.647 27.8167 108.155L24.9288 108.967C29.3265 124.605 33.4164 139.067 32.8327 151.996L35.8297 152.131ZM27.8162 108.153C24.4502 96.2494 21.0854 84.3228 19.988 73.125C18.8923 61.9458 20.0789 51.681 25.645 43.0208L23.1213 41.3988C17.0481 50.8479 15.872 61.8853 17.0023 73.4177C18.1307 84.9315 21.5804 97.1257 24.9293 108.969L27.8162 108.153ZM24.3831 42.2098C22.8831 42.2098 24.3831 42.2098 25.8831 42.2098C25.8831 42.2098 25.8831 42.2098 25.8831 42.2098C25.8831 42.2098 25.8831 42.2098 25.8831 42.2098V42.2098C25.8831 42.2098 25.8831 42.2098 25.8831 42.2098V42.2098C25.8831 42.2098 25.8831 42.2098 25.8831 42.2098C25.8831 42.2098 25.8831 42.2098 25.8831 42.2098C25.8831 42.2098 25.8831 42.2098 25.8831 42.2098C25.8831 42.2098 25.8831 42.2098 25.8831 42.2098V42.2097C25.8831 42.2097 25.8831 42.2097 25.8831 42.2097V42.2097C25.8831 42.2097 25.8831 42.2097 25.8831 42.2097C25.8831 42.2097 25.8831 42.2097 25.8831 42.2097V42.2097V42.2097V42.2097C25.8831 42.2097 25.8831 42.2097 25.8831 42.2097C25.8831 42.2097 25.8831 42.2097 25.8831 42.2097C25.8831 42.2097 25.8831 42.2097 25.8831 42.2097C25.8831 42.2097 25.8831 42.2097 25.8831 42.2097C25.8831 42.2097 25.8831 42.2097 25.8831 42.2097V42.2097V42.2097V42.2097C25.8831 42.2097 25.8831 42.2097 25.8831 42.2097C25.8831 42.2097 25.8831 42.2097 25.8831 42.2097V42.2097V42.2097C25.8831 42.2097 25.8831 42.2097 25.8831 42.2097V42.2097C25.8831 42.2097 25.8831 42.2097 25.8831 42.2097V42.2096C25.8831 42.2096 25.8831 42.2096 25.8831 42.2096V42.2096C25.8831 42.2096 25.8831 42.2096 25.8831 42.2096V42.2096C25.8831 42.2096 25.8831 42.2096 25.8831 42.2096C25.8831 42.2096 25.8831 42.2096 25.8831 42.2096C25.8831 42.2096 25.8831 42.2096 25.8831 42.2096C25.8831 42.2096 25.8831 42.2096 25.8831 42.2096V42.2096C25.8831 42.2096 25.8831 42.2096 25.8831 42.2096C25.8831 42.2096 25.8831 42.2096 25.8831 42.2096C25.8831 42.2096 25.8831 42.2096 25.8831 42.2096C25.8831 42.2096 25.8831 42.2096 25.8831 42.2096C25.8831 42.2096 25.8831 42.2096 25.8831 42.2095C25.8831 42.2095 25.8831 42.2095 25.8831 42.2095C25.8831 42.2095 25.8831 42.2095 25.8831 42.2095C25.8831 42.2095 25.8831 42.2095 25.8831 42.2095C25.8831 42.2095 25.8831 42.2095 25.8831 42.2095C25.8831 42.2095 25.8831 42.2095 25.8831 42.2095C25.8831 42.2095 25.8831 42.2095 25.8831 42.2095C25.8831 42.2095 25.8831 42.2095 25.8831 42.2095C25.8831 42.2095 25.8831 42.2095 25.8831 42.2095C25.8831 42.2095 25.8831 42.2095 25.8831 42.2095C25.8831 42.2095 25.8831 42.2095 25.8831 42.2095C25.8831 42.2095 25.8831 42.2094 25.8831 42.2094C25.8831 42.2094 25.8831 42.2094 25.8831 42.2094C25.8831 42.2094 25.8831 42.2094 25.8831 42.2094C25.8831 42.2094 25.8831 42.2094 25.8831 42.2094C25.8831 42.2094 25.8831 42.2094 25.8831 42.2094C25.8831 42.2094 25.8831 42.2094 25.8831 42.2094C25.8831 42.2094 25.8831 42.2094 25.8831 42.2094C25.8831 42.2094 25.8831 42.2094 25.8831 42.2094C25.8831 42.2094 25.8831 42.2094 25.8831 42.2094C25.8831 42.2094 25.8831 42.2093 25.8831 42.2093C25.8831 42.2093 25.8831 42.2093 25.8831 42.2093C25.8831 42.2093 25.8831 42.2093 25.8831 42.2093C25.8831 42.2093 25.8831 42.2093 25.8831 42.2093C25.8831 42.2093 25.8831 42.2093 25.8831 42.2093C25.8831 42.2093 25.8831 42.2093 25.8831 42.2093C25.8831 42.2093 25.8831 42.2093 25.8831 42.2093C25.8831 42.2093 25.8831 42.2093 25.8831 42.2093C25.8831 42.2092 25.8831 42.2092 25.8831 42.2092C25.8831 42.2092 25.8831 42.2092 25.8831 42.2092C25.8831 42.2092 25.8831 42.2092 25.8831 42.2092C25.8831 42.2092 25.8831 42.2092 25.8831 42.2092C25.8831 42.2092 25.8831 42.2092 25.8831 42.2092C25.8831 42.2092 25.8831 42.2092 25.8831 42.2092C25.8831 42.2092 25.8831 42.2091 25.8831 42.2091C25.8831 42.2091 25.8831 42.2091 25.8831 42.2091C25.8831 42.2091 25.8831 42.2091 25.8831 42.2091C25.8831 42.2091 25.8831 42.2091 25.8831 42.2091C25.8831 42.2091 25.8831 42.2091 25.8831 42.2091C25.8831 42.2091 25.8831 42.2091 25.8831 42.2091C25.8831 42.2091 25.8831 42.209 25.8831 42.209C25.8831 42.209 25.8831 42.209 25.8831 42.209C25.8831 42.209 25.8831 42.209 25.8831 42.209C25.8831 42.209 25.8831 42.209 25.8831 42.209C25.8831 42.209 25.8831 42.209 25.8831 42.209C25.8831 42.209 25.8831 42.209 25.8831 42.209C25.8831 42.2089 25.8831 42.2089 25.8831 42.2089C25.8831 42.2089 25.8831 42.2089 25.8831 42.2089C25.8831 42.2089 25.8831 42.2089 25.8831 42.2089C25.8831 42.2089 25.8831 42.2089 25.8831 42.2089C25.8831 42.2089 25.8831 42.2089 25.8831 42.2089C25.8831 42.2088 25.8831 42.2088 25.8831 42.2088C25.8831 42.2088 25.8831 42.2088 25.8831 42.2088C25.8831 42.2088 25.8831 42.2088 25.8831 42.2088C25.8831 42.2088 25.8831 42.2088 25.8831 42.2088C25.8831 42.2088 25.8831 42.2088 25.8831 42.2087C25.8831 42.2087 25.8831 42.2087 25.8831 42.2087C25.8831 42.2087 25.8831 42.2087 25.8831 42.2087C25.8831 42.2087 25.8831 42.2087 25.8831 42.2087C25.8831 42.2087 25.8831 42.2087 25.8831 42.2087C25.8831 42.2086 25.8831 42.2086 25.8831 42.2086C25.8831 42.2086 25.8831 42.2086 25.8831 42.2086C25.8831 42.2086 25.8831 42.2086 25.8831 42.2086C25.8831 42.2086 25.8831 42.2086 25.8831 42.2086C25.8831 42.2085 25.8831 42.2085 25.8831 42.2085C25.8831 42.2085 25.8831 42.2085 25.8831 42.2085C25.8831 42.2085 25.8831 42.2085 25.8831 42.2085C25.8831 42.2085 25.8831 42.2085 25.8831 42.2085C25.8831 42.2084 25.8831 42.2084 25.8831 42.2084C25.8831 42.2084 25.8831 42.2084 25.8831 42.2084C25.8831 42.2084 25.8831 42.2084 25.8831 42.2084C25.8831 42.2084 25.8831 42.2084 25.8831 42.2083C25.8831 42.2083 25.8831 42.2083 25.8831 42.2083C25.8831 42.2083 25.8831 42.2083 25.8831 42.2083C25.8831 42.2083 25.8831 42.2083 25.8831 42.2083C25.8831 42.2083 25.8831 42.2082 25.8831 42.2082C25.8831 42.2082 25.8831 42.2082 25.8831 42.2082C25.8831 42.2082 25.8831 42.2082 25.8831 42.2082C25.8831 42.2082 25.8831 42.2082 25.8831 42.2081C25.8831 42.2081 25.8831 42.2081 25.8831 42.2081C25.8831 42.2081 25.8831 42.2081 25.8831 42.2081C25.8831 42.2081 25.8831 42.2081 25.8831 42.2081C25.8831 42.208 25.8831 42.208 25.8831 42.208C25.8831 42.208 25.8831 42.208 25.8831 42.208C25.8831 42.208 25.8831 42.208 25.8831 42.208C25.8831 42.208 25.8831 42.2079 25.8831 42.2079C25.8831 42.2079 25.8831 42.2079 25.8831 42.2079C25.8831 42.2079 25.8831 42.2079 25.8831 42.2079C25.8831 42.2079 25.8831 42.2078 25.8831 42.2078C25.8831 42.2078 25.8831 42.2078 25.8831 42.2078C25.8831 42.2078 25.8831 42.2078 25.8831 42.2078C25.8831 42.2077 25.8831 42.2077 25.8831 42.2077C25.8831 42.2077 25.8831 42.2077 25.8831 42.2077C25.8831 42.2077 25.8831 42.2077 25.8831 42.2077C25.8831 42.2076 25.8831 42.2076 25.8831 42.2076C25.8831 42.2076 25.8831 42.2076 25.8831 42.2076C25.8831 42.2076 25.8831 42.2076 25.8831 42.2075C25.8831 42.2075 25.8831 42.2075 25.8831 42.2075C25.8831 42.2075 25.8831 42.2075 25.8831 42.2075C25.8831 42.2075 25.8831 42.2074 25.8831 42.2074C25.8831 42.2074 25.8831 42.2074 25.8831 42.2074C25.8831 42.2074 25.8831 42.2074 25.8831 42.2074C25.8831 42.2073 25.8831 42.2073 25.8831 42.2073C25.8831 42.2073 25.8831 42.2073 25.8831 42.2073C25.8831 42.2073 25.8831 42.2072 25.8831 42.2072C25.8831 42.2072 25.8831 42.2072 25.8831 42.2072C25.8831 42.2072 25.8831 42.2072 25.8831 42.2072C25.8831 42.2071 25.8831 42.2071 25.8831 42.2071C25.8831 42.2071 25.8831 42.2071 25.8831 42.2071C25.8831 42.2071 25.8831 42.207 25.8831 42.207C25.8831 42.207 25.8831 42.207 25.8831 42.207C25.8831 42.207 25.8831 42.207 25.8831 42.2069C25.8831 42.2069 25.8831 42.2069 25.8831 42.2069C25.8831 42.2069 25.8831 42.2069 25.8831 42.2069C25.8831 42.2068 25.8831 42.2068 25.8831 42.2068C25.8831 42.2068 25.8831 42.2068 25.8831 42.2068C25.8831 42.2068 25.8831 42.2067 25.8831 42.2067C25.8831 42.2067 25.8831 42.2067 25.8831 42.2067C25.8831 42.2067 25.8831 42.2066 25.8831 42.2066C25.8831 42.2066 25.8831 42.2066 25.8831 42.2066C25.8831 42.2066 25.8831 42.2066 25.8831 42.2065C25.8831 42.2065 25.8831 42.2065 25.8831 42.2065C25.8831 42.2065 25.8831 42.2065 25.8831 42.2064C25.8831 42.2064 25.8831 42.2064 25.8831 42.2064C25.8831 42.2064 25.8831 42.2064 25.8831 42.2063C25.8831 42.2063 25.8831 42.2063 25.8831 42.2063C25.8831 42.2063 25.8831 42.2063 25.8831 42.2062C25.8831 42.2062 25.8831 42.2062 25.8831 42.2062C25.8831 42.2062 25.8831 42.2062 25.8831 42.2061C25.8831 42.2061 25.8831 42.2061 25.8831 42.2061C25.8831 42.2061 25.8831 42.2061 25.8831 42.206C25.8831 42.206 25.8831 42.206 25.8831 42.206C25.8831 42.206 25.8831 42.206 25.8831 42.2059C25.8831 42.2059 25.8831 42.2059 25.8831 42.2059C25.8831 42.2059 25.8831 42.2058 25.8831 42.2058C25.8831 42.2058 25.8831 42.2058 25.8831 42.2058C25.8831 42.2058 25.8831 42.2057 25.8831 42.2057C25.8831 42.2057 25.8831 42.2057 25.8831 42.2057C25.8831 42.2056 25.8831 42.2056 25.8831 42.2056C25.8831 42.2056 25.8831 42.2056 25.8831 42.2056C25.8831 42.2055 25.8831 42.2055 25.8831 42.2055C25.8831 42.2055 25.8831 42.2055 25.8831 42.2054C25.8831 42.2054 25.8831 42.2054 25.8831 42.2054C25.8831 42.2054 25.8831 42.2053 25.8831 42.2053C25.8831 42.2053 25.8831 42.2053 25.8831 42.2053C25.8831 42.2052 25.8831 42.2052 25.8831 42.2052C25.8831 42.2052 25.8831 42.2052 25.8831 42.2051C25.8831 42.2051 25.8831 42.2051 25.8831 42.2051C25.8831 42.2051 25.8831 42.205 25.8831 42.205C25.8831 42.205 25.8831 42.205 25.8831 42.205C25.8831 42.2049 25.8831 42.2049 25.8831 42.2049C25.8831 42.2049 25.8831 42.2049 25.8831 42.2048C25.8831 42.2048 25.8831 42.2048 25.8831 42.2048C25.8831 42.2048 25.8831 42.2047 25.8831 42.2047C25.8831 42.2047 25.8831 42.2047 25.8831 42.2046C25.8831 42.2046 25.8831 42.2046 25.8831 42.2046C25.8831 42.2046 25.8831 42.2045 25.8831 42.2045C25.8831 42.2045 25.8831 42.2045 25.8831 42.2045C25.8831 42.2044 25.8831 42.2044 25.8831 42.2044C25.8831 42.2044 25.8831 42.2043 25.8831 42.2043C25.8831 42.2043 25.8831 42.2043 25.8831 42.2043C25.8831 42.2042 25.8831 42.2042 25.8831 42.2042C25.8831 42.2042 25.8831 42.2041 25.8831 42.2041C25.8831 42.2041 25.8831 42.2041 25.8831 42.204C25.8831 42.204 25.8831 42.204 25.8831 42.204C25.8831 42.204 25.8831 42.2039 25.8831 42.2039C25.8831 42.2039 25.8831 42.2039 25.8831 42.2038C25.8831 42.2038 25.8831 42.2038 25.8831 42.2038C25.8831 42.2037 25.8831 42.2037 25.8831 42.2037C25.8831 42.2037 25.8831 42.2036 25.8831 42.2036C25.8831 42.2036 25.8831 42.2036 25.8831 42.2036C25.8831 42.2035 25.8831 42.2035 25.8831 42.2035C25.8831 42.2035 25.8831 42.2034 25.8831 42.2034C25.8831 42.2034 25.8831 42.2034 25.8831 42.2033C25.8831 42.2033 25.8831 42.2033 25.8831 42.2033C25.8831 42.2032 25.8831 42.2032 25.8831 42.2032C25.8831 42.2032 25.8831 42.2031 25.8831 42.2031C25.8831 42.2031 25.8831 42.2031 25.8831 42.203C25.8831 42.203 25.8831 42.203 25.8831 42.2029C25.8831 42.2029 25.8831 42.2029 25.8831 42.2029C25.8831 42.2028 25.8831 42.2028 25.8831 42.2028C25.8831 42.2028 25.8831 42.2027 25.8831 42.2027C25.8831 42.2027 25.8831 42.2027 25.8831 42.2026C25.8831 42.2026 25.8831 42.2026 25.8831 42.2026C25.8831 42.2025 25.8831 42.2025 25.8831 42.2025C25.8831 42.2024 25.8831 42.2024 25.8831 42.2024C25.8831 42.2024 25.8831 42.2023 25.8831 42.2023C25.8831 42.2023 25.8831 42.2023 25.8831 42.2022C25.8831 42.2022 25.8831 42.2022 25.8831 42.2021C25.8831 42.2021 25.8831 42.2021 25.8831 42.2021C25.8831 42.202 25.8831 42.202 25.8831 42.202C25.8831 42.2019 25.8831 42.2019 25.8831 42.2019C25.8831 42.2019 25.8831 42.2018 25.8831 42.2018C25.8831 42.2018 25.8831 42.2017 25.8831 42.2017C25.8831 42.2017 25.8831 42.2017 25.8831 42.2016C25.8831 42.2016 25.8831 42.2016 25.8831 42.2015C25.8831 42.2015 25.8831 42.2015 25.8831 42.2015C25.8831 42.2014 25.8831 42.2014 25.8831 42.2014C25.8831 42.2013 25.8831 42.2013 25.8831 42.2013C25.8831 42.2012 25.8831 42.2012 25.8831 42.2012C25.8831 42.2012 25.8831 42.2011 25.8831 42.2011C25.8831 42.2011 25.8831 42.201 25.8831 42.201C25.8831 42.201 25.8831 42.2009 25.8831 42.2009C25.8831 42.2009 25.8831 42.2008 25.8831 42.2008C25.8831 42.2008 25.8831 42.2008 25.8831 42.2007C25.8831 42.2007 25.8831 42.2007 25.8831 42.2006C25.8831 42.2006 25.8831 42.2006 25.8831 42.2005C25.8831 42.2005 25.8831 42.2005 25.8831 42.2004C25.8831 42.2004 25.8831 42.2004 25.8831 42.2003C25.8831 42.2003 25.8831 42.2003 25.8831 42.2002C25.8831 42.2002 25.8831 42.2002 25.8831 42.2001C25.8831 42.2001 25.8831 42.2001 25.8831 42.2001C25.8831 42.2 25.8831 42.2 25.8831 42.2C25.8831 42.1999 25.8831 42.1999 25.8831 42.1999C25.8831 42.1998 25.8831 42.1998 25.8831 42.1998C25.8831 42.1997 25.8831 42.1997 25.8831 42.1996C25.8831 42.1996 25.8831 42.1996 25.8831 42.1996C25.8831 42.1995 25.8831 42.1995 25.8831 42.1994C25.8831 42.1994 25.8831 42.1994 25.8831 42.1993C25.8831 42.1993 25.8831 42.1993 25.8831 42.1992C25.8831 42.1992 25.8831 42.1992 25.8831 42.1991C25.8831 42.1991 25.8831 42.1991 25.8831 42.199C25.8831 42.199 25.8831 42.199 25.8831 42.1989C25.8831 42.1989 25.8831 42.1989 25.8831 42.1988C25.8831 42.1988 25.8831 42.1987 25.8831 42.1987C25.8831 42.1987 25.8831 42.1986 25.8831 42.1986C25.8831 42.1986 25.8831 42.1985 25.8831 42.1985C25.8831 42.1985 25.8831 42.1984 25.8831 42.1984C25.8831 42.1984 25.8831 42.1983 25.8831 42.1983C25.8831 42.1982 25.8831 42.1982 25.8831 42.1982C25.8831 42.1981 25.8831 42.1981 25.8831 42.1981C25.8831 42.198 25.8831 42.198 25.8831 42.1979C25.8831 42.1979 25.8831 42.1979 25.8831 42.1978C25.8831 42.1978 25.8831 42.1978 25.8831 42.1977C25.8831 42.1977 25.8831 42.1976 25.8831 42.1976C25.8831 42.1976 25.8831 42.1975 25.8831 42.1975C25.8831 42.1975 25.8831 42.1974 25.8831 42.1974C25.8831 42.1973 25.8831 42.1973 25.8831 42.1973C25.8831 42.1972 25.8831 42.1972 25.8831 42.1971C25.8831 42.1971 25.8831 42.1971 25.8831 42.197C25.8831 42.197 25.8831 42.1969 25.8831 42.1969C25.8831 42.1969 25.8831 42.1968 25.8831 42.1968C25.8831 42.1968 25.8831 42.1967 25.8831 42.1967C25.8831 42.1966 25.8831 42.1966 25.8831 42.1965C25.8831 42.1965 25.8831 42.1965 25.8831 42.1964C25.8831 42.1964 25.8831 42.1963 25.8831 42.1963C25.8831 42.1963 25.8831 42.1962 25.8831 42.1962C25.8831 42.1961 25.8831 42.1961 25.8831 42.1961C25.8831 42.196 25.8831 42.196 25.8831 42.1959C25.8831 42.1959 25.8831 42.1959 25.8831 42.1958C25.8831 42.1958 25.8831 42.1957 25.8831 42.1957C25.8831 42.1956 25.8831 42.1956 25.8831 42.1956C25.8831 42.1955 25.8831 42.1955 25.8831 42.1954C25.8831 42.1954 25.8831 42.1954 25.8831 42.1953C25.8831 42.1953 25.8831 42.1952 25.8831 42.1952C25.8831 42.1951 25.8831 42.1951 25.8831 42.195C25.8831 42.195 25.8831 42.195 25.8831 42.1949C25.8831 42.1949 25.8831 42.1948 25.8831 42.1948C25.8831 42.1947 25.8831 42.1947 25.8831 42.1947C25.8831 42.1946 25.8831 42.1946 25.8831 42.1945C25.8831 42.1945 25.8831 42.1944 25.8831 42.1944C25.8831 42.1943 25.8831 42.1943 25.8831 42.1943C25.8831 42.1942 25.8831 42.1942 25.8831 42.1941C25.8831 42.1941 25.8831 42.194 25.8831 42.194C25.8831 42.1939 25.8831 42.1939 25.8831 42.1939C25.8831 42.1938 25.8831 42.1938 25.8831 42.1937C25.8831 42.1937 25.8831 42.1936 25.8831 42.1936C25.8831 42.1935 25.8831 42.1935 25.8831 42.1934C25.8831 42.1934 25.8831 42.1933 25.8831 42.1933C25.8831 42.1933 25.8831 42.1932 25.8831 42.1932C25.8831 42.1931 25.8831 42.1931 25.8831 42.193C25.8831 42.193 25.8831 42.1929 25.8831 42.1929C25.8831 42.1928 25.8831 42.1928 25.8831 42.1927C25.8831 42.1927 25.8831 42.1926 25.8831 42.1926C25.8831 42.1925 25.8831 42.1925 25.8831 42.1924C25.8831 42.1924 25.8831 42.1923 25.8831 42.1923C25.8831 42.1923 25.8831 42.1922 25.8831 42.1922C25.8831 42.1921 25.8831 42.1921 25.8831 42.192C25.8831 42.192 25.8831 42.1919 25.8831 42.1919C25.8831 42.1918 25.8831 42.1918 25.8831 42.1917C25.8831 42.1917 25.8831 42.1916 25.8831 42.1916C25.8831 42.1915 25.8831 42.1915 25.8831 42.1914C25.8831 42.1914 25.8831 42.1913 25.8831 42.1913C25.8831 42.1912 25.8831 42.1912 25.8831 42.1911C25.8831 42.1911 25.8831 42.191 25.8831 42.191C25.8831 42.1909 25.8831 42.1909 25.8831 42.1908C25.8831 42.1908 25.8831 42.1907 25.8831 42.1907C25.8831 42.1906 25.8831 42.1905 25.8831 42.1905C25.8831 42.1904 25.8831 42.1904 25.8831 42.1903C25.8831 42.1903 25.8831 42.1902 25.8831 42.1902C25.8831 42.1901 25.8831 42.1901 25.8831 42.19C25.8831 42.19 25.8831 42.1899 25.8831 42.1899C25.8831 42.1898 25.8831 42.1898 25.8831 42.1897C25.8831 42.1897 25.8831 42.1896 25.8831 42.1896C25.8831 42.1895 25.8831 42.1894 25.8831 42.1894C25.8831 42.1893 25.8831 42.1893 25.8831 42.1892C25.8831 42.1892 25.8831 42.1891 25.8831 42.1891C25.8831 42.189 25.8831 42.189 25.8831 42.1889C25.8831 42.1889 25.8831 42.1888 25.8831 42.1887C25.8831 42.1887 25.8831 42.1886 25.8831 42.1886C25.8831 42.1885 25.8831 42.1885 25.8831 42.1884C25.8831 42.1884 25.8831 42.1883 25.8831 42.1882C25.8831 42.1882 25.8831 42.1881 25.8831 42.1881C25.8831 42.188 25.8831 42.188 25.8831 42.1879C25.8831 42.1879 25.8831 42.1878 25.8831 42.1877C25.8831 42.1877 25.8831 42.1876 25.8831 42.1876C25.8831 42.1875 25.8831 42.1875 25.8831 42.1874C25.8831 42.1873 25.8831 42.1873 25.8831 42.1872C25.8831 42.1872 25.8831 42.1871 25.8831 42.1871C25.8831 42.187 25.8831 42.1869 25.8831 42.1869C25.8831 42.1868 25.8831 42.1868 25.8831 42.1867C25.8831 42.1866 25.8831 42.1866 25.8831 42.1865C25.8831 42.1865 25.8831 42.1864 25.8831 42.1864C25.8831 42.1863 25.8831 42.1862 25.8831 42.1862C25.8831 42.1861 25.8831 42.1861 25.8831 42.186C25.8831 42.1859 25.8831 42.1859 25.8831 42.1858C25.8831 42.1858 25.8831 42.1857 25.8831 42.1856C25.8831 42.1856 25.8831 42.1855 25.8831 42.1855C25.8831 42.1854 25.8831 42.1853 25.8831 42.1853C25.8831 42.1852 25.8831 42.1852 25.8831 42.1851C25.8831 42.185 25.8831 42.185 25.8831 42.1849C25.8831 42.1848 25.8831 42.1848 25.8831 42.1847C25.8831 42.1847 25.8831 42.1846 25.8831 42.1845C25.8831 42.1845 25.8831 42.1844 25.8831 42.1844C25.8831 42.1843 25.8831 42.1842 25.8831 42.1842C25.8831 42.1841 25.8831 42.184 25.8831 42.184C25.8831 42.1839 25.8831 42.1839 25.8831 42.1838C25.8831 42.1837 25.8831 42.1837 25.8831 42.1836C25.8831 42.1835 25.8831 42.1835 25.8831 42.1834C25.8831 42.1833 25.8831 42.1833 25.8831 42.1832C25.8831 42.1832 25.8831 42.1831 25.8831 42.183C25.8831 42.183 25.8831 42.1829 25.8831 42.1828C25.8831 42.1828 25.8831 42.1827 25.8831 42.1826C25.8831 42.1826 25.8831 42.1825 25.8831 42.1824C25.8831 42.1824 25.8831 42.1823 25.8831 42.1822C25.8831 42.1822 25.8831 42.1821 25.8831 42.1821C25.8831 42.182 25.8831 42.1819 25.8831 42.1819C25.8831 42.1818 25.8831 42.1817 25.8831 42.1817C25.8831 42.1816 25.8831 42.1815 25.8831 42.1815C25.8831 42.1814 25.8831 42.1813 25.8831 42.1813C25.8831 42.1812 25.8831 42.1811 25.8831 42.1811C25.8831 42.181 25.8831 42.1809 25.8831 42.1808C25.8831 42.1808 25.8831 42.1807 25.8831 42.1806C25.8831 42.1806 25.8831 42.1805 25.8831 42.1804C25.8831 42.1804 25.8831 42.1803 25.8831 42.1802C25.8831 42.1802 25.8831 42.1801 25.8831 42.18C25.8831 42.18 25.8831 42.1799 25.8831 42.1798C25.8831 42.1798 25.8831 42.1797 25.8831 42.1796C25.8831 42.1795 25.8831 42.1795 25.8831 42.1794C25.8831 42.1793 25.8831 42.1793 25.8831 42.1792C25.8831 42.1791 25.8831 42.1791 25.8831 42.179C25.8831 42.1789 25.8831 42.1788 25.8831 42.1788C25.8831 42.1787 25.8831 42.1786 25.8831 42.1786C25.8831 42.1785 25.8831 42.1784 25.8831 42.1783C25.8831 42.1783 25.8831 42.1782 25.8831 42.1781C25.8831 42.1781 25.8831 42.178 25.8831 42.1779C25.8831 42.1778 25.8831 42.1778 25.8831 42.1777C25.8831 42.1776 25.8831 42.1775 25.8831 42.1775C25.8831 42.1774 25.8831 42.1773 25.8831 42.1773C25.8831 42.1772 25.8831 42.1771 25.8831 42.177C25.8831 42.177 25.8831 42.1769 25.8831 42.1768C25.8831 42.1767 25.8831 42.1767 25.8831 42.1766C25.8831 42.1765 25.8831 42.1764 25.8831 42.1764C25.8831 42.1763 25.8831 42.1762 25.8831 42.1761C25.8831 42.1761 25.8831 42.176 25.8831 42.1759C25.8831 42.1758 25.8831 42.1758 25.8831 42.1757C25.8831 42.1756 25.8831 42.1755 25.8831 42.1755C25.8831 42.1754 25.8831 42.1753 25.8831 42.1752C25.8831 42.1752 25.8831 42.1751 25.8831 42.175C25.8831 42.1749 25.8831 42.1749 25.8831 42.1748C25.8831 42.1747 25.8831 42.1746 25.8831 42.1745C25.8831 42.1745 25.8831 42.1744 25.8831 42.1743C25.8831 42.1742 25.8831 42.1742 25.8831 42.1741C25.8831 42.174 25.8831 42.1739 25.8831 42.1738C25.8831 42.1738 25.8831 42.1737 25.8831 42.1736C25.8831 42.1735 25.8831 42.1735 25.8831 42.1734C25.8831 42.1733 25.8831 42.1732 25.8831 42.1731C25.8831 42.1731 25.8831 42.173 25.8831 42.1729C25.8831 42.1728 25.8831 42.1727 25.8831 42.1727C25.8831 42.1726 25.8831 42.1725 25.8831 42.1724C25.8831 42.1723 25.8831 42.1723 25.8831 42.1722C25.8831 42.1721 25.8831 42.172 25.8831 42.1719C25.8831 42.1718 25.8831 42.1718 25.8831 42.1717C25.8831 42.1716 25.8831 42.1715 25.8831 42.1714C25.8831 42.1714 25.8831 42.1713 25.8831 42.1712C25.8831 42.1711 25.8831 42.171 25.8831 42.1709C25.8831 42.1709 25.8831 42.1708 25.8831 42.1707C25.8831 42.1706 25.8831 42.1705 25.8831 42.1705C25.8831 42.1704 25.8831 42.1703 25.8831 42.1702C25.8831 42.1701 25.8831 42.17 25.8831 42.17C25.8831 42.1699 25.8831 42.1698 25.8831 42.1697C25.8831 42.1696 25.8831 42.1695 25.8831 42.1694C25.8831 42.1694 25.8831 42.1693 25.8831 42.1692C25.8831 42.1691 25.8831 42.169 25.8831 42.1689C25.8831 42.1688 25.8831 42.1688 25.8831 42.1687C25.8831 42.1686 25.8831 42.1685 25.8831 42.1684C25.8831 42.1683 25.8831 42.1683 25.8831 42.1682C25.8831 42.1681 25.8831 42.168 25.8831 42.1679C25.8831 42.1678 25.8831 42.1677 25.8831 42.1676C25.8831 42.1676 25.8831 42.1675 25.8831 42.1674C25.8831 42.1673 25.8831 42.1672 25.8831 42.1671C25.8831 42.167 25.8831 42.1669 25.8831 42.1669C25.8831 42.1668 25.8831 42.1667 25.8831 42.1666C25.8831 42.1665 25.8831 42.1664 25.8831 42.1663C25.8831 42.1662 25.8831 42.1661 25.8831 42.1661C25.8831 42.166 25.8831 42.1659 25.8831 42.1658C25.8831 42.1657 25.8831 42.1656 25.8831 42.1655C25.8831 42.1654 25.8831 42.1653 25.8831 42.1652C25.8831 42.1652 25.8831 42.1651 25.8831 42.165C25.8831 42.1649 25.8831 42.1648 25.8831 42.1647C25.8831 42.1646 25.8831 42.1645 25.8831 42.1644C25.8831 42.1643 25.8831 42.1642 25.8831 42.1642C25.8831 42.1641 25.8831 42.164 25.8831 42.1639C25.8831 42.1638 25.8831 42.1637 25.8831 42.1636C25.8831 42.1635 25.8831 42.1634 25.8831 42.1633C25.8831 42.1632 25.8831 42.1631 25.8831 42.163C25.8831 42.163 25.8831 42.1629 25.8831 42.1628C25.8831 42.1627 25.8831 42.1626 25.8831 42.1625C25.8831 42.1624 25.8831 42.1623 25.8831 42.1622C25.8831 42.1621 25.8831 42.162 25.8831 42.1619C25.8831 42.1618 25.8831 42.1617 25.8831 42.1616C25.8831 42.1615 25.8831 42.1614 25.8831 42.1613C25.8831 42.1613 25.8831 42.1612 25.8831 42.1611C25.8831 42.161 25.8831 42.1609 25.8831 42.1608C25.8831 42.1607 25.8831 42.1606 25.8831 42.1605C25.8831 42.1604 25.8831 42.1603 25.8831 42.1602C25.8831 42.1601 25.8831 42.16 25.8831 42.1599H22.8831C22.8831 42.16 22.8831 42.1601 22.8831 42.1602C22.8831 42.1603 22.8831 42.1604 22.8831 42.1605C22.8831 42.1606 22.8831 42.1607 22.8831 42.1608C22.8831 42.1609 22.8831 42.161 22.8831 42.1611C22.8831 42.1612 22.8831 42.1613 22.8831 42.1613C22.8831 42.1614 22.8831 42.1615 22.8831 42.1616C22.8831 42.1617 22.8831 42.1618 22.8831 42.1619C22.8831 42.162 22.8831 42.1621 22.8831 42.1622C22.8831 42.1623 22.8831 42.1624 22.8831 42.1625C22.8831 42.1626 22.8831 42.1627 22.8831 42.1628C22.8831 42.1629 22.8831 42.163 22.8831 42.163C22.8831 42.1631 22.8831 42.1632 22.8831 42.1633C22.8831 42.1634 22.8831 42.1635 22.8831 42.1636C22.8831 42.1637 22.8831 42.1638 22.8831 42.1639C22.8831 42.164 22.8831 42.1641 22.8831 42.1642C22.8831 42.1642 22.8831 42.1643 22.8831 42.1644C22.8831 42.1645 22.8831 42.1646 22.8831 42.1647C22.8831 42.1648 22.8831 42.1649 22.8831 42.165C22.8831 42.1651 22.8831 42.1652 22.8831 42.1652C22.8831 42.1653 22.8831 42.1654 22.8831 42.1655C22.8831 42.1656 22.8831 42.1657 22.8831 42.1658C22.8831 42.1659 22.8831 42.166 22.8831 42.1661C22.8831 42.1661 22.8831 42.1662 22.8831 42.1663C22.8831 42.1664 22.8831 42.1665 22.8831 42.1666C22.8831 42.1667 22.8831 42.1668 22.8831 42.1669C22.8831 42.1669 22.8831 42.167 22.8831 42.1671C22.8831 42.1672 22.8831 42.1673 22.8831 42.1674C22.8831 42.1675 22.8831 42.1676 22.8831 42.1676C22.8831 42.1677 22.8831 42.1678 22.8831 42.1679C22.8831 42.168 22.8831 42.1681 22.8831 42.1682C22.8831 42.1683 22.8831 42.1683 22.8831 42.1684C22.8831 42.1685 22.8831 42.1686 22.8831 42.1687C22.8831 42.1688 22.8831 42.1688 22.8831 42.1689C22.8831 42.169 22.8831 42.1691 22.8831 42.1692C22.8831 42.1693 22.8831 42.1694 22.8831 42.1694C22.8831 42.1695 22.8831 42.1696 22.8831 42.1697C22.8831 42.1698 22.8831 42.1699 22.8831 42.17C22.8831 42.17 22.8831 42.1701 22.8831 42.1702C22.8831 42.1703 22.8831 42.1704 22.8831 42.1705C22.8831 42.1705 22.8831 42.1706 22.8831 42.1707C22.8831 42.1708 22.8831 42.1709 22.8831 42.1709C22.8831 42.171 22.8831 42.1711 22.8831 42.1712C22.8831 42.1713 22.8831 42.1714 22.8831 42.1714C22.8831 42.1715 22.8831 42.1716 22.8831 42.1717C22.8831 42.1718 22.8831 42.1718 22.8831 42.1719C22.8831 42.172 22.8831 42.1721 22.8831 42.1722C22.8831 42.1723 22.8831 42.1723 22.8831 42.1724C22.8831 42.1725 22.8831 42.1726 22.8831 42.1727C22.8831 42.1727 22.8831 42.1728 22.8831 42.1729C22.8831 42.173 22.8831 42.1731 22.8831 42.1731C22.8831 42.1732 22.8831 42.1733 22.8831 42.1734C22.8831 42.1735 22.8831 42.1735 22.8831 42.1736C22.8831 42.1737 22.8831 42.1738 22.8831 42.1738C22.8831 42.1739 22.8831 42.174 22.8831 42.1741C22.8831 42.1742 22.8831 42.1742 22.8831 42.1743C22.8831 42.1744 22.8831 42.1745 22.8831 42.1745C22.8831 42.1746 22.8831 42.1747 22.8831 42.1748C22.8831 42.1749 22.8831 42.1749 22.8831 42.175C22.8831 42.1751 22.8831 42.1752 22.8831 42.1752C22.8831 42.1753 22.8831 42.1754 22.8831 42.1755C22.8831 42.1755 22.8831 42.1756 22.8831 42.1757C22.8831 42.1758 22.8831 42.1758 22.8831 42.1759C22.8831 42.176 22.8831 42.1761 22.8831 42.1761C22.8831 42.1762 22.8831 42.1763 22.8831 42.1764C22.8831 42.1764 22.8831 42.1765 22.8831 42.1766C22.8831 42.1767 22.8831 42.1767 22.8831 42.1768C22.8831 42.1769 22.8831 42.177 22.8831 42.177C22.8831 42.1771 22.8831 42.1772 22.8831 42.1773C22.8831 42.1773 22.8831 42.1774 22.8831 42.1775C22.8831 42.1775 22.8831 42.1776 22.8831 42.1777C22.8831 42.1778 22.8831 42.1778 22.8831 42.1779C22.8831 42.178 22.8831 42.1781 22.8831 42.1781C22.8831 42.1782 22.8831 42.1783 22.8831 42.1783C22.8831 42.1784 22.8831 42.1785 22.8831 42.1786C22.8831 42.1786 22.8831 42.1787 22.8831 42.1788C22.8831 42.1788 22.8831 42.1789 22.8831 42.179C22.8831 42.1791 22.8831 42.1791 22.8831 42.1792C22.8831 42.1793 22.8831 42.1793 22.8831 42.1794C22.8831 42.1795 22.8831 42.1795 22.8831 42.1796C22.8831 42.1797 22.8831 42.1798 22.8831 42.1798C22.8831 42.1799 22.8831 42.18 22.8831 42.18C22.8831 42.1801 22.8831 42.1802 22.8831 42.1802C22.8831 42.1803 22.8831 42.1804 22.8831 42.1804C22.8831 42.1805 22.8831 42.1806 22.8831 42.1806C22.8831 42.1807 22.8831 42.1808 22.8831 42.1808C22.8831 42.1809 22.8831 42.181 22.8831 42.1811C22.8831 42.1811 22.8831 42.1812 22.8831 42.1813C22.8831 42.1813 22.8831 42.1814 22.8831 42.1815C22.8831 42.1815 22.8831 42.1816 22.8831 42.1817C22.8831 42.1817 22.8831 42.1818 22.8831 42.1819C22.8831 42.1819 22.8831 42.182 22.8831 42.1821C22.8831 42.1821 22.8831 42.1822 22.8831 42.1822C22.8831 42.1823 22.8831 42.1824 22.8831 42.1824C22.8831 42.1825 22.8831 42.1826 22.8831 42.1826C22.8831 42.1827 22.8831 42.1828 22.8831 42.1828C22.8831 42.1829 22.8831 42.183 22.8831 42.183C22.8831 42.1831 22.8831 42.1832 22.8831 42.1832C22.8831 42.1833 22.8831 42.1833 22.8831 42.1834C22.8831 42.1835 22.8831 42.1835 22.8831 42.1836C22.8831 42.1837 22.8831 42.1837 22.8831 42.1838C22.8831 42.1839 22.8831 42.1839 22.8831 42.184C22.8831 42.184 22.8831 42.1841 22.8831 42.1842C22.8831 42.1842 22.8831 42.1843 22.8831 42.1844C22.8831 42.1844 22.8831 42.1845 22.8831 42.1845C22.8831 42.1846 22.8831 42.1847 22.8831 42.1847C22.8831 42.1848 22.8831 42.1848 22.8831 42.1849C22.8831 42.185 22.8831 42.185 22.8831 42.1851C22.8831 42.1852 22.8831 42.1852 22.8831 42.1853C22.8831 42.1853 22.8831 42.1854 22.8831 42.1855C22.8831 42.1855 22.8831 42.1856 22.8831 42.1856C22.8831 42.1857 22.8831 42.1858 22.8831 42.1858C22.8831 42.1859 22.8831 42.1859 22.8831 42.186C22.8831 42.1861 22.8831 42.1861 22.8831 42.1862C22.8831 42.1862 22.8831 42.1863 22.8831 42.1864C22.8831 42.1864 22.8831 42.1865 22.8831 42.1865C22.8831 42.1866 22.8831 42.1866 22.8831 42.1867C22.8831 42.1868 22.8831 42.1868 22.8831 42.1869C22.8831 42.1869 22.8831 42.187 22.8831 42.1871C22.8831 42.1871 22.8831 42.1872 22.8831 42.1872C22.8831 42.1873 22.8831 42.1873 22.8831 42.1874C22.8831 42.1875 22.8831 42.1875 22.8831 42.1876C22.8831 42.1876 22.8831 42.1877 22.8831 42.1877C22.8831 42.1878 22.8831 42.1879 22.8831 42.1879C22.8831 42.188 22.8831 42.188 22.8831 42.1881C22.8831 42.1881 22.8831 42.1882 22.8831 42.1882C22.8831 42.1883 22.8831 42.1884 22.8831 42.1884C22.8831 42.1885 22.8831 42.1885 22.8831 42.1886C22.8831 42.1886 22.8831 42.1887 22.8831 42.1887C22.8831 42.1888 22.8831 42.1889 22.8831 42.1889C22.8831 42.189 22.8831 42.189 22.8831 42.1891C22.8831 42.1891 22.8831 42.1892 22.8831 42.1892C22.8831 42.1893 22.8831 42.1893 22.8831 42.1894C22.8831 42.1894 22.8831 42.1895 22.8831 42.1896C22.8831 42.1896 22.8831 42.1897 22.8831 42.1897C22.8831 42.1898 22.8831 42.1898 22.8831 42.1899C22.8831 42.1899 22.8831 42.19 22.8831 42.19C22.8831 42.1901 22.8831 42.1901 22.8831 42.1902C22.8831 42.1902 22.8831 42.1903 22.8831 42.1903C22.8831 42.1904 22.8831 42.1904 22.8831 42.1905C22.8831 42.1905 22.8831 42.1906 22.8831 42.1907C22.8831 42.1907 22.8831 42.1908 22.8831 42.1908C22.8831 42.1909 22.8831 42.1909 22.8831 42.191C22.8831 42.191 22.8831 42.1911 22.8831 42.1911C22.8831 42.1912 22.8831 42.1912 22.8831 42.1913C22.8831 42.1913 22.8831 42.1914 22.8831 42.1914C22.8831 42.1915 22.8831 42.1915 22.8831 42.1916C22.8831 42.1916 22.8831 42.1917 22.8831 42.1917C22.8831 42.1918 22.8831 42.1918 22.8831 42.1919C22.8831 42.1919 22.8831 42.192 22.8831 42.192C22.8831 42.1921 22.8831 42.1921 22.8831 42.1922C22.8831 42.1922 22.8831 42.1923 22.8831 42.1923C22.8831 42.1923 22.8831 42.1924 22.8831 42.1924C22.8831 42.1925 22.8831 42.1925 22.8831 42.1926C22.8831 42.1926 22.8831 42.1927 22.8831 42.1927C22.8831 42.1928 22.8831 42.1928 22.8831 42.1929C22.8831 42.1929 22.8831 42.193 22.8831 42.193C22.8831 42.1931 22.8831 42.1931 22.8831 42.1932C22.8831 42.1932 22.8831 42.1933 22.8831 42.1933C22.8831 42.1933 22.8831 42.1934 22.8831 42.1934C22.8831 42.1935 22.8831 42.1935 22.8831 42.1936C22.8831 42.1936 22.8831 42.1937 22.8831 42.1937C22.8831 42.1938 22.8831 42.1938 22.8831 42.1939C22.8831 42.1939 22.8831 42.1939 22.8831 42.194C22.8831 42.194 22.8831 42.1941 22.8831 42.1941C22.8831 42.1942 22.8831 42.1942 22.8831 42.1943C22.8831 42.1943 22.8831 42.1943 22.8831 42.1944C22.8831 42.1944 22.8831 42.1945 22.8831 42.1945C22.8831 42.1946 22.8831 42.1946 22.8831 42.1947C22.8831 42.1947 22.8831 42.1947 22.8831 42.1948C22.8831 42.1948 22.8831 42.1949 22.8831 42.1949C22.8831 42.195 22.8831 42.195 22.8831 42.195C22.8831 42.1951 22.8831 42.1951 22.8831 42.1952C22.8831 42.1952 22.8831 42.1953 22.8831 42.1953C22.8831 42.1954 22.8831 42.1954 22.8831 42.1954C22.8831 42.1955 22.8831 42.1955 22.8831 42.1956C22.8831 42.1956 22.8831 42.1956 22.8831 42.1957C22.8831 42.1957 22.8831 42.1958 22.8831 42.1958C22.8831 42.1959 22.8831 42.1959 22.8831 42.1959C22.8831 42.196 22.8831 42.196 22.8831 42.1961C22.8831 42.1961 22.8831 42.1961 22.8831 42.1962C22.8831 42.1962 22.8831 42.1963 22.8831 42.1963C22.8831 42.1963 22.8831 42.1964 22.8831 42.1964C22.8831 42.1965 22.8831 42.1965 22.8831 42.1965C22.8831 42.1966 22.8831 42.1966 22.8831 42.1967C22.8831 42.1967 22.8831 42.1968 22.8831 42.1968C22.8831 42.1968 22.8831 42.1969 22.8831 42.1969C22.8831 42.1969 22.8831 42.197 22.8831 42.197C22.8831 42.1971 22.8831 42.1971 22.8831 42.1971C22.8831 42.1972 22.8831 42.1972 22.8831 42.1973C22.8831 42.1973 22.8831 42.1973 22.8831 42.1974C22.8831 42.1974 22.8831 42.1975 22.8831 42.1975C22.8831 42.1975 22.8831 42.1976 22.8831 42.1976C22.8831 42.1976 22.8831 42.1977 22.8831 42.1977C22.8831 42.1978 22.8831 42.1978 22.8831 42.1978C22.8831 42.1979 22.8831 42.1979 22.8831 42.1979C22.8831 42.198 22.8831 42.198 22.8831 42.1981C22.8831 42.1981 22.8831 42.1981 22.8831 42.1982C22.8831 42.1982 22.8831 42.1982 22.8831 42.1983C22.8831 42.1983 22.8831 42.1984 22.8831 42.1984C22.8831 42.1984 22.8831 42.1985 22.8831 42.1985C22.8831 42.1985 22.8831 42.1986 22.8831 42.1986C22.8831 42.1986 22.8831 42.1987 22.8831 42.1987C22.8831 42.1987 22.8831 42.1988 22.8831 42.1988C22.8831 42.1989 22.8831 42.1989 22.8831 42.1989C22.8831 42.199 22.8831 42.199 22.8831 42.199C22.8831 42.1991 22.8831 42.1991 22.8831 42.1991C22.8831 42.1992 22.8831 42.1992 22.8831 42.1992C22.8831 42.1993 22.8831 42.1993 22.8831 42.1993C22.8831 42.1994 22.8831 42.1994 22.8831 42.1994C22.8831 42.1995 22.8831 42.1995 22.8831 42.1996C22.8831 42.1996 22.8831 42.1996 22.8831 42.1996C22.8831 42.1997 22.8831 42.1997 22.8831 42.1998C22.8831 42.1998 22.8831 42.1998 22.8831 42.1999C22.8831 42.1999 22.8831 42.1999 22.8831 42.2C22.8831 42.2 22.8831 42.2 22.8831 42.2001C22.8831 42.2001 22.8831 42.2001 22.8831 42.2001C22.8831 42.2002 22.8831 42.2002 22.8831 42.2002C22.8831 42.2003 22.8831 42.2003 22.8831 42.2003C22.8831 42.2004 22.8831 42.2004 22.8831 42.2004C22.8831 42.2005 22.8831 42.2005 22.8831 42.2005C22.8831 42.2006 22.8831 42.2006 22.8831 42.2006C22.8831 42.2007 22.8831 42.2007 22.8831 42.2007C22.8831 42.2008 22.8831 42.2008 22.8831 42.2008C22.8831 42.2008 22.8831 42.2009 22.8831 42.2009C22.8831 42.2009 22.8831 42.201 22.8831 42.201C22.8831 42.201 22.8831 42.2011 22.8831 42.2011C22.8831 42.2011 22.8831 42.2012 22.8831 42.2012C22.8831 42.2012 22.8831 42.2012 22.8831 42.2013C22.8831 42.2013 22.8831 42.2013 22.8831 42.2014C22.8831 42.2014 22.8831 42.2014 22.8831 42.2015C22.8831 42.2015 22.8831 42.2015 22.8831 42.2015C22.8831 42.2016 22.8831 42.2016 22.8831 42.2016C22.8831 42.2017 22.8831 42.2017 22.8831 42.2017C22.8831 42.2017 22.8831 42.2018 22.8831 42.2018C22.8831 42.2018 22.8831 42.2019 22.8831 42.2019C22.8831 42.2019 22.8831 42.2019 22.8831 42.202C22.8831 42.202 22.8831 42.202 22.8831 42.2021C22.8831 42.2021 22.8831 42.2021 22.8831 42.2021C22.8831 42.2022 22.8831 42.2022 22.8831 42.2022C22.8831 42.2023 22.8831 42.2023 22.8831 42.2023C22.8831 42.2023 22.8831 42.2024 22.8831 42.2024C22.8831 42.2024 22.8831 42.2024 22.8831 42.2025C22.8831 42.2025 22.8831 42.2025 22.8831 42.2026C22.8831 42.2026 22.8831 42.2026 22.8831 42.2026C22.8831 42.2027 22.8831 42.2027 22.8831 42.2027C22.8831 42.2027 22.8831 42.2028 22.8831 42.2028C22.8831 42.2028 22.8831 42.2028 22.8831 42.2029C22.8831 42.2029 22.8831 42.2029 22.8831 42.2029C22.8831 42.203 22.8831 42.203 22.8831 42.203C22.8831 42.2031 22.8831 42.2031 22.8831 42.2031C22.8831 42.2031 22.8831 42.2032 22.8831 42.2032C22.8831 42.2032 22.8831 42.2032 22.8831 42.2033C22.8831 42.2033 22.8831 42.2033 22.8831 42.2033C22.8831 42.2034 22.8831 42.2034 22.8831 42.2034C22.8831 42.2034 22.8831 42.2035 22.8831 42.2035C22.8831 42.2035 22.8831 42.2035 22.8831 42.2036C22.8831 42.2036 22.8831 42.2036 22.8831 42.2036C22.8831 42.2036 22.8831 42.2037 22.8831 42.2037C22.8831 42.2037 22.8831 42.2037 22.8831 42.2038C22.8831 42.2038 22.8831 42.2038 22.8831 42.2038C22.8831 42.2039 22.8831 42.2039 22.8831 42.2039C22.8831 42.2039 22.8831 42.204 22.8831 42.204C22.8831 42.204 22.8831 42.204 22.8831 42.204C22.8831 42.2041 22.8831 42.2041 22.8831 42.2041C22.8831 42.2041 22.8831 42.2042 22.8831 42.2042C22.8831 42.2042 22.8831 42.2042 22.8831 42.2043C22.8831 42.2043 22.8831 42.2043 22.8831 42.2043C22.8831 42.2043 22.8831 42.2044 22.8831 42.2044C22.8831 42.2044 22.8831 42.2044 22.8831 42.2045C22.8831 42.2045 22.8831 42.2045 22.8831 42.2045C22.8831 42.2045 22.8831 42.2046 22.8831 42.2046C22.8831 42.2046 22.8831 42.2046 22.8831 42.2046C22.8831 42.2047 22.8831 42.2047 22.8831 42.2047C22.8831 42.2047 22.8831 42.2048 22.8831 42.2048C22.8831 42.2048 22.8831 42.2048 22.8831 42.2048C22.8831 42.2049 22.8831 42.2049 22.8831 42.2049C22.8831 42.2049 22.8831 42.2049 22.8831 42.205C22.8831 42.205 22.8831 42.205 22.8831 42.205C22.8831 42.205 22.8831 42.2051 22.8831 42.2051C22.8831 42.2051 22.8831 42.2051 22.8831 42.2051C22.8831 42.2052 22.8831 42.2052 22.8831 42.2052C22.8831 42.2052 22.8831 42.2052 22.8831 42.2053C22.8831 42.2053 22.8831 42.2053 22.8831 42.2053C22.8831 42.2053 22.8831 42.2054 22.8831 42.2054C22.8831 42.2054 22.8831 42.2054 22.8831 42.2054C22.8831 42.2055 22.8831 42.2055 22.8831 42.2055C22.8831 42.2055 22.8831 42.2055 22.8831 42.2056C22.8831 42.2056 22.8831 42.2056 22.8831 42.2056C22.8831 42.2056 22.8831 42.2056 22.8831 42.2057C22.8831 42.2057 22.8831 42.2057 22.8831 42.2057C22.8831 42.2057 22.8831 42.2058 22.8831 42.2058C22.8831 42.2058 22.8831 42.2058 22.8831 42.2058C22.8831 42.2058 22.8831 42.2059 22.8831 42.2059C22.8831 42.2059 22.8831 42.2059 22.8831 42.2059C22.8831 42.206 22.8831 42.206 22.8831 42.206C22.8831 42.206 22.8831 42.206 22.8831 42.206C22.8831 42.2061 22.8831 42.2061 22.8831 42.2061C22.8831 42.2061 22.8831 42.2061 22.8831 42.2061C22.8831 42.2062 22.8831 42.2062 22.8831 42.2062C22.8831 42.2062 22.8831 42.2062 22.8831 42.2062C22.8831 42.2063 22.8831 42.2063 22.8831 42.2063C22.8831 42.2063 22.8831 42.2063 22.8831 42.2063C22.8831 42.2064 22.8831 42.2064 22.8831 42.2064C22.8831 42.2064 22.8831 42.2064 22.8831 42.2064C22.8831 42.2065 22.8831 42.2065 22.8831 42.2065C22.8831 42.2065 22.8831 42.2065 22.8831 42.2065C22.8831 42.2066 22.8831 42.2066 22.8831 42.2066C22.8831 42.2066 22.8831 42.2066 22.8831 42.2066C22.8831 42.2066 22.8831 42.2067 22.8831 42.2067C22.8831 42.2067 22.8831 42.2067 22.8831 42.2067C22.8831 42.2067 22.8831 42.2068 22.8831 42.2068C22.8831 42.2068 22.8831 42.2068 22.8831 42.2068C22.8831 42.2068 22.8831 42.2068 22.8831 42.2069C22.8831 42.2069 22.8831 42.2069 22.8831 42.2069C22.8831 42.2069 22.8831 42.2069 22.8831 42.2069C22.8831 42.207 22.8831 42.207 22.8831 42.207C22.8831 42.207 22.8831 42.207 22.8831 42.207C22.8831 42.207 22.8831 42.2071 22.8831 42.2071C22.8831 42.2071 22.8831 42.2071 22.8831 42.2071C22.8831 42.2071 22.8831 42.2071 22.8831 42.2072C22.8831 42.2072 22.8831 42.2072 22.8831 42.2072C22.8831 42.2072 22.8831 42.2072 22.8831 42.2072C22.8831 42.2072 22.8831 42.2073 22.8831 42.2073C22.8831 42.2073 22.8831 42.2073 22.8831 42.2073C22.8831 42.2073 22.8831 42.2073 22.8831 42.2074C22.8831 42.2074 22.8831 42.2074 22.8831 42.2074C22.8831 42.2074 22.8831 42.2074 22.8831 42.2074C22.8831 42.2074 22.8831 42.2075 22.8831 42.2075C22.8831 42.2075 22.8831 42.2075 22.8831 42.2075C22.8831 42.2075 22.8831 42.2075 22.8831 42.2075C22.8831 42.2076 22.8831 42.2076 22.8831 42.2076C22.8831 42.2076 22.8831 42.2076 22.8831 42.2076C22.8831 42.2076 22.8831 42.2076 22.8831 42.2077C22.8831 42.2077 22.8831 42.2077 22.8831 42.2077C22.8831 42.2077 22.8831 42.2077 22.8831 42.2077C22.8831 42.2077 22.8831 42.2077 22.8831 42.2078C22.8831 42.2078 22.8831 42.2078 22.8831 42.2078C22.8831 42.2078 22.8831 42.2078 22.8831 42.2078C22.8831 42.2078 22.8831 42.2079 22.8831 42.2079C22.8831 42.2079 22.8831 42.2079 22.8831 42.2079C22.8831 42.2079 22.8831 42.2079 22.8831 42.2079C22.8831 42.2079 22.8831 42.208 22.8831 42.208C22.8831 42.208 22.8831 42.208 22.8831 42.208C22.8831 42.208 22.8831 42.208 22.8831 42.208C22.8831 42.208 22.8831 42.208 22.8831 42.2081C22.8831 42.2081 22.8831 42.2081 22.8831 42.2081C22.8831 42.2081 22.8831 42.2081 22.8831 42.2081C22.8831 42.2081 22.8831 42.2081 22.8831 42.2081C22.8831 42.2082 22.8831 42.2082 22.8831 42.2082C22.8831 42.2082 22.8831 42.2082 22.8831 42.2082C22.8831 42.2082 22.8831 42.2082 22.8831 42.2082C22.8831 42.2082 22.8831 42.2083 22.8831 42.2083C22.8831 42.2083 22.8831 42.2083 22.8831 42.2083C22.8831 42.2083 22.8831 42.2083 22.8831 42.2083C22.8831 42.2083 22.8831 42.2083 22.8831 42.2083C22.8831 42.2084 22.8831 42.2084 22.8831 42.2084C22.8831 42.2084 22.8831 42.2084 22.8831 42.2084C22.8831 42.2084 22.8831 42.2084 22.8831 42.2084C22.8831 42.2084 22.8831 42.2084 22.8831 42.2085C22.8831 42.2085 22.8831 42.2085 22.8831 42.2085C22.8831 42.2085 22.8831 42.2085 22.8831 42.2085C22.8831 42.2085 22.8831 42.2085 22.8831 42.2085C22.8831 42.2085 22.8831 42.2085 22.8831 42.2086C22.8831 42.2086 22.8831 42.2086 22.8831 42.2086C22.8831 42.2086 22.8831 42.2086 22.8831 42.2086C22.8831 42.2086 22.8831 42.2086 22.8831 42.2086C22.8831 42.2086 22.8831 42.2086 22.8831 42.2087C22.8831 42.2087 22.8831 42.2087 22.8831 42.2087C22.8831 42.2087 22.8831 42.2087 22.8831 42.2087C22.8831 42.2087 22.8831 42.2087 22.8831 42.2087C22.8831 42.2087 22.8831 42.2087 22.8831 42.2087C22.8831 42.2088 22.8831 42.2088 22.8831 42.2088C22.8831 42.2088 22.8831 42.2088 22.8831 42.2088C22.8831 42.2088 22.8831 42.2088 22.8831 42.2088C22.8831 42.2088 22.8831 42.2088 22.8831 42.2088C22.8831 42.2088 22.8831 42.2088 22.8831 42.2089C22.8831 42.2089 22.8831 42.2089 22.8831 42.2089C22.8831 42.2089 22.8831 42.2089 22.8831 42.2089C22.8831 42.2089 22.8831 42.2089 22.8831 42.2089C22.8831 42.2089 22.8831 42.2089 22.8831 42.2089C22.8831 42.2089 22.8831 42.2089 22.8831 42.209C22.8831 42.209 22.8831 42.209 22.8831 42.209C22.8831 42.209 22.8831 42.209 22.8831 42.209C22.8831 42.209 22.8831 42.209 22.8831 42.209C22.8831 42.209 22.8831 42.209 22.8831 42.209C22.8831 42.209 22.8831 42.209 22.8831 42.209C22.8831 42.209 22.8831 42.2091 22.8831 42.2091C22.8831 42.2091 22.8831 42.2091 22.8831 42.2091C22.8831 42.2091 22.8831 42.2091 22.8831 42.2091C22.8831 42.2091 22.8831 42.2091 22.8831 42.2091C22.8831 42.2091 22.8831 42.2091 22.8831 42.2091C22.8831 42.2091 22.8831 42.2091 22.8831 42.2091C22.8831 42.2091 22.8831 42.2092 22.8831 42.2092C22.8831 42.2092 22.8831 42.2092 22.8831 42.2092C22.8831 42.2092 22.8831 42.2092 22.8831 42.2092C22.8831 42.2092 22.8831 42.2092 22.8831 42.2092C22.8831 42.2092 22.8831 42.2092 22.8831 42.2092C22.8831 42.2092 22.8831 42.2092 22.8831 42.2092C22.8831 42.2092 22.8831 42.2092 22.8831 42.2093C22.8831 42.2093 22.8831 42.2093 22.8831 42.2093C22.8831 42.2093 22.8831 42.2093 22.8831 42.2093C22.8831 42.2093 22.8831 42.2093 22.8831 42.2093C22.8831 42.2093 22.8831 42.2093 22.8831 42.2093C22.8831 42.2093 22.8831 42.2093 22.8831 42.2093C22.8831 42.2093 22.8831 42.2093 22.8831 42.2093C22.8831 42.2093 22.8831 42.2093 22.8831 42.2093C22.8831 42.2093 22.8831 42.2094 22.8831 42.2094C22.8831 42.2094 22.8831 42.2094 22.8831 42.2094C22.8831 42.2094 22.8831 42.2094 22.8831 42.2094C22.8831 42.2094 22.8831 42.2094 22.8831 42.2094C22.8831 42.2094 22.8831 42.2094 22.8831 42.2094C22.8831 42.2094 22.8831 42.2094 22.8831 42.2094C22.8831 42.2094 22.8831 42.2094 22.8831 42.2094C22.8831 42.2094 22.8831 42.2094 22.8831 42.2094C22.8831 42.2094 22.8831 42.2094 22.8831 42.2094C22.8831 42.2094 22.8831 42.2095 22.8831 42.2095C22.8831 42.2095 22.8831 42.2095 22.8831 42.2095C22.8831 42.2095 22.8831 42.2095 22.8831 42.2095C22.8831 42.2095 22.8831 42.2095 22.8831 42.2095C22.8831 42.2095 22.8831 42.2095 22.8831 42.2095C22.8831 42.2095 22.8831 42.2095 22.8831 42.2095C22.8831 42.2095 22.8831 42.2095 22.8831 42.2095C22.8831 42.2095 22.8831 42.2095 22.8831 42.2095C22.8831 42.2095 22.8831 42.2095 22.8831 42.2095C22.8831 42.2095 22.8831 42.2095 22.8831 42.2095C22.8831 42.2095 22.8831 42.2095 22.8831 42.2095C22.8831 42.2096 22.8831 42.2096 22.8831 42.2096C22.8831 42.2096 22.8831 42.2096 22.8831 42.2096C22.8831 42.2096 22.8831 42.2096 22.8831 42.2096C22.8831 42.2096 22.8831 42.2096 22.8831 42.2096C22.8831 42.2096 22.8831 42.2096 22.8831 42.2096V42.2096C22.8831 42.2096 22.8831 42.2096 22.8831 42.2096C22.8831 42.2096 22.8831 42.2096 22.8831 42.2096C22.8831 42.2096 22.8831 42.2096 22.8831 42.2096C22.8831 42.2096 22.8831 42.2096 22.8831 42.2096V42.2096C22.8831 42.2096 22.8831 42.2096 22.8831 42.2096V42.2096C22.8831 42.2096 22.8831 42.2096 22.8831 42.2096V42.2097C22.8831 42.2097 22.8831 42.2097 22.8831 42.2097V42.2097C22.8831 42.2097 22.8831 42.2097 22.8831 42.2097V42.2097V42.2097C22.8831 42.2097 22.8831 42.2097 22.8831 42.2097C22.8831 42.2097 22.8831 42.2097 22.8831 42.2097V42.2097V42.2097V42.2097C22.8831 42.2097 22.8831 42.2097 22.8831 42.2097C22.8831 42.2097 22.8831 42.2097 22.8831 42.2097C22.8831 42.2097 22.8831 42.2097 22.8831 42.2097C22.8831 42.2097 22.8831 42.2097 22.8831 42.2097C22.8831 42.2097 22.8831 42.2097 22.8831 42.2097V42.2097V42.2097V42.2097C22.8831 42.2097 22.8831 42.2097 22.8831 42.2097C22.8831 42.2097 22.8831 42.2097 22.8831 42.2097V42.2097C22.8831 42.2097 22.8831 42.2097 22.8831 42.2097V42.2098C22.8831 42.2098 22.8831 42.2098 22.8831 42.2098C22.8831 42.2098 22.8831 42.2098 22.8831 42.2098C22.8831 42.2098 22.8831 42.2098 22.8831 42.2098C22.8831 42.2098 22.8831 42.2098 22.8831 42.2098V42.2098C22.8831 42.2098 22.8831 42.2098 22.8831 42.2098V42.2098C22.8831 42.2098 22.8831 42.2098 22.8831 42.2098C22.8831 42.2098 22.8831 42.2098 22.8831 42.2098C24.3831 42.2098 25.8831 42.2098 24.3831 42.2098ZM25.574 43.0719L28.2103 39.6296L25.8285 37.8056L23.1923 41.2479L25.574 43.0719ZM62.7826 151.012H47.8108V154.012H62.7826V151.012ZM47.8108 151.012C48.1941 151.012 48.4792 151.188 48.6507 151.376C48.8283 151.57 49.0447 151.968 48.9181 152.476L46.0072 151.75C45.8308 152.458 46.1219 153.056 46.4362 153.4C46.7445 153.737 47.2286 154.012 47.8108 154.012V151.012ZM48.9497 152.31C51.6708 131.74 48.8371 117.91 45.6493 102.324L42.7102 102.925C45.8892 118.469 48.6264 131.878 45.9756 151.916L48.9497 152.31ZM45.6489 102.322C43.7595 93.1456 41.8365 83.6941 40.8498 71.8189L37.8601 72.0673C38.8631 84.1383 40.8198 93.7441 42.7106 102.927L45.6489 102.322ZM40.8497 71.8176C40.0292 62.0386 42.2883 53.6525 44.7337 44.4924L41.8352 43.7186C39.4061 52.8176 36.9896 61.6928 37.8602 72.0685L40.8497 71.8176ZM44.7317 44.4998C47.0639 35.9394 49.5226 26.8376 48.9604 16.585L45.9649 16.7492C46.4969 26.4518 44.1805 35.1101 41.8372 43.7112L44.7317 44.4998ZM48.9626 16.6671C48.9626 16.8578 48.9176 17.0088 48.8731 17.1131C48.8313 17.2108 48.7579 17.3428 48.6243 17.4767L46.4999 15.3586C46.1882 15.6712 45.9626 16.145 45.9626 16.6671H48.9626ZM48.6594 17.4404L50.7983 15.1455L48.6036 13.1001L46.4648 15.3949L48.6594 17.4404ZM50.8736 15.0581C50.5148 15.5079 49.965 15.5599 49.6046 15.4394C49.2781 15.3302 48.9455 15.0353 48.8679 14.5682L51.8273 14.0765C51.6999 13.3101 51.1435 12.7907 50.5558 12.5942C49.9343 12.3864 49.086 12.4882 48.5283 13.1875L50.8736 15.0581ZM48.8687 14.5733C49.2735 16.9582 49.8321 19.4049 50.3227 21.7177L53.2574 21.0952C52.7532 18.7185 52.2175 16.376 51.8264 14.0714L48.8687 14.5733ZM50.3256 21.7309C51.3351 26.2873 52.3214 30.7138 52.1813 34.3191L55.179 34.4356C55.3374 30.3581 54.2346 25.5055 53.2545 21.082L50.3256 21.7309ZM52.1818 34.3075C51.9409 39.4777 50.5892 45.0136 49.2848 50.5991L52.2062 51.2813C53.4883 45.7916 54.922 39.9531 55.1785 34.4472L52.1818 34.3075ZM49.2889 50.5821C48.3969 54.2101 47.4335 58.1214 46.8742 61.8952L49.8418 62.335C50.3767 58.7255 51.3034 54.9539 52.2021 51.2983L49.2889 50.5821ZM46.8783 61.8692C46.7819 62.4488 46.5956 63.3303 46.3869 64.4294L49.3342 64.9892C49.5234 63.993 49.735 62.9788 49.8377 62.361L46.8783 61.8692ZM46.3929 64.3996C45.6784 67.785 44.6796 72.5024 44.7317 76.788C44.7829 81.0005 45.8678 85.452 50.0023 87.4163L51.2897 84.7065C48.8087 83.5278 47.7797 80.7206 47.7314 76.7515C47.6841 72.8555 48.6003 68.4683 49.3282 65.0191L46.3929 64.3996ZM49.99 87.4104C51.8368 88.3084 53.7027 88.7088 55.5206 88.7088V85.7088C54.155 85.7088 52.738 85.4108 51.302 84.7124L49.99 87.4104ZM55.5206 88.7088C57.0053 88.7088 58.5157 88.4224 59.9273 87.7735L58.6743 85.0477C57.6984 85.4963 56.6224 85.7088 55.5206 85.7088V88.7088ZM59.9057 87.7832C63.6696 86.1245 66.2962 82.5354 68.2103 78.779C70.1402 74.9915 71.4803 70.7572 72.518 67.5108L69.6605 66.5973C68.6092 69.8862 67.3379 73.8834 65.5373 77.417C63.7209 80.9817 61.4977 83.8032 58.6959 85.038L59.9057 87.7832ZM72.5447 67.4169L72.6442 67.0178L69.7333 66.2921L69.6338 66.6912L72.5447 67.4169ZM72.6184 67.109C74.4986 61.1897 74.2786 55.3442 74.1307 50.0007L71.1318 50.0837C71.2822 55.516 71.4602 60.8455 69.7591 66.2008L72.6184 67.109ZM74.1307 50.0007C74.0306 46.3866 73.9376 43.1141 74.3674 39.809L71.3925 39.4222C70.9269 43.0017 71.0329 46.5139 71.1318 50.0837L74.1307 50.0007ZM74.3649 39.8271C74.6649 37.7213 74.91 35.9512 75.2041 34.231L72.2469 33.7255C71.9441 35.4975 71.6919 37.3194 71.3949 39.4041L74.3649 39.8271ZM75.2065 34.2164C75.9533 29.5724 76.5843 25.7007 75.962 20.2389L72.9813 20.5785C73.5527 25.5932 72.9899 29.1049 72.2445 33.7401L75.2065 34.2164ZM75.9566 20.1972C76.0411 20.7902 75.6674 21.2343 75.3052 21.3994C74.9566 21.5584 74.4365 21.5501 74.056 21.1685L76.1805 19.0503C75.5513 18.4192 74.683 18.386 74.0608 18.6697C73.4251 18.9595 72.8524 19.678 72.9866 20.6202L75.9566 20.1972ZM74.0114 21.1217L85.0537 33.1946L87.2674 31.1699L76.2251 19.097L74.0114 21.1217ZM85.0442 33.1841C85.2704 33.4362 85.3569 33.6862 85.3569 33.9284H88.3569C88.3569 32.8734 87.9461 31.9261 87.277 31.1805L85.0442 33.1841ZM85.3573 33.9616C85.408 36.2478 85.5596 38.6249 85.7598 41.0843L88.7499 40.8409C88.5522 38.4112 88.4054 36.0989 88.3566 33.8951L85.3573 33.9616ZM85.7587 41.0698C86.0333 44.9011 86.2996 48.6987 86.1724 52.2712C86.0452 55.8441 85.5258 59.0792 84.2965 61.7961L87.0298 63.0328C88.4865 59.813 89.0366 56.1387 89.1705 52.378C89.3044 48.6169 89.0235 44.6569 88.751 40.8553L85.7587 41.0698ZM84.2927 61.8048C81.4845 68.1177 76.914 74.4195 71.9644 81.2392L74.3923 83.0013C79.2913 76.2514 84.072 69.6821 87.0337 63.0241L84.2927 61.8048ZM71.9654 81.2379C64.906 90.9424 57.3532 101.353 55.2895 112.427L58.2387 112.976C60.1542 102.698 67.225 92.8542 74.3914 83.0026L71.9654 81.2379ZM55.2894 112.427C53.2741 123.259 56.1843 132.977 58.8566 142.06L61.7346 141.213C59.035 132.037 56.3743 122.997 58.2388 112.976L55.2894 112.427ZM58.8585 142.067C59.1765 143.13 59.5952 144.229 60.0422 145.375L62.8371 144.284C62.3888 143.135 62.0116 142.139 61.7327 141.207L58.8585 142.067ZM60.0322 145.348C60.4618 146.514 60.9382 147.781 61.3 149.013C61.6692 150.269 61.8686 151.329 61.8316 152.09L64.828 152.236C64.8905 150.951 64.5676 149.492 64.1783 148.167C63.7815 146.817 63.2631 145.44 62.8472 144.311L60.0322 145.348ZM62.2676 151.104C62.2134 151.158 62.1864 151.185 62.1646 151.206C62.1439 151.225 62.153 151.214 62.1826 151.193C62.214 151.171 62.2846 151.124 62.3907 151.084C62.5032 151.041 62.6369 151.012 62.7826 151.012V154.012C63.2971 154.012 63.6854 153.807 63.9298 153.632C64.1389 153.482 64.3195 153.295 64.392 153.222L62.2676 151.104ZM85.514 151.012C85.8011 151.012 86.0999 151.125 86.3275 151.353C86.5549 151.582 86.6658 151.879 86.6658 152.163H83.6658C83.6658 153.187 84.4824 154.012 85.514 154.012V151.012ZM86.6628 152.069C86.3438 147.003 83.9132 141.693 81.7621 136.838L79.0193 138.054C81.2454 143.077 83.3908 147.844 83.6687 152.257L86.6628 152.069ZM81.7593 136.832C80.4084 133.821 79.0956 130.868 78.2643 128.108C77.4267 125.328 77.149 122.963 77.6603 121.076L74.7647 120.291C74.0325 122.994 74.5009 126.017 75.3918 128.974C76.289 131.952 77.6871 135.084 79.0221 138.06L81.7593 136.832ZM77.6608 121.074C78.4487 118.153 79.945 114.42 81.6222 111.328C82.4607 109.782 83.32 108.442 84.1285 107.457C84.9901 106.409 85.6057 105.999 85.9058 105.918L85.1221 103.022C83.8554 103.365 82.7301 104.434 81.8103 105.553C80.8375 106.738 79.8751 108.257 78.9851 109.897C77.2053 113.179 75.6177 117.128 74.7643 120.293L77.6608 121.074ZM85.8788 105.925C85.4003 106.045 84.6872 105.809 84.5061 105.082L87.4171 104.357C87.1365 103.231 86.0255 102.795 85.1491 103.015L85.8788 105.925ZM84.4865 104.992C84.5775 105.485 84.5996 106.418 84.5559 107.627C84.5137 108.794 84.4167 110.087 84.318 111.225L87.3068 111.484C87.4071 110.328 87.509 108.977 87.5539 107.736C87.5972 106.538 87.5944 105.302 87.4367 104.447L84.4865 104.992ZM84.316 111.251C83.9694 116.267 83.4983 122.714 84.9953 129.393L87.9227 128.737C86.5349 122.545 86.9591 116.519 87.3088 111.458L84.316 111.251ZM84.9977 129.403L85.6443 132.197L88.567 131.52L87.9204 128.727L84.9977 129.403ZM85.6441 132.196C87.6628 140.937 89.1952 147.843 91.5828 152.633L94.2677 151.294C92.0792 146.904 90.6272 140.441 88.5672 131.521L85.6441 132.196ZM91.532 152.519C91.4117 152.218 91.4325 151.869 91.6065 151.573C91.8007 151.242 92.169 151.012 92.5771 151.012V154.012C93.2836 154.012 93.8758 153.633 94.1943 153.09C94.4926 152.582 94.5383 151.959 94.3185 151.408L91.532 152.519ZM92.5771 151.012H85.514V154.012H92.5771V151.012ZM100.587 99.6994C100.865 102.167 100.54 104.742 100.332 107.863L103.325 108.062C103.516 105.196 103.886 102.183 103.568 99.3629L100.587 99.6994ZM100.332 107.861C99.9883 112.936 99.5553 118.549 101.032 123.785L103.919 122.971C102.61 118.328 102.973 113.265 103.325 108.064L100.332 107.861ZM101.027 123.767C101.38 125.081 101.732 126.293 102.08 127.488L104.96 126.651C104.612 125.452 104.268 124.269 103.924 122.989L101.027 123.767ZM102.076 127.474C104.21 135.09 105.601 140.01 105.601 148.571H108.601C108.601 139.571 107.108 134.314 104.964 126.665L102.076 127.474ZM105.601 148.571C105.601 148.134 105.826 147.876 105.89 147.811L108.014 149.93C108.277 149.666 108.601 149.207 108.601 148.571H105.601ZM105.949 147.756C104.203 149.327 102.03 150.429 99.7141 150.78L100.163 153.746C103.119 153.298 105.821 151.907 107.956 149.985L105.949 147.756ZM99.9386 150.763C99.8735 150.763 99.9548 150.759 100.06 150.78C100.18 150.804 100.427 150.877 100.653 151.104L98.5282 153.222C98.8537 153.549 99.2247 153.672 99.4695 153.721C99.6987 153.767 99.9043 153.763 99.9386 153.763V150.763ZM100.67 151.122C99.5036 149.911 98.4156 147.528 97.3017 143.852C96.2075 140.241 95.163 135.66 93.9403 130.279L91.0149 130.944C92.2295 136.289 93.2989 140.987 94.4306 144.722C95.5426 148.392 96.7924 151.421 98.5104 153.204L100.67 151.122ZM93.939 130.273L93.2924 127.479L90.3696 128.156L91.0162 130.95L93.939 130.273ZM93.293 127.482C92.0573 122.096 92.43 116.525 92.7797 111.815L89.7879 111.593C89.4413 116.261 89.0181 122.265 90.369 128.153L93.293 127.482ZM92.7795 111.817C92.976 109.232 93.1511 106.846 92.9839 104.821C92.815 102.774 92.2826 100.869 90.8776 99.3945L88.7056 101.464C89.4395 102.234 89.8522 103.348 89.9941 105.067C90.1378 106.808 89.9896 108.938 89.7881 111.59L92.7795 111.817ZM90.8923 99.4101C90.0319 98.4808 88.4125 97.3327 85.9616 97.3327V100.333C87.3905 100.333 88.2581 100.981 88.6909 101.448L90.8923 99.4101ZM85.9616 97.3327H85.9119V100.333H85.9616V97.3327ZM85.9039 97.3328C82.9989 97.3483 80.5367 98.9216 78.5572 100.962C76.5701 103.009 74.9139 105.682 73.5949 108.273C72.2692 110.878 71.2469 113.475 70.5515 115.426C70.203 116.403 69.935 117.223 69.7507 117.805C69.6586 118.095 69.5875 118.327 69.5387 118.486C69.5136 118.568 69.4963 118.624 69.4841 118.663C69.4779 118.683 69.4756 118.69 69.4757 118.69C69.4759 118.689 69.4766 118.687 69.4778 118.684C69.4789 118.68 69.4811 118.674 69.484 118.666C69.4867 118.659 69.4921 118.644 69.4996 118.625C69.505 118.612 69.5218 118.57 69.5479 118.518L72.2327 119.856C72.2759 119.77 72.3025 119.694 72.3033 119.692C72.3115 119.669 72.3182 119.649 72.3223 119.637C72.3308 119.611 72.3396 119.583 72.3471 119.559C72.3625 119.51 72.3832 119.443 72.4067 119.366C72.4549 119.209 72.5228 118.988 72.6108 118.71C72.7868 118.154 73.0434 117.37 73.3773 116.433C74.0466 114.556 75.0202 112.087 76.2685 109.634C77.5236 107.168 79.0197 104.793 80.7102 103.051C82.4084 101.301 84.1492 100.342 85.9199 100.333L85.9039 97.3328ZM69.4416 118.798C68.4748 122.4 68.8972 126.087 69.893 129.661C70.8856 133.223 72.4899 136.807 73.996 140.2L76.7379 138.983C75.2099 135.541 73.7053 132.166 72.7829 128.856C71.8637 125.557 71.5649 122.46 72.339 119.576L69.4416 118.798ZM74.0002 140.209C75.9671 144.56 77.7861 148.768 78.1533 152.174L81.136 151.853C80.7073 147.875 78.6465 143.204 76.7337 138.973L74.0002 140.209ZM78.1446 152.013C78.1446 151.755 78.2351 151.517 78.3914 151.329C78.5541 151.133 78.8638 150.913 79.2964 150.913V153.913C79.928 153.913 80.4118 153.592 80.6988 153.246C80.9795 152.909 81.1446 152.472 81.1446 152.013H78.1446ZM79.2964 150.913H68.9504V153.913H79.2964V150.913ZM68.9504 150.913C69.2375 150.913 69.5363 151.025 69.764 151.254C69.9914 151.482 70.1023 151.779 70.1023 152.063H67.1023C67.1023 153.087 67.9189 153.913 68.9504 153.913V150.913ZM70.1021 152.087C70.1572 148.658 68.7878 145.082 67.772 142.317L64.9559 143.351C66.0292 146.273 67.1468 149.282 67.1025 152.039L70.1021 152.087ZM67.7662 142.301C67.3762 141.275 67.0387 140.306 66.8012 139.544L63.937 140.437C64.1969 141.271 64.5558 142.298 64.9617 143.367L67.7662 142.301ZM66.8093 139.571C64.2046 130.628 61.8462 122.594 63.4617 113.873L60.5119 113.326C58.7451 122.864 61.3607 131.592 63.929 140.41L66.8093 139.571ZM63.4621 113.871C64.2873 109.378 66.3669 104.775 69.1293 100.094C71.8904 95.4151 75.2787 90.7462 78.6681 86.0969L76.2439 84.3297C72.8687 88.9596 69.3928 93.7445 66.5457 98.5693C63.6998 103.392 61.4272 108.343 60.5115 113.329L63.4621 113.871ZM78.6712 86.0928C83.5184 79.3956 88.6977 72.3263 91.9079 65.1202L89.1675 63.8994C86.1105 70.7616 81.1427 77.5613 76.2409 84.3338L78.6712 86.0928ZM91.9056 65.1254C93.6395 61.2726 94.2726 56.668 94.4244 52.1189C94.5767 47.5577 94.2466 42.9153 93.974 38.9636L90.9812 39.1701C91.2557 43.1506 91.5723 47.6377 91.4261 52.0189C91.2795 56.4123 90.6691 60.563 89.1699 63.8941L91.9056 65.1254ZM93.9685 38.9017C93.9656 38.8756 93.9691 38.907 93.9663 38.8816C93.9659 38.8788 93.9645 38.8656 93.9642 38.8634C93.9633 38.8549 93.9615 38.8387 93.9608 38.8326C93.9531 38.7628 93.9657 38.8763 93.9582 38.8087C93.9544 38.7747 93.9598 38.8231 93.9562 38.7912C93.9546 38.7764 93.9551 38.781 93.9543 38.7734C93.9542 38.7725 93.9542 38.7727 93.9541 38.7722C93.9541 38.7721 93.9541 38.7722 93.9541 38.7721C93.9541 38.7721 93.9541 38.7721 93.9541 38.7721C93.9541 38.7721 93.9541 38.7721 93.9541 38.7721C92.2981 37.4463 90.9724 39.1024 90.9724 39.1024C90.9724 39.1024 90.9724 39.1024 90.9724 39.1024C90.9724 39.1024 90.9724 39.1024 90.9724 39.1025C90.9724 39.1025 90.9724 39.1025 90.9724 39.1025C90.9724 39.1029 90.9725 39.104 90.9727 39.1057C90.9732 39.11 90.9737 39.1146 90.9747 39.1235C90.9747 39.1236 90.9749 39.1249 90.9749 39.125C90.9749 39.1253 90.9749 39.1255 90.975 39.1258C90.975 39.1261 90.975 39.1263 90.975 39.1266C90.9753 39.1285 90.9752 39.1279 90.9754 39.1299C90.9762 39.137 90.975 39.1262 90.9758 39.1334C90.9762 39.1374 90.9757 39.133 90.9762 39.137C90.9774 39.1479 90.9767 39.1415 90.978 39.1531C90.9845 39.2117 90.9754 39.13 90.9821 39.1906C90.9842 39.2093 90.9823 39.192 90.9844 39.211C90.9875 39.2392 90.9836 39.2038 90.9867 39.232C90.9872 39.2365 90.9874 39.238 90.9879 39.2425C90.9886 39.2491 90.9877 39.2411 90.9885 39.2478C90.9885 39.2482 90.9886 39.2486 90.9886 39.2491C90.9887 39.2495 90.9887 39.2499 90.9888 39.2504C90.9894 39.2565 90.9884 39.2468 90.989 39.253C90.9891 39.2534 90.9891 39.2538 90.9892 39.2543C90.9892 39.2547 90.9893 39.2551 90.9893 39.2556C90.9894 39.256 90.9894 39.2564 90.9895 39.2569C90.9895 39.2573 90.9896 39.2577 90.9896 39.2582C90.9897 39.2585 90.9899 39.2603 90.9899 39.2607C90.9947 39.3037 90.9854 39.2203 90.9902 39.2633C90.9959 39.3149 90.9856 39.2219 90.9913 39.2734C90.9916 39.2765 90.9953 39.3099 90.9955 39.3109C91.0052 39.3993 90.9893 39.2555 90.9987 39.3405C91.0014 39.3644 90.9986 39.339 91.0007 39.3583C91.0007 39.3584 91.0007 39.3585 91.0007 39.3586C91.0008 39.3587 91.0008 39.3588 91.0008 39.3589C91.0008 39.359 91.0008 39.3591 91.0008 39.3592C91.0008 39.3593 91.0008 39.3594 91.0008 39.3595C91.0008 39.3596 91.0009 39.3596 91.0009 39.3597C91.0009 39.3598 91.0009 39.3599 91.0009 39.36C91.0009 39.36 91.0009 39.3604 91.0009 39.3604C91.001 39.3609 91.001 39.3607 91.001 39.3611C91.0011 39.3617 91.001 39.3608 91.001 39.3613C91.0011 39.3617 91.001 39.3611 91.0011 39.3615C91.0011 39.3616 91.0011 39.3615 91.0011 39.3616C91.0011 39.3616 91.0011 39.3616 91.0011 39.3616C91.0011 39.3616 92.3268 37.7056 93.9828 39.0313C93.9828 39.0313 93.9828 39.0313 93.9828 39.0311C93.9827 39.0303 93.9828 39.0311 93.9827 39.0299C93.9825 39.0286 93.9817 39.0207 93.9807 39.0122C93.9792 38.9987 93.9805 39.0101 93.9788 38.9947C93.9778 38.9861 93.9786 38.9926 93.9775 38.9835C93.976 38.9694 93.9778 38.9854 93.9761 38.9707C93.9744 38.9553 93.9713 38.9269 93.9685 38.9017L90.9867 39.232C90.9896 39.258 90.9861 39.2267 90.9889 39.2521C90.9893 39.2549 90.9907 39.268 90.991 39.2702C90.9919 39.2787 90.9937 39.2949 90.9944 39.3011C91.0021 39.3708 90.9895 39.2574 90.997 39.325C91.0008 39.359 90.9954 39.3106 90.999 39.3425C91.0006 39.3573 91.0001 39.3527 91.0009 39.3603C91.001 39.3612 91.001 39.3609 91.0011 39.3615C91.0011 39.3616 91.0011 39.3614 91.0011 39.3616C91.0011 39.3616 91.0011 39.3616 91.0011 39.3616C91.0011 39.3616 91.0011 39.3616 91.0011 39.3616C92.6571 40.6873 93.9828 39.0313 93.9828 39.0313C93.9828 39.0313 93.9828 39.0313 93.9828 39.0313C93.9828 39.0312 93.9828 39.0312 93.9828 39.0312C93.9828 39.0312 93.9828 39.0312 93.9828 39.0312C93.9828 39.0308 93.9827 39.0297 93.9825 39.028C93.982 39.0236 93.9815 39.0191 93.9805 39.0102C93.9805 39.0101 93.9803 39.0088 93.9803 39.0087C93.9803 39.0084 93.9803 39.0081 93.9802 39.0079C93.9802 39.0076 93.9802 39.0073 93.9802 39.0071C93.9799 39.0051 93.98 39.0057 93.9798 39.0038C93.979 38.9966 93.9802 39.0074 93.9794 39.0003C93.979 38.9963 93.9794 39.0007 93.979 38.9966C93.9778 38.9858 93.9785 38.9922 93.9772 38.9806C93.9707 38.922 93.9798 39.0037 93.9731 38.9431C93.971 38.9244 93.9729 38.9416 93.9708 38.9226C93.9677 38.8945 93.9716 38.9299 93.9685 38.9017C93.968 38.8971 93.9678 38.8957 93.9673 38.8912C93.9666 38.8845 93.9675 38.8925 93.9667 38.8859C93.9667 38.8855 93.9666 38.8851 93.9666 38.8846C93.9665 38.8842 93.9665 38.8838 93.9664 38.8833C93.9658 38.8772 93.9668 38.8868 93.9662 38.8807C93.9661 38.8803 93.9661 38.8798 93.966 38.8794C93.966 38.879 93.9659 38.8785 93.9659 38.8781C93.9658 38.8777 93.9658 38.8773 93.9657 38.8768C93.9657 38.8764 93.9656 38.876 93.9656 38.8755C93.9655 38.8751 93.9653 38.8733 93.9653 38.873C93.9605 38.8299 93.9698 38.9134 93.965 38.8704C93.9593 38.8187 93.9696 38.9118 93.9639 38.8602C93.9635 38.8572 93.9599 38.8238 93.9597 38.8228C93.95 38.7344 93.9659 38.8782 93.9565 38.7932C93.9538 38.7693 93.9566 38.7947 93.9545 38.7754C93.9545 38.7753 93.9545 38.7752 93.9545 38.7751C93.9544 38.775 93.9544 38.7749 93.9544 38.7748C93.9544 38.7747 93.9544 38.7746 93.9544 38.7745C93.9544 38.7744 93.9544 38.7743 93.9544 38.7742C93.9543 38.7741 93.9543 38.774 93.9543 38.7739C93.9543 38.7739 93.9543 38.7738 93.9543 38.7737C93.9543 38.7737 93.9543 38.7733 93.9543 38.7733C93.9542 38.7728 93.9542 38.773 93.9542 38.7726C93.9541 38.772 93.9542 38.7729 93.9542 38.7724C93.9541 38.7719 93.9542 38.7726 93.9541 38.7722C93.9541 38.7721 93.9541 38.7722 93.9541 38.7721C93.9541 38.7721 93.9541 38.7721 93.9541 38.7721C93.9541 38.7721 92.6284 40.4281 90.9724 39.1024C90.9724 39.1024 90.9724 39.1024 90.9724 39.1025C90.9725 39.1033 90.9724 39.1026 90.9725 39.1038C90.9727 39.105 90.9735 39.113 90.9745 39.1215C90.976 39.1349 90.9747 39.1235 90.9764 39.139C90.9774 39.1476 90.9766 39.1411 90.9777 39.1502C90.9792 39.1642 90.9774 39.1483 90.9791 39.1629C90.9808 39.1783 90.9839 39.2067 90.9867 39.232L93.9685 38.9017ZM91.3709 40.0794L102.463 52.2022L104.676 50.1771L93.5843 38.0543L91.3709 40.0794ZM102.458 52.197C102.92 52.7067 103.341 53.2218 103.822 53.8486L106.202 52.0229C105.688 51.3525 105.214 50.7701 104.681 50.1823L102.458 52.197ZM103.763 53.7661C103.617 53.546 103.57 53.3141 103.584 53.1044C103.598 52.8981 103.697 52.4764 104.129 52.1877L105.796 54.6815C106.377 54.2931 106.551 53.6967 106.577 53.3034C106.604 52.9066 106.507 52.4751 106.261 52.1054L103.763 53.7661ZM104.015 52.2718C100.814 54.8805 98.9602 59.7491 97.9239 64.2277C96.871 68.7782 96.564 73.3728 96.7518 75.848L99.7432 75.6211C99.5828 73.5067 99.8478 69.2212 100.847 64.904C101.862 60.515 103.54 56.5285 105.91 54.5974L104.015 52.2718ZM96.7493 75.808C96.9046 78.9754 97.724 83.5373 98.558 87.9489C99.4058 92.4337 100.271 96.7758 100.586 99.6923L103.569 99.3701C103.237 96.3 102.337 91.787 101.506 87.3917C100.661 82.9232 99.8888 78.5801 99.7457 75.6611L96.7493 75.808ZM110.078 133.505C110.078 133.23 110.188 132.933 110.414 132.707C110.619 132.501 110.865 132.406 111.082 132.382C111.295 132.358 111.57 132.393 111.835 132.567C112.132 132.763 112.328 133.08 112.37 133.419L109.393 133.79C109.46 134.329 109.755 134.79 110.188 135.074C110.587 135.337 111.034 135.406 111.414 135.364C112.193 135.277 113.078 134.634 113.078 133.505H110.078ZM112.343 133.268C111.738 130.637 111.033 128.063 110.237 125.218L107.348 126.027C108.143 128.869 108.831 131.384 109.42 133.941L112.343 133.268ZM110.228 125.187C109.889 124.071 109.604 122.925 109.246 121.592L106.349 122.37C106.688 123.631 106.999 124.88 107.357 126.058L110.228 125.187ZM109.245 121.589C108.23 117.839 108.543 113.28 108.847 108.456L105.853 108.267C105.56 112.922 105.177 118.041 106.35 122.373L109.245 121.589ZM108.847 108.459C109.043 105.459 109.302 102.248 109.095 99.1324L106.102 99.3313C106.293 102.202 106.055 105.178 105.853 108.264L108.847 108.459ZM109.097 99.1562C108.889 95.0387 107.901 91.2999 107.012 87.8341L104.106 88.5791C105.008 92.0976 105.91 95.5426 106.101 99.3075L109.097 99.1562ZM107.013 87.8355C105.954 83.6912 104.981 80.0782 105.168 76.1042L102.171 75.9636C101.959 80.4706 103.075 84.5403 104.106 88.5777L107.013 87.8355ZM105.168 76.0914C105.314 72.285 105.801 68.6626 106.486 65.6886C107.185 62.6557 108.051 60.4835 108.847 59.4251L106.45 57.6213C105.257 59.2069 104.281 61.8988 103.563 65.0146C102.831 68.1893 102.323 72.0002 102.17 75.9764L105.168 76.0914ZM108.85 59.4215C108.591 59.7675 108.21 59.8948 107.886 59.8777C107.527 59.8587 107.056 59.6407 106.852 59.1287L109.639 58.0174C109.335 57.256 108.64 56.9133 108.045 56.8818C107.485 56.8523 106.855 57.0793 106.447 57.6249L108.85 59.4215ZM106.882 59.1992C108.865 63.5167 110.128 68.2867 110.128 71.9431H113.128C113.128 67.7171 111.704 62.5096 109.608 57.947L106.882 59.1992ZM110.128 71.9419L110.078 133.504L113.078 133.506L113.128 71.9443L110.128 71.9419Z" fill="#AC6D34" mask="url(#path-1-outside-1)"/>
</svg>
