<svg width="76" height="76" viewBox="0 0 76 76" fill="none" xmlns="http://www.w3.org/2000/svg">
<path fill-rule="evenodd" clip-rule="evenodd" d="M27.082 53.3688C35.57 53.3688 42.4508 46.488 42.4508 38C42.4508 29.512 35.57 22.6311 27.082 22.6311C18.594 22.6311 11.7131 29.512 11.7131 38C11.7131 46.488 18.594 53.3688 27.082 53.3688ZM27.082 44.25C35.4002 44.25 42.1435 41.4518 42.1435 38C42.1435 34.5482 35.4002 31.75 27.082 31.75C18.7638 31.75 12.0205 34.5482 12.0205 38C12.0205 41.4518 18.7638 44.25 27.082 44.25ZM44.0902 22.6311H53.0902V52.6311H44.0902V22.6311ZM59.2869 52.6311C62.0483 52.6311 64.2869 50.3926 64.2869 47.6311C64.2869 44.8697 62.0483 42.6311 59.2869 42.6311C56.5255 42.6311 54.2869 44.8697 54.2869 47.6311C54.2869 50.3926 56.5255 52.6311 59.2869 52.6311Z" fill="white"/>
</svg>
